Noto.ufo
<glyph name="numbersign" format="2">
  <advance width="1145"/>
  <unicode hex="0023"/>
  <outline>
    <contour>
      <point x="387" y="537" type="line"/>
      <point x="672" y="537" type="line"/>
      <point x="748" y="938" type="line"/>
      <point x="463" y="938" type="line"/>
    </contour>
    <contour>
      <point x="1028" y="537" type="line"/>
      <point x="1028" y="416" type="line"/>
      <point x="770" y="416" type="line"/>
      <point x="692" y="0" type="line"/>
      <point x="569" y="0" type="line"/>
      <point x="647" y="416" type="line"/>
      <point x="362" y="416" type="line"/>
      <point x="285" y="0" type="line"/>
      <point x="162" y="0" type="line"/>
      <point x="240" y="416" type="line"/>
      <point x="51" y="416" type="line"/>
      <point x="51" y="537" type="line"/>
      <point x="262" y="537" type="line"/>
      <point x="340" y="938" type="line"/>
      <point x="117" y="938" type="line"/>
      <point x="117" y="1059" type="line"/>
      <point x="362" y="1059" type="line"/>
      <point x="436" y="1462" type="line"/>
      <point x="561" y="1462" type="line"/>
      <point x="485" y="1059" type="line"/>
      <point x="770" y="1059" type="line"/>
      <point x="846" y="1462" type="line"/>
      <point x="969" y="1462" type="line"/>
      <point x="893" y="1059" type="line"/>
      <point x="1094" y="1059" type="line"/>
      <point x="1094" y="938" type="line"/>
      <point x="870" y="938" type="line"/>
      <point x="795" y="537" type="line"/>
    </contour>
  </outline>
</glyph>
<glyph name="hyphen" format="2">
  <advance width="635"/>
  <unicode hex="002D"/>
  <outline>
    <contour>
      <point x="51" y="481" type="line"/>
      <point x="51" y="635" type="line"/>
      <point x="584" y="635" type="line"/>
      <point x="584" y="481" type="line"/>
    </contour>
  </outline>
</glyph>
<glyph name="A" format="2">
  <advance width="1444"/>
  <unicode hex="0041"/>
  <outline>
    <contour>
      <point x="414" y="489" type="line"/>
      <point x="336" y="274" type="line" smooth="yes"/>
      <point x="327" y="250"/>
      <point x="317" y="203"/>
      <point x="317" y="186" type="qcurve" smooth="yes"/>
      <point x="317" y="134"/>
      <point x="384" y="86"/>
      <point x="453" y="86" type="qcurve" smooth="yes"/>
      <point x="500" y="86" type="line"/>
      <point x="500" y="0" type="line"/>
      <point x="0" y="0" type="line"/>
      <point x="0" y="86" type="line"/>
      <point x="39" y="86" type="line" smooth="yes"/>
      <point x="69" y="86"/>
      <point x="111" y="99"/>
      <point x="145" y="135"/>
      <point x="176" y="197"/>
      <point x="195" y="246" type="qcurve" smooth="yes"/>
      <point x="649" y="1462" type="line"/>
      <point x="809" y="1462" type="line"/>
      <point x="1272" y="195" type="line" smooth="yes"/>
      <point x="1284" y="163"/>
      <point x="1309" y="121"/>
      <point x="1343" y="96"/>
      <point x="1387" y="86"/>
      <point x="1417" y="86" type="qcurve" smooth="yes"/>
      <point x="1444" y="86" type="line"/>
      <point x="1444" y="0" type="line"/>
      <point x="881" y="0" type="line"/>
      <point x="881" y="86" type="line"/>
      <point x="928" y="86" type="line" smooth="yes"/>
      <point x="1051" y="86"/>
      <point x="1051" y="184" type="qcurve" smooth="yes"/>
      <point x="1051" y="201"/>
      <point x="1042" y="237"/>
      <point x="1034" y="260" type="qcurve" smooth="yes"/>
      <point x="952" y="489" type="line"/>
    </contour>
    <contour>
      <point x="788" y="950" type="line" smooth="yes"/>
      <point x="756" y="1041"/>
      <point x="703" y="1200"/>
      <point x="686" y="1274" type="qcurve"/>
      <point x="679" y="1237"/>
      <point x="660" y="1168"/>
      <point x="638" y="1096"/>
      <point x="610" y="1017"/>
      <point x="592" y="969" type="qcurve" smooth="yes"/>
      <point x="453" y="592" type="line"/>
      <point x="915" y="592" type="line"/>
    </contour>
  </outline>
</glyph>
<glyph name="F" format="2">
  <advance width="1208"/>
  <unicode hex="0046"/>
  <outline>
    <contour>
      <point x="479" y="1360" type="line"/>
      <point x="479" y="768" type="line"/>
      <point x="973" y="768" type="line"/>
      <point x="973" y="668" type="line"/>
      <point x="479" y="668" type="line"/>
      <point x="479" y="233" type="line" smooth="yes"/>
      <point x="479" y="185"/>
      <point x="506" y="127"/>
      <point x="551" y="96"/>
      <point x="613" y="86"/>
      <point x="647" y="86" type="qcurve" smooth="yes"/>
      <point x="715" y="86" type="line"/>
      <point x="715" y="0" type="line"/>
      <point x="78" y="0" type="line"/>
      <point x="78" y="86" type="line"/>
      <point x="104" y="86" type="line" smooth="yes"/>
      <point x="138" y="86"/>
      <point x="199" y="95"/>
      <point x="245" y="123"/>
      <point x="272" y="178"/>
      <point x="272" y="223" type="qcurve" smooth="yes"/>
      <point x="272" y="1237" type="line" smooth="yes"/>
      <point x="272" y="1282"/>
      <point x="245" y="1337"/>
      <point x="199" y="1367"/>
      <point x="138" y="1376"/>
      <point x="104" y="1376" type="qcurve" smooth="yes"/>
      <point x="78" y="1376" type="line"/>
      <point x="78" y="1462" type="line"/>
      <point x="1110" y="1462" type="line"/>
      <point x="1120" y="1104" type="line"/>
      <point x="1014" y="1104" type="line"/>
      <point x="1004" y="1192" type="line" smooth="yes"/>
      <point x="1000" y="1227"/>
      <point x="976" y="1288"/>
      <point x="931" y="1333"/>
      <point x="863" y="1360"/>
      <point x="815" y="1360" type="qcurve" smooth="yes"/>
    </contour>
  </outline>
</glyph>
<glyph name="G" format="2">
  <advance width="1462"/>
  <unicode hex="0047"/>
  <outline>
    <contour>
      <point x="821" y="-20" type="qcurve" smooth="yes"/>
      <point x="643" y="-20"/>
      <point x="378" y="88"/>
      <point x="203" y="286"/>
      <point x="117" y="564"/>
      <point x="117" y="733" type="qcurve" smooth="yes"/>
      <point x="117" y="899"/>
      <point x="208" y="1175"/>
      <point x="389" y="1373"/>
      <point x="657" y="1483"/>
      <point x="834" y="1483" type="qcurve" smooth="yes"/>
      <point x="948" y="1483"/>
      <point x="1117" y="1448"/>
      <point x="1230" y="1386"/>
      <point x="1286" y="1302"/>
      <point x="1286" y="1253" type="qcurve" smooth="yes"/>
      <point x="1286" y="1220"/>
      <point x="1256" y="1167"/>
      <point x="1205" y="1130"/>
      <point x="1136" y="1110"/>
      <point x="1096" y="1110" type="qcurve"/>
      <point x="1096" y="1158"/>
      <point x="1068" y="1252"/>
      <point x="1004" y="1327"/>
      <point x="900" y="1374"/>
      <point x="825" y="1374" type="qcurve" smooth="yes"/>
      <point x="695" y="1374"/>
      <point x="512" y="1289"/>
      <point x="396" y="1126"/>
      <point x="344" y="887"/>
      <point x="344" y="733" type="qcurve" smooth="yes"/>
      <point x="344" y="580"/>
      <point x="398" y="342"/>
      <point x="520" y="180"/>
      <point x="714" y="96"/>
      <point x="854" y="96" type="qcurve" smooth="yes"/>
      <point x="913" y="96"/>
      <point x="1024" y="108"/>
      <point x="1067" y="121" type="qcurve"/>
      <point x="1067" y="451" type="line" smooth="yes"/>
      <point x="1067" y="496"/>
      <point x="1040" y="551"/>
      <point x="994" y="580"/>
      <point x="933" y="590"/>
      <point x="899" y="590" type="qcurve" smooth="yes"/>
      <point x="891" y="590" type="line"/>
      <point x="891" y="676" type="line"/>
      <point x="1423" y="676" type="line"/>
      <point x="1423" y="590" type="line"/>
      <point x="1415" y="590" type="line" smooth="yes"/>
      <point x="1386" y="590"/>
      <point x="1334" y="580"/>
      <point x="1296" y="549"/>
      <point x="1274" y="490"/>
      <point x="1274" y="442" type="qcurve" smooth="yes"/>
      <point x="1274" y="74" type="line"/>
      <point x="1171" y="26"/>
      <point x="953" y="-20"/>
    </contour>
  </outline>
</glyph>
<glyph name="I" format="2">
  <advance width="752"/>
  <unicode hex="0049"/>
  <outline>
    <contour>
      <point x="78" y="0" type="line"/>
      <point x="78" y="86" type="line"/>
      <point x="104" y="86" type="line" smooth="yes"/>
      <point x="139" y="86"/>
      <point x="200" y="96"/>
      <point x="246" y="127"/>
      <point x="272" y="185"/>
      <point x="272" y="233" type="qcurve" smooth="yes"/>
      <point x="272" y="1229" type="line" smooth="yes"/>
      <point x="272" y="1277"/>
      <point x="246" y="1335"/>
      <point x="200" y="1366"/>
      <point x="139" y="1376"/>
      <point x="104" y="1376" type="qcurve" smooth="yes"/>
      <point x="78" y="1376" type="line"/>
      <point x="78" y="1462" type="line"/>
      <point x="674" y="1462" type="line"/>
      <point x="674" y="1376" type="line"/>
      <point x="647" y="1376" type="line" smooth="yes"/>
      <point x="613" y="1376"/>
      <point x="551" y="1366"/>
      <point x="506" y="1335"/>
      <point x="479" y="1277"/>
      <point x="479" y="1229" type="qcurve" smooth="yes"/>
      <point x="479" y="233" type="line" smooth="yes"/>
      <point x="479" y="185"/>
      <point x="506" y="127"/>
      <point x="551" y="96"/>
      <point x="613" y="86"/>
      <point x="647" y="86" type="qcurve" smooth="yes"/>
      <point x="674" y="86" type="line"/>
      <point x="674" y="0" type="line"/>
    </contour>
  </outline>
</glyph>
<glyph name="K" format="2">
  <advance width="1434"/>
  <unicode hex="004B"/>
  <outline>
    <contour>
      <point x="903" y="1137" type="line" smooth="yes"/>
      <point x="936" y="1175"/>
      <point x="980" y="1234"/>
      <point x="1005" y="1282"/>
      <point x="1016" y="1318"/>
      <point x="1016" y="1333" type="qcurve" smooth="yes"/>
      <point x="1016" y="1359"/>
      <point x="966" y="1378"/>
      <point x="915" y="1378" type="qcurve"/>
      <point x="915" y="1462" type="line"/>
      <point x="1368" y="1462" type="line"/>
      <point x="1368" y="1378" type="line"/>
      <point x="1333" y="1378"/>
      <point x="1268" y="1351"/>
      <point x="1203" y="1302"/>
      <point x="1134" y="1231"/>
      <point x="1094" y="1186" type="qcurve" smooth="yes"/>
      <point x="797" y="852" type="line"/>
      <point x="1229" y="250" type="line" smooth="yes"/>
      <point x="1288" y="169"/>
      <point x="1397" y="86"/>
      <point x="1454" y="86" type="qcurve" smooth="yes"/>
      <point x="1458" y="86" type="line"/>
      <point x="1458" y="0" type="line"/>
      <point x="1436" y="0" type="line" smooth="yes"/>
      <point x="1333" y="0"/>
      <point x="1201" y="16"/>
      <point x="1111" y="58"/>
      <point x="1044" y="129"/>
      <point x="1006" y="184" type="qcurve" smooth="yes"/>
      <point x="653" y="690" type="line"/>
      <point x="479" y="549" type="line"/>
      <point x="479" y="233" type="line" smooth="yes"/>
      <point x="479" y="185"/>
      <point x="506" y="127"/>
      <point x="551" y="96"/>
      <point x="613" y="86"/>
      <point x="647" y="86" type="qcurve" smooth="yes"/>
      <point x="674" y="86" type="line"/>
      <point x="674" y="0" type="line"/>
      <point x="78" y="0" type="line"/>
      <point x="78" y="86" type="line"/>
      <point x="104" y="86" type="line" smooth="yes"/>
      <point x="138" y="86"/>
      <point x="199" y="95"/>
      <point x="245" y="123"/>
      <point x="272" y="178"/>
      <point x="272" y="223" type="qcurve" smooth="yes"/>
      <point x="272" y="1237" type="line" smooth="yes"/>
      <point x="272" y="1282"/>
      <point x="245" y="1337"/>
      <point x="199" y="1367"/>
      <point x="138" y="1376"/>
      <point x="104" y="1376" type="qcurve" smooth="yes"/>
      <point x="78" y="1376" type="line"/>
      <point x="78" y="1462" type="line"/>
      <point x="674" y="1462" type="line"/>
      <point x="674" y="1376" type="line"/>
      <point x="647" y="1376" type="line" smooth="yes"/>
      <point x="613" y="1376"/>
      <point x="551" y="1366"/>
      <point x="506" y="1335"/>
      <point x="479" y="1277"/>
      <point x="479" y="1229" type="qcurve" smooth="yes"/>
      <point x="479" y="651" type="line"/>
    </contour>
  </outline>
</glyph>
<glyph name="S" format="2">
  <advance width="1114"/>
  <unicode hex="0053"/>
  <outline>
    <contour>
      <point x="506" y="-20" type="qcurve" smooth="yes"/>
      <point x="406" y="-20"/>
      <point x="253" y="22"/>
      <point x="150" y="97"/>
      <point x="98" y="204"/>
      <point x="98" y="268" type="qcurve" smooth="yes"/>
      <point x="98" y="330"/>
      <point x="175" y="406"/>
      <point x="246" y="406" type="qcurve"/>
      <point x="249" y="342"/>
      <point x="282" y="224"/>
      <point x="348" y="134"/>
      <point x="450" y="80"/>
      <point x="522" y="80" type="qcurve" smooth="yes"/>
      <point x="660" y="80"/>
      <point x="815" y="213"/>
      <point x="815" y="338" type="qcurve" smooth="yes"/>
      <point x="815" y="394"/>
      <point x="783" y="480"/>
      <point x="709" y="553"/>
      <point x="588" y="620"/>
      <point x="498" y="657" type="qcurve" smooth="yes"/>
      <point x="403" y="696"/>
      <point x="261" y="785"/>
      <point x="167" y="894"/>
      <point x="121" y="1028"/>
      <point x="121" y="1112" type="qcurve" smooth="yes"/>
      <point x="121" y="1200"/>
      <point x="188" y="1338"/>
      <point x="308" y="1433"/>
      <point x="472" y="1483"/>
      <point x="569" y="1483" type="qcurve" smooth="yes"/>
      <point x="661" y="1483"/>
      <point x="803" y="1445"/>
      <point x="901" y="1381"/>
      <point x="952" y="1298"/>
      <point x="952" y="1253" type="qcurve" smooth="yes"/>
      <point x="952" y="1187"/>
      <point x="865" y="1120"/>
      <point x="791" y="1120" type="qcurve"/>
      <point x="791" y="1168"/>
      <point x="768" y="1261"/>
      <point x="714" y="1334"/>
      <point x="626" y="1380"/>
      <point x="561" y="1380" type="qcurve" smooth="yes"/>
      <point x="502" y="1380"/>
      <point x="409" y="1347"/>
      <point x="345" y="1286"/>
      <point x="311" y="1200"/>
      <point x="311" y="1147" type="qcurve" smooth="yes"/>
      <point x="311" y="1086"/>
      <point x="343" y="993"/>
      <point x="418" y="918"/>
      <point x="540" y="851"/>
      <point x="629" y="815" type="qcurve" smooth="yes"/>
      <point x="719" y="778"/>
      <point x="860" y="696"/>
      <point x="958" y="595"/>
      <point x="1010" y="470"/>
      <point x="1010" y="391" type="qcurve" smooth="yes"/>
      <point x="1010" y="294"/>
      <point x="939" y="141"/>
      <point x="807" y="35"/>
      <point x="621" y="-20"/>
    </contour>
  </outline>
</glyph>
<glyph name="T" format="2">
  <advance width="1255"/>
  <unicode hex="0054"/>
  <outline>
    <contour>
      <point x="729" y="233" type="line" smooth="yes"/>
      <point x="729" y="185"/>
      <point x="756" y="127"/>
      <point x="801" y="96"/>
      <point x="863" y="86"/>
      <point x="897" y="86" type="qcurve" smooth="yes"/>
      <point x="944" y="86" type="line"/>
      <point x="944" y="0" type="line"/>
      <point x="307" y="0" type="line"/>
      <point x="307" y="86" type="line"/>
      <point x="354" y="86" type="line" smooth="yes"/>
      <point x="388" y="86"/>
      <point x="449" y="95"/>
      <point x="495" y="123"/>
      <point x="522" y="178"/>
      <point x="522" y="223" type="qcurve" smooth="yes"/>
      <point x="522" y="1360" type="line"/>
      <point x="326" y="1360" type="line" smooth="yes"/>
      <point x="281" y="1360"/>
      <point x="220" y="1333"/>
      <point x="181" y="1287"/>
      <point x="162" y="1226"/>
      <point x="158" y="1192" type="qcurve" smooth="yes"/>
      <point x="147" y="1104" type="line"/>
      <point x="41" y="1104" type="line"/>
      <point x="51" y="1462" type="line"/>
      <point x="1204" y="1462" type="line"/>
      <point x="1214" y="1104" type="line"/>
      <point x="1108" y="1104" type="line"/>
      <point x="1098" y="1192" type="line" smooth="yes"/>
      <point x="1094" y="1226"/>
      <point x="1074" y="1287"/>
      <point x="1036" y="1333"/>
      <point x="974" y="1360"/>
      <point x="928" y="1360" type="qcurve" smooth="yes"/>
      <point x="729" y="1360" type="line"/>
    </contour>
  </outline>
</glyph>
<glyph name="U" format="2">
  <advance width="1468"/>
  <unicode hex="0055"/>
  <outline>
    <contour>
      <point x="741" y="-20" type="qcurve" smooth="yes"/>
      <point x="620" y="-20"/>
      <point x="428" y="31"/>
      <point x="295" y="142"/>
      <point x="225" y="317"/>
      <point x="225" y="442" type="qcurve" smooth="yes"/>
      <point x="225" y="1237" type="line" smooth="yes"/>
      <point x="225" y="1282"/>
      <point x="198" y="1337"/>
      <point x="152" y="1367"/>
      <point x="91" y="1376"/>
      <point x="57" y="1376" type="qcurve" smooth="yes"/>
      <point x="31" y="1376" type="line"/>
      <point x="31" y="1462" type="line"/>
      <point x="627" y="1462" type="line"/>
      <point x="627" y="1376" type="line"/>
      <point x="600" y="1376" type="line" smooth="yes"/>
      <point x="566" y="1376"/>
      <point x="504" y="1366"/>
      <point x="459" y="1335"/>
      <point x="432" y="1277"/>
      <point x="432" y="1229" type="qcurve" smooth="yes"/>
      <point x="432" y="430" type="line" smooth="yes"/>
      <point x="432" y="341"/>
      <point x="483" y="216"/>
      <point x="574" y="138"/>
      <point x="699" y="102"/>
      <point x="774" y="102" type="qcurve" smooth="yes"/>
      <point x="863" y="102"/>
      <point x="992" y="150"/>
      <point x="1077" y="235"/>
      <point x="1118" y="352"/>
      <point x="1118" y="422" type="qcurve" smooth="yes"/>
      <point x="1118" y="1237" type="line" smooth="yes"/>
      <point x="1118" y="1282"/>
      <point x="1091" y="1337"/>
      <point x="1045" y="1367"/>
      <point x="984" y="1376"/>
      <point x="950" y="1376" type="qcurve" smooth="yes"/>
      <point x="924" y="1376" type="line"/>
      <point x="924" y="1462" type="line"/>
      <point x="1438" y="1462" type="line"/>
      <point x="1438" y="1376" type="line"/>
      <point x="1411" y="1376" type="line" smooth="yes"/>
      <point x="1377" y="1376"/>
      <point x="1315" y="1366"/>
      <point x="1270" y="1335"/>
      <point x="1243" y="1277"/>
      <point x="1243" y="1229" type="qcurve" smooth="yes"/>
      <point x="1243" y="418" type="line" smooth="yes"/>
      <point x="1243" y="316"/>
      <point x="1178" y="153"/>
      <point x="1051" y="40"/>
      <point x="863" y="-20"/>
    </contour>
  </outline>
</glyph>
<glyph name="X" format="2">
  <advance width="1352"/>
  <unicode hex="0058"/>
  <outline>
    <contour>
      <point x="954" y="1317" type="qcurve" smooth="yes"/>
      <point x="954" y="1335"/>
      <point x="937" y="1358"/>
      <point x="908" y="1371"/>
      <point x="868" y="1376"/>
      <point x="844" y="1376" type="qcurve" smooth="yes"/>
      <point x="838" y="1376" type="line"/>
      <point x="838" y="1462" type="line"/>
      <point x="1286" y="1462" type="line"/>
      <point x="1286" y="1376" type="line"/>
      <point x="1268" y="1376" type="line" smooth="yes"/>
      <point x="1238" y="1376"/>
      <point x="1189" y="1362"/>
      <point x="1143" y="1327"/>
      <point x="1094" y="1271"/>
      <point x="1065" y="1229" type="qcurve" smooth="yes"/>
      <point x="768" y="801" type="line"/>
      <point x="1145" y="195" type="line"/>
      <point x="1190" y="135"/>
      <point x="1270" y="86"/>
      <point x="1309" y="86" type="qcurve" smooth="yes"/>
      <point x="1335" y="86" type="line"/>
      <point x="1335" y="0" type="line"/>
      <point x="782" y="0" type="line"/>
      <point x="782" y="86" type="line"/>
      <point x="793" y="86" type="line" smooth="yes"/>
      <point x="915" y="86"/>
      <point x="915" y="154" type="qcurve" smooth="yes"/>
      <point x="915" y="165"/>
      <point x="910" y="187"/>
      <point x="896" y="217"/>
      <point x="869" y="261"/>
      <point x="848" y="295" type="qcurve" smooth="yes"/>
      <point x="645" y="621" type="line"/>
      <point x="418" y="285" type="line" smooth="yes"/>
      <point x="409" y="272"/>
      <point x="391" y="239"/>
      <point x="375" y="203"/>
      <point x="365" y="166"/>
      <point x="365" y="150" type="qcurve" smooth="yes"/>
      <point x="365" y="115"/>
      <point x="430" y="86"/>
      <point x="498" y="86" type="qcurve" smooth="yes"/>
      <point x="504" y="86" type="line"/>
      <point x="504" y="0" type="line"/>
      <point x="16" y="0" type="line"/>
      <point x="16" y="86" type="line"/>
      <point x="29" y="86" type="line" smooth="yes"/>
      <point x="66" y="86"/>
      <point x="121" y="101"/>
      <point x="168" y="135"/>
      <point x="214" y="189"/>
      <point x="242" y="229" type="qcurve" smooth="yes"/>
      <point x="584" y="719" type="line"/>
      <point x="246" y="1268" type="line" smooth="yes"/>
      <point x="209" y="1327"/>
      <point x="116" y="1376"/>
      <point x="70" y="1376" type="qcurve" smooth="yes"/>
      <point x="43" y="1376" type="line"/>
      <point x="43" y="1462" type="line"/>
      <point x="598" y="1462" type="line"/>
      <point x="598" y="1376" type="line"/>
      <point x="592" y="1376" type="line" smooth="yes"/>
      <point x="557" y="1376"/>
      <point x="511" y="1367"/>
      <point x="485" y="1351"/>
      <point x="475" y="1329"/>
      <point x="475" y="1317" type="qcurve" smooth="yes"/>
      <point x="475" y="1306"/>
      <point x="478" y="1286"/>
      <point x="488" y="1259"/>
      <point x="507" y="1223"/>
      <point x="524" y="1196" type="qcurve" smooth="yes"/>
      <point x="709" y="897" type="line"/>
      <point x="903" y="1192" type="line" smooth="yes"/>
      <point x="926" y="1227"/>
      <point x="954" y="1289"/>
    </contour>
  </outline>
</glyph>
<glyph name="asciicircum" format="2">
  <advance width="1145"/>
  <unicode hex="005E"/>
  <outline>
    <contour>
      <point x="535" y="1462" type="line"/>
      <point x="606" y="1462" type="line"/>
      <point x="1038" y="545" type="line"/>
      <point x="901" y="545" type="line"/>
      <point x="569" y="1274" type="line"/>
      <point x="242" y="545" type="line"/>
      <point x="104" y="545" type="line"/>
    </contour>
  </outline>
</glyph>
<glyph name="grave" format="2">
  <advance width="1182"/>
  <unicode hex="0060"/>
  <outline>
    <contour>
      <point x="791" y="1241" type="line"/>
      <point x="713" y="1241" type="line"/>
      <point x="672" y="1269"/>
      <point x="576" y="1352"/>
      <point x="486" y="1440"/>
      <point x="412" y="1521"/>
      <point x="393" y="1548" type="qcurve"/>
      <point x="393" y="1569" type="line"/>
      <point x="612" y="1569" type="line"/>
      <point x="628" y="1535"/>
      <point x="671" y="1454"/>
      <point x="719" y="1373"/>
      <point x="769" y="1297"/>
      <point x="791" y="1268" type="qcurve"/>
    </contour>
  </outline>
</glyph>
<glyph name="b" format="2">
  <advance width="1257"/>
  <unicode hex="0062"/>
  <outline>
    <contour>
      <point x="1145" y="551" type="qcurve" smooth="yes"/>
      <point x="1145" y="403"/>
      <point x="1090" y="187"/>
      <point x="984" y="47"/>
      <point x="828" y="-20"/>
      <point x="727" y="-20" type="qcurve" smooth="yes"/>
      <point x="668" y="-20"/>
      <point x="572" y="6"/>
      <point x="495" y="54"/>
      <point x="436" y="120"/>
      <point x="414" y="160" type="qcurve"/>
      <point x="401" y="160" type="line"/>
      <point x="365" y="0" type="line"/>
      <point x="37" y="0" type="line"/>
      <point x="37" y="86" type="line"/>
      <point x="53" y="86" type="line" smooth="yes"/>
      <point x="88" y="86"/>
      <point x="149" y="96"/>
      <point x="194" y="127"/>
      <point x="221" y="185"/>
      <point x="221" y="233" type="qcurve" smooth="yes"/>
      <point x="221" y="1331" type="line" smooth="yes"/>
      <point x="221" y="1376"/>
      <point x="194" y="1431"/>
      <point x="148" y="1461"/>
      <point x="87" y="1470"/>
      <point x="53" y="1470" type="qcurve" smooth="yes"/>
      <point x="37" y="1470" type="line"/>
      <point x="37" y="1556" type="line"/>
      <point x="414" y="1556" type="line"/>
      <point x="414" y="1180" type="line" smooth="yes"/>
      <point x="414" y="1145"/>
      <point x="412" y="1054"/>
      <point x="410" y="1012" type="qcurve" smooth="yes"/>
      <point x="408" y="964"/>
      <point x="406" y="913" type="qcurve"/>
      <point x="414" y="913" type="line"/>
      <point x="437" y="960"/>
      <point x="495" y="1036"/>
      <point x="571" y="1089"/>
      <point x="667" y="1118"/>
      <point x="727" y="1118" type="qcurve" smooth="yes"/>
      <point x="828" y="1118"/>
      <point x="984" y="1051"/>
      <point x="1090" y="912"/>
      <point x="1145" y="698"/>
    </contour>
    <contour>
      <point x="692" y="987" type="qcurve" smooth="yes"/>
      <point x="612" y="987"/>
      <point x="505" y="934"/>
      <point x="441" y="826"/>
      <point x="414" y="662"/>
      <point x="414" y="551" type="qcurve" smooth="yes"/>
      <point x="414" y="444"/>
      <point x="441" y="280"/>
      <point x="506" y="168"/>
      <point x="613" y="111"/>
      <point x="694" y="111" type="qcurve" smooth="yes"/>
      <point x="762" y="111"/>
      <point x="857" y="168"/>
      <point x="918" y="280"/>
      <point x="946" y="445"/>
      <point x="946" y="553" type="qcurve" smooth="yes"/>
      <point x="946" y="662"/>
      <point x="918" y="825"/>
      <point x="857" y="933"/>
      <point x="760" y="987"/>
    </contour>
  </outline>
</glyph>
<glyph name="c" format="2">
  <advance width="1008"/>
  <unicode hex="0063"/>
  <outline>
    <contour>
      <point x="580" y="-20" type="qcurve" smooth="yes"/>
      <point x="478" y="-20"/>
      <point x="306" y="43"/>
      <point x="182" y="179"/>
      <point x="113" y="392"/>
      <point x="113" y="543" type="qcurve" smooth="yes"/>
      <point x="113" y="707"/>
      <point x="182" y="928"/>
      <point x="305" y="1062"/>
      <point x="472" y="1118"/>
      <point x="569" y="1118" type="qcurve" smooth="yes"/>
      <point x="633" y="1118"/>
      <point x="760" y="1093"/>
      <point x="862" y="1041"/>
      <point x="926" y="962"/>
      <point x="926" y="909" type="qcurve" smooth="yes"/>
      <point x="926" y="838"/>
      <point x="834" y="780"/>
      <point x="743" y="780" type="qcurve"/>
      <point x="743" y="828"/>
      <point x="727" y="914"/>
      <point x="688" y="979"/>
      <point x="621" y="1016"/>
      <point x="569" y="1016" type="qcurve" smooth="yes"/>
      <point x="510" y="1016"/>
      <point x="415" y="972"/>
      <point x="347" y="864"/>
      <point x="311" y="682"/>
      <point x="311" y="545" type="qcurve" smooth="yes"/>
      <point x="311" y="327"/>
      <point x="456" y="113"/>
      <point x="621" y="113" type="qcurve" smooth="yes"/>
      <point x="716" y="113"/>
      <point x="858" y="193"/>
      <point x="893" y="256" type="qcurve"/>
      <point x="908" y="244"/>
      <point x="928" y="204"/>
      <point x="928" y="176" type="qcurve" smooth="yes"/>
      <point x="928" y="141"/>
      <point x="884" y="71"/>
      <point x="797" y="15"/>
      <point x="667" y="-20"/>
    </contour>
  </outline>
</glyph>
<glyph name="e" format="2">
  <advance width="1096"/>
  <unicode hex="0065"/>
  <outline>
    <contour>
      <point x="563" y="1008" type="qcurve" smooth="yes"/>
      <point x="449" y="1008"/>
      <point x="326" y="823"/>
      <point x="315" y="645" type="qcurve"/>
      <point x="786" y="645" type="line"/>
      <point x="786" y="726"/>
      <point x="762" y="860"/>
      <point x="710" y="956"/>
      <point x="625" y="1008"/>
    </contour>
    <contour>
      <point x="588" y="-20" type="qcurve" smooth="yes"/>
      <point x="477" y="-20"/>
      <point x="300" y="55"/>
      <point x="178" y="199"/>
      <point x="113" y="408"/>
      <point x="113" y="541" type="qcurve" smooth="yes"/>
      <point x="113" y="828"/>
      <point x="349" y="1118"/>
      <point x="567" y="1118" type="qcurve" smooth="yes"/>
      <point x="666" y="1118"/>
      <point x="824" y="1056"/>
      <point x="934" y="933"/>
      <point x="993" y="750"/>
      <point x="993" y="629" type="qcurve" smooth="yes"/>
      <point x="993" y="535" type="line"/>
      <point x="311" y="535" type="line"/>
      <point x="313" y="423"/>
      <point x="354" y="262"/>
      <point x="431" y="158"/>
      <point x="543" y="109"/>
      <point x="616" y="109" type="qcurve" smooth="yes"/>
      <point x="669" y="109"/>
      <point x="760" y="133"/>
      <point x="834" y="173"/>
      <point x="891" y="224"/>
      <point x="909" y="252" type="qcurve"/>
      <point x="923" y="246"/>
      <point x="948" y="208"/>
      <point x="948" y="182" type="qcurve" smooth="yes"/>
      <point x="948" y="151"/>
      <point x="904" y="80"/>
      <point x="814" y="20"/>
      <point x="679" y="-20"/>
    </contour>
  </outline>
</glyph>
<glyph name="g" format="2">
  <advance width="1102"/>
  <unicode hex="0067"/>
  <outline>
    <contour>
      <point x="1077" y="1055" type="qcurve" smooth="yes"/>
      <point x="1077" y="1033"/>
      <point x="1064" y="994"/>
      <point x="1038" y="965"/>
      <point x="997" y="948"/>
      <point x="969" y="948" type="qcurve"/>
      <point x="969" y="960"/>
      <point x="963" y="984"/>
      <point x="948" y="1005"/>
      <point x="922" y="1018"/>
      <point x="901" y="1018" type="qcurve" smooth="yes"/>
      <point x="875" y="1018"/>
      <point x="833" y="1006"/>
      <point x="813" y="993" type="qcurve"/>
      <point x="848" y="950"/>
      <point x="893" y="833"/>
      <point x="893" y="745" type="qcurve" smooth="yes"/>
      <point x="893" y="669"/>
      <point x="847" y="540"/>
      <point x="756" y="446"/>
      <point x="617" y="393"/>
      <point x="524" y="393" type="qcurve" smooth="yes"/>
      <point x="512" y="393"/>
      <point x="482" y="394"/>
      <point x="452" y="395"/>
      <point x="426" y="398"/>
      <point x="418" y="399" type="qcurve"/>
      <point x="398" y="389"/>
      <point x="362" y="365"/>
      <point x="335" y="335"/>
      <point x="319" y="297"/>
      <point x="319" y="274" type="qcurve" smooth="yes"/>
      <point x="319" y="249"/>
      <point x="338" y="219"/>
      <point x="372" y="202"/>
      <point x="419" y="197"/>
      <point x="446" y="197" type="qcurve" smooth="yes"/>
      <point x="678" y="197" type="line" smooth="yes"/>
      <point x="770" y="197"/>
      <point x="898" y="151"/>
      <point x="979" y="70"/>
      <point x="1016" y="-43"/>
      <point x="1016" y="-109" type="qcurve" smooth="yes"/>
      <point x="1016" y="-197"/>
      <point x="951" y="-339"/>
      <point x="817" y="-438"/>
      <point x="612" y="-492"/>
      <point x="473" y="-492" type="qcurve" smooth="yes"/>
      <point x="259" y="-492"/>
      <point x="47" y="-334"/>
      <point x="47" y="-193" type="qcurve" smooth="yes"/>
      <point x="47" y="-133"/>
      <point x="89" y="-43"/>
      <point x="160" y="21"/>
      <point x="252" y="61"/>
      <point x="303" y="70" type="qcurve"/>
      <point x="282" y="79"/>
      <point x="242" y="109"/>
      <point x="210" y="151"/>
      <point x="190" y="205"/>
      <point x="190" y="238" type="qcurve" smooth="yes"/>
      <point x="190" y="299"/>
      <point x="254" y="388"/>
      <point x="324" y="430" type="qcurve"/>
      <point x="280" y="448"/>
      <point x="211" y="511"/>
      <point x="164" y="592"/>
      <point x="139" y="688"/>
      <point x="139" y="739" type="qcurve" smooth="yes"/>
      <point x="139" y="828"/>
      <point x="187" y="968"/>
      <point x="283" y="1066"/>
      <point x="427" y="1118"/>
      <point x="524" y="1118" type="qcurve" smooth="yes"/>
      <point x="561" y="1118"/>
      <point x="633" y="1107"/>
      <point x="694" y="1088"/>
      <point x="743" y="1064"/>
      <point x="758" y="1051" type="qcurve"/>
      <point x="773" y="1067"/>
      <point x="813" y="1106"/>
      <point x="863" y="1139"/>
      <point x="922" y="1161"/>
      <point x="956" y="1161" type="qcurve" smooth="yes"/>
      <point x="987" y="1161"/>
      <point x="1032" y="1144"/>
      <point x="1062" y="1115"/>
      <point x="1077" y="1076"/>
    </contour>
    <contour>
      <point x="213" y="-180" type="qcurve" smooth="yes"/>
      <point x="213" y="-225"/>
      <point x="237" y="-303"/>
      <point x="297" y="-359"/>
      <point x="399" y="-391"/>
      <point x="477" y="-391" type="qcurve" smooth="yes"/>
      <point x="587" y="-391"/>
      <point x="730" y="-354"/>
      <point x="814" y="-288"/>
      <point x="848" y="-197"/>
      <point x="848" y="-143" type="qcurve" smooth="yes"/>
      <point x="848" y="-96"/>
      <point x="821" y="-35"/>
      <point x="768" y="0"/>
      <point x="690" y="14"/>
      <point x="639" y="14" type="qcurve" smooth="yes"/>
      <point x="438" y="14" type="line" smooth="yes"/>
      <point x="395" y="14"/>
      <point x="314" y="-1"/>
      <point x="251" y="-43"/>
      <point x="213" y="-119"/>
    </contour>
    <contour>
      <point x="332" y="745" type="qcurve" smooth="yes"/>
      <point x="332" y="614"/>
      <point x="419" y="492"/>
      <point x="518" y="492" type="qcurve" smooth="yes"/>
      <point x="568" y="492"/>
      <point x="637" y="522"/>
      <point x="681" y="584"/>
      <point x="700" y="681"/>
      <point x="700" y="748" type="qcurve" smooth="yes"/>
      <point x="700" y="886"/>
      <point x="616" y="1018"/>
      <point x="516" y="1018" type="qcurve" smooth="yes"/>
      <point x="417" y="1018"/>
      <point x="332" y="883"/>
    </contour>
  </outline>
</glyph>
<glyph name="h" format="2">
  <advance width="1300"/>
  <unicode hex="0068"/>
  <outline>
    <contour>
      <point x="588" y="86" type="line"/>
      <point x="588" y="0" type="line"/>
      <point x="37" y="0" type="line"/>
      <point x="37" y="86" type="line"/>
      <point x="53" y="86" type="line" smooth="yes"/>
      <point x="88" y="86"/>
      <point x="149" y="96"/>
      <point x="194" y="127"/>
      <point x="221" y="185"/>
      <point x="221" y="233" type="qcurve" smooth="yes"/>
      <point x="221" y="1331" type="line" smooth="yes"/>
      <point x="221" y="1376"/>
      <point x="194" y="1431"/>
      <point x="148" y="1461"/>
      <point x="87" y="1470"/>
      <point x="53" y="1470" type="qcurve" smooth="yes"/>
      <point x="37" y="1470" type="line"/>
      <point x="37" y="1556" type="line"/>
      <point x="414" y="1556" type="line"/>
      <point x="414" y="1106" type="line" smooth="yes"/>
      <point x="414" y="1078"/>
      <point x="412" y="1017"/>
      <point x="410" y="991" type="qcurve" smooth="yes"/>
      <point x="408" y="961"/>
      <point x="406" y="932" type="qcurve"/>
      <point x="416" y="932" type="line"/>
      <point x="508" y="1118"/>
      <point x="717" y="1118" type="qcurve" smooth="yes"/>
      <point x="804" y="1118"/>
      <point x="939" y="1071"/>
      <point x="1031" y="974"/>
      <point x="1079" y="822"/>
      <point x="1079" y="717" type="qcurve" smooth="yes"/>
      <point x="1079" y="233" type="line" smooth="yes"/>
      <point x="1079" y="185"/>
      <point x="1103" y="127"/>
      <point x="1145" y="96"/>
      <point x="1203" y="86"/>
      <point x="1237" y="86" type="qcurve" smooth="yes"/>
      <point x="1243" y="86" type="line"/>
      <point x="1243" y="0" type="line"/>
      <point x="887" y="0" type="line"/>
      <point x="887" y="707" type="line" smooth="yes"/>
      <point x="887" y="774"/>
      <point x="863" y="878"/>
      <point x="810" y="950"/>
      <point x="724" y="987"/>
      <point x="662" y="987" type="qcurve" smooth="yes"/>
      <point x="598" y="987"/>
      <point x="505" y="940"/>
      <point x="444" y="853"/>
      <point x="414" y="730"/>
      <point x="414" y="655" type="qcurve" smooth="yes"/>
      <point x="414" y="223" type="line" smooth="yes"/>
      <point x="414" y="178"/>
      <point x="441" y="123"/>
      <point x="487" y="95"/>
      <point x="548" y="86"/>
      <point x="582" y="86" type="qcurve" smooth="yes"/>
    </contour>
  </outline>
</glyph>
<glyph name="j" format="2">
  <advance width="614"/>
  <unicode hex="006A"/>
  <outline>
    <contour>
      <point x="414" y="1098" type="line"/>
      <point x="414" y="-16" type="line" smooth="yes"/>
      <point x="414" y="-154"/>
      <point x="354" y="-337"/>
      <point x="246" y="-446"/>
      <point x="97" y="-492"/>
      <point x="8" y="-492" type="qcurve" smooth="yes"/>
      <point x="-25" y="-492" type="line"/>
      <point x="-25" y="-395" type="line"/>
      <point x="-10" y="-395" type="line" smooth="yes"/>
      <point x="45" y="-395"/>
      <point x="131" y="-358"/>
      <point x="190" y="-271"/>
      <point x="221" y="-126"/>
      <point x="221" y="-18" type="qcurve" smooth="yes"/>
      <point x="221" y="872" type="line" smooth="yes"/>
      <point x="221" y="917"/>
      <point x="194" y="972"/>
      <point x="148" y="1002"/>
      <point x="87" y="1012"/>
      <point x="53" y="1012" type="qcurve" smooth="yes"/>
      <point x="47" y="1012" type="line"/>
      <point x="47" y="1098" type="line"/>
    </contour>
    <contour>
      <point x="193" y="1430" type="qcurve" smooth="yes"/>
      <point x="193" y="1466"/>
      <point x="211" y="1514"/>
      <point x="242" y="1544"/>
      <point x="285" y="1556"/>
      <point x="309" y="1556" type="qcurve" smooth="yes"/>
      <point x="333" y="1556"/>
      <point x="376" y="1544"/>
      <point x="407" y="1514"/>
      <point x="426" y="1466"/>
      <point x="426" y="1430" type="qcurve" smooth="yes"/>
      <point x="426" y="1394"/>
      <point x="407" y="1346"/>
      <point x="376" y="1316"/>
      <point x="333" y="1303"/>
      <point x="309" y="1303" type="qcurve" smooth="yes"/>
      <point x="285" y="1303"/>
      <point x="242" y="1316"/>
      <point x="211" y="1346"/>
      <point x="193" y="1394"/>
    </contour>
  </outline>
</glyph>
<glyph name="m" format="2">
  <advance width="1935"/>
  <unicode hex="006D"/>
  <outline>
    <contour>
      <point x="608" y="86" type="line"/>
      <point x="608" y="0" type="line"/>
      <point x="57" y="0" type="line"/>
      <point x="57" y="86" type="line"/>
      <point x="84" y="86" type="line" smooth="yes"/>
      <point x="119" y="86"/>
      <point x="177" y="96"/>
      <point x="219" y="127"/>
      <point x="242" y="185"/>
      <point x="242" y="233" type="qcurve" smooth="yes"/>
      <point x="242" y="872" type="line" smooth="yes"/>
      <point x="242" y="917"/>
      <point x="218" y="972"/>
      <point x="176" y="1002"/>
      <point x="118" y="1012"/>
      <point x="84" y="1012" type="qcurve" smooth="yes"/>
      <point x="78" y="1012" type="line"/>
      <point x="78" y="1098" type="line"/>
      <point x="399" y="1098" type="line"/>
      <point x="426" y="932" type="line"/>
      <point x="436" y="932" type="line"/>
      <point x="467" y="989"/>
      <point x="535" y="1062"/>
      <point x="612" y="1103"/>
      <point x="697" y="1118"/>
      <point x="745" y="1118" type="qcurve" smooth="yes"/>
      <point x="795" y="1118"/>
      <point x="885" y="1098"/>
      <point x="962" y="1054"/>
      <point x="1023" y="983"/>
      <point x="1042" y="932" type="qcurve"/>
      <point x="1059" y="932" type="line"/>
      <point x="1090" y="989"/>
      <point x="1162" y="1062"/>
      <point x="1243" y="1103"/>
      <point x="1332" y="1118"/>
      <point x="1380" y="1118" type="qcurve" smooth="yes"/>
      <point x="1458" y="1118"/>
      <point x="1582" y="1071"/>
      <point x="1668" y="974"/>
      <point x="1714" y="822"/>
      <point x="1714" y="717" type="qcurve" smooth="yes"/>
      <point x="1714" y="233" type="line" smooth="yes"/>
      <point x="1714" y="185"/>
      <point x="1738" y="127"/>
      <point x="1780" y="96"/>
      <point x="1838" y="86"/>
      <point x="1872" y="86" type="qcurve" smooth="yes"/>
      <point x="1878" y="86" type="line"/>
      <point x="1878" y="0" type="line"/>
      <point x="1522" y="0" type="line"/>
      <point x="1522" y="707" type="line" smooth="yes"/>
      <point x="1522" y="774"/>
      <point x="1499" y="878"/>
      <point x="1448" y="950"/>
      <point x="1366" y="987"/>
      <point x="1307" y="987" type="qcurve" smooth="yes"/>
      <point x="1243" y="987"/>
      <point x="1156" y="938"/>
      <point x="1102" y="854"/>
      <point x="1079" y="744"/>
      <point x="1079" y="682" type="qcurve" smooth="yes"/>
      <point x="1079" y="233" type="line" smooth="yes"/>
      <point x="1079" y="185"/>
      <point x="1103" y="127"/>
      <point x="1145" y="96"/>
      <point x="1203" y="86"/>
      <point x="1237" y="86" type="qcurve" smooth="yes"/>
      <point x="1243" y="86" type="line"/>
      <point x="1243" y="0" type="line"/>
      <point x="887" y="0" type="line"/>
      <point x="887" y="707" type="line" smooth="yes"/>
      <point x="887" y="774"/>
      <point x="864" y="878"/>
      <point x="813" y="950"/>
      <point x="731" y="987"/>
      <point x="672" y="987" type="qcurve" smooth="yes"/>
      <point x="605" y="987"/>
      <point x="514" y="933"/>
      <point x="458" y="841"/>
      <point x="434" y="721"/>
      <point x="434" y="655" type="qcurve" smooth="yes"/>
      <point x="434" y="223" type="line" smooth="yes"/>
      <point x="434" y="178"/>
      <point x="461" y="123"/>
      <point x="507" y="95"/>
      <point x="568" y="86"/>
      <point x="602" y="86" type="qcurve" smooth="yes"/>
    </contour>
  </outline>
</glyph>
<glyph name="o" format="2">
  <advance width="1182"/>
  <unicode hex="006F"/>
  <outline>
    <contour>
      <point x="1069" y="551" type="qcurve" smooth="yes"/>
      <point x="1069" y="262"/>
      <point x="824" y="-20"/>
      <point x="588" y="-20" type="qcurve" smooth="yes"/>
      <point x="477" y="-20"/>
      <point x="301" y="50"/>
      <point x="178" y="192"/>
      <point x="113" y="407"/>
      <point x="113" y="551" type="qcurve" smooth="yes"/>
      <point x="113" y="838"/>
      <point x="356" y="1118"/>
      <point x="594" y="1118" type="qcurve" smooth="yes"/>
      <point x="705" y="1118"/>
      <point x="881" y="1049"/>
      <point x="1004" y="908"/>
      <point x="1069" y="695"/>
    </contour>
    <contour>
      <point x="311" y="551" type="qcurve" smooth="yes"/>
      <point x="311" y="437"/>
      <point x="341" y="263"/>
      <point x="408" y="146"/>
      <point x="515" y="86"/>
      <point x="592" y="86" type="qcurve" smooth="yes"/>
      <point x="669" y="86"/>
      <point x="775" y="146"/>
      <point x="841" y="263"/>
      <point x="870" y="437"/>
      <point x="870" y="551" type="qcurve" smooth="yes"/>
      <point x="870" y="665"/>
      <point x="840" y="837"/>
      <point x="774" y="952"/>
      <point x="667" y="1010"/>
      <point x="590" y="1010" type="qcurve" smooth="yes"/>
      <point x="513" y="1010"/>
      <point x="407" y="952"/>
      <point x="341" y="837"/>
      <point x="311" y="665"/>
    </contour>
  </outline>
</glyph>
<glyph name="q" format="2">
  <advance width="1257"/>
  <unicode hex="0071"/>
  <outline>
    <contour>
      <point x="1221" y="-492" type="line"/>
      <point x="608" y="-492" type="line"/>
      <point x="608" y="-406" type="line"/>
      <point x="676" y="-406" type="line" smooth="yes"/>
      <point x="711" y="-406"/>
      <point x="772" y="-396"/>
      <point x="817" y="-365"/>
      <point x="844" y="-306"/>
      <point x="844" y="-258" type="qcurve" smooth="yes"/>
      <point x="844" y="-82" type="line" smooth="yes"/>
      <point x="844" y="-47"/>
      <point x="846" y="44"/>
      <point x="848" y="86" type="qcurve" smooth="yes"/>
      <point x="850" y="134"/>
      <point x="852" y="184" type="qcurve"/>
      <point x="844" y="184" type="line"/>
      <point x="821" y="137"/>
      <point x="762" y="62"/>
      <point x="686" y="9"/>
      <point x="590" y="-20"/>
      <point x="530" y="-20" type="qcurve" smooth="yes"/>
      <point x="429" y="-20"/>
      <point x="273" y="47"/>
      <point x="167" y="186"/>
      <point x="113" y="400"/>
      <point x="113" y="547" type="qcurve" smooth="yes"/>
      <point x="113" y="695"/>
      <point x="167" y="911"/>
      <point x="273" y="1051"/>
      <point x="429" y="1118"/>
      <point x="530" y="1118" type="qcurve" smooth="yes"/>
      <point x="589" y="1118"/>
      <point x="685" y="1092"/>
      <point x="762" y="1044"/>
      <point x="822" y="978"/>
      <point x="844" y="938" type="qcurve"/>
      <point x="856" y="938" type="line"/>
      <point x="893" y="1098" type="line"/>
      <point x="1221" y="1098" type="line"/>
      <point x="1221" y="1012" type="line"/>
      <point x="1204" y="1012" type="line" smooth="yes"/>
      <point x="1170" y="1012"/>
      <point x="1108" y="1002"/>
      <point x="1063" y="971"/>
      <point x="1036" y="912"/>
      <point x="1036" y="864" type="qcurve" smooth="yes"/>
      <point x="1036" y="-266" type="line" smooth="yes"/>
      <point x="1036" y="-311"/>
      <point x="1063" y="-366"/>
      <point x="1109" y="-396"/>
      <point x="1170" y="-406"/>
      <point x="1204" y="-406" type="qcurve" smooth="yes"/>
      <point x="1221" y="-406" type="line"/>
    </contour>
    <contour>
      <point x="565" y="111" type="qcurve" smooth="yes"/>
      <point x="645" y="111"/>
      <point x="752" y="164"/>
      <point x="817" y="272"/>
      <point x="844" y="436"/>
      <point x="844" y="547" type="qcurve" smooth="yes"/>
      <point x="844" y="654"/>
      <point x="817" y="818"/>
      <point x="752" y="929"/>
      <point x="644" y="987"/>
      <point x="563" y="987" type="qcurve" smooth="yes"/>
      <point x="496" y="987"/>
      <point x="400" y="929"/>
      <point x="339" y="817"/>
      <point x="311" y="652"/>
      <point x="311" y="545" type="qcurve" smooth="yes"/>
      <point x="311" y="327"/>
      <point x="429" y="111"/>
    </contour>
  </outline>
</glyph>
<glyph name="r" format="2">
  <advance width="965"/>
  <unicode hex="0072"/>
  <outline>
    <contour>
      <point x="659" y="0" type="line"/>
      <point x="68" y="0" type="line"/>
      <point x="68" y="86" type="line"/>
      <point x="74" y="86" type="line" smooth="yes"/>
      <point x="109" y="86"/>
      <point x="170" y="96"/>
      <point x="215" y="127"/>
      <point x="242" y="185"/>
      <point x="242" y="233" type="qcurve" smooth="yes"/>
      <point x="242" y="872" type="line" smooth="yes"/>
      <point x="242" y="917"/>
      <point x="215" y="972"/>
      <point x="169" y="1002"/>
      <point x="108" y="1012"/>
      <point x="74" y="1012" type="qcurve" smooth="yes"/>
      <point x="68" y="1012" type="line"/>
      <point x="68" y="1098" type="line"/>
      <point x="383" y="1098" type="line"/>
      <point x="422" y="895" type="line"/>
      <point x="432" y="895" type="line"/>
      <point x="452" y="941"/>
      <point x="494" y="1022"/>
      <point x="555" y="1083"/>
      <point x="645" y="1118"/>
      <point x="713" y="1118" type="qcurve" smooth="yes"/>
      <point x="825" y="1118"/>
      <point x="934" y="1040"/>
      <point x="934" y="969" type="qcurve" smooth="yes"/>
      <point x="934" y="937"/>
      <point x="913" y="883"/>
      <point x="867" y="844"/>
      <point x="795" y="823"/>
      <point x="743" y="823" type="qcurve"/>
      <point x="743" y="908"/>
      <point x="695" y="983"/>
      <point x="635" y="983" type="qcurve" smooth="yes"/>
      <point x="597" y="983"/>
      <point x="537" y="940"/>
      <point x="492" y="869"/>
      <point x="461" y="777"/>
      <point x="442" y="680"/>
      <point x="434" y="584"/>
      <point x="434" y="545" type="qcurve" smooth="yes"/>
      <point x="434" y="223" type="line" smooth="yes"/>
      <point x="434" y="178"/>
      <point x="461" y="123"/>
      <point x="507" y="95"/>
      <point x="568" y="86"/>
      <point x="602" y="86" type="qcurve" smooth="yes"/>
      <point x="659" y="86" type="line"/>
    </contour>
  </outline>
</glyph>
<glyph name="s" format="2">
  <advance width="924"/>
  <unicode hex="0073"/>
  <outline>
    <contour>
      <point x="430" y="-20" type="qcurve" smooth="yes"/>
      <point x="353" y="-20"/>
      <point x="228" y="7"/>
      <point x="140" y="62"/>
      <point x="92" y="143"/>
      <point x="92" y="197" type="qcurve" smooth="yes"/>
      <point x="92" y="238"/>
      <point x="119" y="293"/>
      <point x="158" y="325"/>
      <point x="203" y="338"/>
      <point x="221" y="338" type="qcurve"/>
      <point x="221" y="284"/>
      <point x="243" y="190"/>
      <point x="295" y="119"/>
      <point x="380" y="78"/>
      <point x="442" y="78" type="qcurve" smooth="yes"/>
      <point x="497" y="78"/>
      <point x="581" y="105"/>
      <point x="638" y="154"/>
      <point x="668" y="223"/>
      <point x="668" y="264" type="qcurve" smooth="yes"/>
      <point x="668" y="302"/>
      <point x="645" y="357"/>
      <point x="588" y="405"/>
      <point x="490" y="455"/>
      <point x="416" y="487" type="qcurve" smooth="yes"/>
      <point x="337" y="522"/>
      <point x="220" y="587"/>
      <point x="144" y="663"/>
      <point x="106" y="760"/>
      <point x="106" y="827" type="qcurve" smooth="yes"/>
      <point x="106" y="897"/>
      <point x="161" y="1005"/>
      <point x="263" y="1078"/>
      <point x="405" y="1116"/>
      <point x="492" y="1116" type="qcurve" smooth="yes"/>
      <point x="565" y="1116"/>
      <point x="677" y="1086"/>
      <point x="753" y="1035"/>
      <point x="791" y="966"/>
      <point x="791" y="928" type="qcurve" smooth="yes"/>
      <point x="791" y="872"/>
      <point x="714" y="805"/>
      <point x="643" y="805" type="qcurve"/>
      <point x="643" y="908"/>
      <point x="558" y="1022"/>
      <point x="467" y="1022" type="qcurve" smooth="yes"/>
      <point x="415" y="1022"/>
      <point x="341" y="998"/>
      <point x="294" y="954"/>
      <point x="272" y="894"/>
      <point x="272" y="858" type="qcurve" smooth="yes"/>
      <point x="272" y="819"/>
      <point x="300" y="762"/>
      <point x="361" y="714"/>
      <point x="458" y="669"/>
      <point x="526" y="641" type="qcurve" smooth="yes"/>
      <point x="607" y="607"/>
      <point x="723" y="541"/>
      <point x="798" y="463"/>
      <point x="834" y="365"/>
      <point x="834" y="301" type="qcurve" smooth="yes"/>
      <point x="834" y="221"/>
      <point x="776" y="101"/>
      <point x="670" y="20"/>
      <point x="521" y="-20"/>
    </contour>
  </outline>
</glyph>
<glyph name="t" format="2">
  <advance width="721"/>
  <unicode hex="0074"/>
  <outline>
    <contour>
      <point x="543" y="88" type="qcurve" smooth="yes"/>
      <point x="580" y="88"/>
      <point x="642" y="96"/>
      <point x="674" y="102" type="qcurve"/>
      <point x="674" y="12" type="line"/>
      <point x="661" y="6"/>
      <point x="619" y="-6"/>
      <point x="570" y="-15"/>
      <point x="516" y="-20"/>
      <point x="492" y="-20" type="qcurve" smooth="yes"/>
      <point x="414" y="-20"/>
      <point x="302" y="13"/>
      <point x="230" y="87"/>
      <point x="195" y="209"/>
      <point x="195" y="297" type="qcurve" smooth="yes"/>
      <point x="195" y="981" type="line"/>
      <point x="39" y="981" type="line"/>
      <point x="39" y="1063" type="line"/>
      <point x="76" y="1063"/>
      <point x="165" y="1093"/>
      <point x="199" y="1128" type="qcurve" smooth="yes"/>
      <point x="234" y="1166"/>
      <point x="277" y="1271"/>
      <point x="293" y="1350" type="qcurve"/>
      <point x="387" y="1350" type="line"/>
      <point x="387" y="1098" type="line"/>
      <point x="655" y="1098" type="line"/>
      <point x="655" y="981" type="line"/>
      <point x="387" y="981" type="line"/>
      <point x="387" y="291" type="line" smooth="yes"/>
      <point x="387" y="186"/>
      <point x="472" y="88"/>
    </contour>
  </outline>
</glyph>
<glyph name="u" format="2">
  <advance width="1300"/>
  <unicode hex="0075"/>
  <outline>
    <contour>
      <point x="1079" y="223" type="line" smooth="yes"/>
      <point x="1079" y="178"/>
      <point x="1106" y="123"/>
      <point x="1152" y="95"/>
      <point x="1213" y="86"/>
      <point x="1247" y="86" type="qcurve" smooth="yes"/>
      <point x="1253" y="86" type="line"/>
      <point x="1253" y="0" type="line"/>
      <point x="928" y="0" type="line"/>
      <point x="901" y="166" type="line"/>
      <point x="891" y="166" type="line"/>
      <point x="860" y="108"/>
      <point x="785" y="36"/>
      <point x="701" y="-5"/>
      <point x="609" y="-20"/>
      <point x="559" y="-20" type="qcurve" smooth="yes"/>
      <point x="478" y="-20"/>
      <point x="352" y="26"/>
      <point x="266" y="124"/>
      <point x="221" y="276"/>
      <point x="221" y="381" type="qcurve" smooth="yes"/>
      <point x="221" y="872" type="line" smooth="yes"/>
      <point x="221" y="917"/>
      <point x="194" y="972"/>
      <point x="148" y="1002"/>
      <point x="87" y="1012"/>
      <point x="53" y="1012" type="qcurve" smooth="yes"/>
      <point x="47" y="1012" type="line"/>
      <point x="47" y="1098" type="line"/>
      <point x="414" y="1098" type="line"/>
      <point x="414" y="391" type="line" smooth="yes"/>
      <point x="414" y="324"/>
      <point x="435" y="220"/>
      <point x="484" y="148"/>
      <point x="567" y="111"/>
      <point x="629" y="111" type="qcurve" smooth="yes"/>
      <point x="697" y="111"/>
      <point x="794" y="159"/>
      <point x="857" y="246"/>
      <point x="887" y="368"/>
      <point x="887" y="442" type="qcurve" smooth="yes"/>
      <point x="887" y="864" type="line" smooth="yes"/>
      <point x="887" y="912"/>
      <point x="860" y="971"/>
      <point x="815" y="1002"/>
      <point x="754" y="1012"/>
      <point x="719" y="1012" type="qcurve" smooth="yes"/>
      <point x="713" y="1012" type="line"/>
      <point x="713" y="1098" type="line"/>
      <point x="1079" y="1098" type="line"/>
    </contour>
  </outline>
</glyph>
<glyph name="w" format="2">
  <advance width="1765"/>
  <unicode hex="0077"/>
  <outline>
    <contour>
      <point x="975" y="1092" type="line"/>
      <point x="1180" y="485" type="line" smooth="yes"/>
      <point x="1192" y="448"/>
      <point x="1219" y="363"/>
      <point x="1243" y="280"/>
      <point x="1263" y="206"/>
      <point x="1268" y="180" type="qcurve"/>
      <point x="1274" y="180" type="line"/>
      <point x="1283" y="231"/>
      <point x="1323" y="380"/>
      <point x="1354" y="479" type="qcurve" smooth="yes"/>
      <point x="1456" y="809" type="line" smooth="yes"/>
      <point x="1464" y="835"/>
      <point x="1475" y="894"/>
      <point x="1475" y="911" type="qcurve" smooth="yes"/>
      <point x="1475" y="964"/>
      <point x="1408" y="1012"/>
      <point x="1339" y="1012" type="qcurve" smooth="yes"/>
      <point x="1325" y="1012" type="line"/>
      <point x="1325" y="1098" type="line"/>
      <point x="1763" y="1098" type="line"/>
      <point x="1763" y="1012" type="line"/>
      <point x="1737" y="1012" type="line" smooth="yes"/>
      <point x="1707" y="1012"/>
      <point x="1663" y="1000"/>
      <point x="1628" y="965"/>
      <point x="1598" y="903"/>
      <point x="1583" y="852" type="qcurve" smooth="yes"/>
      <point x="1319" y="0" type="line"/>
      <point x="1155" y="0" type="line"/>
      <point x="911" y="721" type="line"/>
      <point x="874" y="856" type="line"/>
      <point x="584" y="0" type="line"/>
      <point x="422" y="0" type="line"/>
      <point x="154" y="903" type="line"/>
      <point x="142" y="935"/>
      <point x="116" y="977"/>
      <point x="82" y="1002"/>
      <point x="38" y="1012"/>
      <point x="8" y="1012" type="qcurve" smooth="yes"/>
      <point x="2" y="1012" type="line"/>
      <point x="2" y="1098" type="line"/>
      <point x="508" y="1098" type="line"/>
      <point x="508" y="1012" type="line"/>
      <point x="481" y="1012" type="line" smooth="yes"/>
      <point x="420" y="1012"/>
      <point x="358" y="976"/>
      <point x="358" y="926" type="qcurve" smooth="yes"/>
      <point x="358" y="909"/>
      <point x="369" y="861"/>
      <point x="375" y="838" type="qcurve" smooth="yes"/>
      <point x="471" y="494" type="line" smooth="yes"/>
      <point x="481" y="457"/>
      <point x="503" y="369"/>
      <point x="522" y="282"/>
      <point x="538" y="206"/>
      <point x="543" y="180" type="qcurve"/>
      <point x="549" y="180" type="line"/>
      <point x="554" y="206"/>
      <point x="571" y="275"/>
      <point x="594" y="354"/>
      <point x="620" y="436"/>
      <point x="633" y="473" type="qcurve" smooth="yes"/>
      <point x="846" y="1092" type="line"/>
    </contour>
  </outline>
</glyph>
<glyph name="y" format="2">
  <advance width="1157"/>
  <unicode hex="0079"/>
  <outline>
    <contour>
      <point x="1157" y="1098" type="line"/>
      <point x="1157" y="1012" type="line"/>
      <point x="1151" y="1012" type="line" smooth="yes"/>
      <point x="1121" y="1012"/>
      <point x="1078" y="999"/>
      <point x="1043" y="963"/>
      <point x="1013" y="901"/>
      <point x="995" y="852" type="qcurve" smooth="yes"/>
      <point x="684" y="-8" type="line" smooth="yes"/>
      <point x="648" y="-107"/>
      <point x="584" y="-257"/>
      <point x="514" y="-364"/>
      <point x="431" y="-434"/>
      <point x="325" y="-476"/>
      <point x="187" y="-492"/>
      <point x="96" y="-492" type="qcurve" smooth="yes"/>
      <point x="78" y="-492" type="line"/>
      <point x="78" y="-395" type="line"/>
      <point x="182" y="-395"/>
      <point x="332" y="-333"/>
      <point x="441" y="-225"/>
      <point x="514" y="-78"/>
      <point x="539" y="8" type="qcurve"/>
      <point x="160" y="903" type="line" smooth="yes"/>
      <point x="146" y="935"/>
      <point x="120" y="976"/>
      <point x="87" y="1002"/>
      <point x="44" y="1012"/>
      <point x="14" y="1012" type="qcurve" smooth="yes"/>
      <point x="8" y="1012" type="line"/>
      <point x="8" y="1098" type="line"/>
      <point x="500" y="1098" type="line"/>
      <point x="500" y="1012" type="line"/>
      <point x="494" y="1012" type="line" smooth="yes"/>
      <point x="432" y="1012"/>
      <point x="371" y="964"/>
      <point x="371" y="913" type="qcurve" smooth="yes"/>
      <point x="371" y="896"/>
      <point x="378" y="861"/>
      <point x="387" y="838" type="qcurve" smooth="yes"/>
      <point x="537" y="473" type="line" smooth="yes"/>
      <point x="551" y="438"/>
      <point x="582" y="355"/>
      <point x="609" y="274"/>
      <point x="631" y="202"/>
      <point x="635" y="176" type="qcurve"/>
      <point x="641" y="176" type="line"/>
      <point x="652" y="221"/>
      <point x="691" y="350"/>
      <point x="717" y="424" type="qcurve" smooth="yes"/>
      <point x="854" y="823" type="line" smooth="yes"/>
      <point x="863" y="848"/>
      <point x="872" y="894"/>
      <point x="872" y="911" type="qcurve" smooth="yes"/>
      <point x="872" y="964"/>
      <point x="805" y="1012"/>
      <point x="737" y="1012" type="qcurve" smooth="yes"/>
      <point x="731" y="1012" type="line"/>
      <point x="731" y="1098" type="line"/>
    </contour>
  </outline>
</glyph>
<glyph name="z" format="2">
  <advance width="1047"/>
  <unicode hex="007A"/>
  <outline>
    <contour>
      <point x="696" y="117" type="line" smooth="yes"/>
      <point x="732" y="117"/>
      <point x="779" y="145"/>
      <point x="810" y="191"/>
      <point x="829" y="252"/>
      <point x="836" y="285" type="qcurve" smooth="yes"/>
      <point x="846" y="332" type="line"/>
      <point x="932" y="332" type="line"/>
      <point x="922" y="0" type="line"/>
      <point x="86" y="0" type="line"/>
      <point x="86" y="82" type="line"/>
      <point x="680" y="981" type="line"/>
      <point x="360" y="981" type="line" smooth="yes"/>
      <point x="320" y="981"/>
      <point x="268" y="960"/>
      <point x="235" y="918"/>
      <point x="214" y="856"/>
      <point x="203" y="815" type="qcurve" smooth="yes"/>
      <point x="201" y="807" type="line"/>
      <point x="115" y="807" type="line"/>
      <point x="135" y="1098" type="line"/>
      <point x="920" y="1098" type="line"/>
      <point x="920" y="1014" type="line"/>
      <point x="324" y="117" type="line"/>
    </contour>
  </outline>
</glyph>
<glyph name="asciitilde" format="2">
  <advance width="1145"/>
  <unicode hex="007E"/>
  <outline>
    <contour>
      <point x="774" y="551" type="qcurve" smooth="yes"/>
      <point x="744" y="551"/>
      <point x="680" y="576"/>
      <point x="617" y="614"/>
      <point x="560" y="659"/>
      <point x="537" y="680" type="qcurve" smooth="yes"/>
      <point x="514" y="701"/>
      <point x="470" y="740"/>
      <point x="427" y="770"/>
      <point x="383" y="788"/>
      <point x="360" y="788" type="qcurve" smooth="yes"/>
      <point x="300" y="788"/>
      <point x="242" y="672"/>
      <point x="231" y="551" type="qcurve"/>
      <point x="111" y="551" type="line"/>
      <point x="117" y="615"/>
      <point x="142" y="743"/>
      <point x="198" y="845"/>
      <point x="293" y="909"/>
      <point x="369" y="909" type="qcurve" smooth="yes"/>
      <point x="403" y="909"/>
      <point x="471" y="883"/>
      <point x="535" y="843"/>
      <point x="592" y="795"/>
      <point x="616" y="774" type="qcurve" smooth="yes"/>
      <point x="638" y="754"/>
      <point x="680" y="717"/>
      <point x="721" y="689"/>
      <point x="763" y="672"/>
      <point x="784" y="672" type="qcurve" smooth="yes"/>
      <point x="841" y="672"/>
      <point x="895" y="795"/>
      <point x="909" y="909" type="qcurve"/>
      <point x="1032" y="909" type="line"/>
      <point x="1025" y="845"/>
      <point x="997" y="717"/>
      <point x="940" y="615"/>
      <point x="847" y="551"/>
    </contour>
  </outline>
</glyph>
<glyph name="exclamdown" format="2">
  <advance width="682"/>
  <unicode hex="00A1"/>
  <outline>
    <contour>
      <point x="459" y="-367" type="line"/>
      <point x="221" y="-367" type="line"/>
      <point x="293" y="684" type="line"/>
      <point x="387" y="684" type="line"/>
    </contour>
    <contour>
      <point x="469" y="971" type="qcurve" smooth="yes"/>
      <point x="469" y="931"/>
      <point x="449" y="877"/>
      <point x="414" y="845"/>
      <point x="367" y="831"/>
      <point x="340" y="831" type="qcurve" smooth="yes"/>
      <point x="314" y="831"/>
      <point x="267" y="845"/>
      <point x="232" y="877"/>
      <point x="211" y="931"/>
      <point x="211" y="971" type="qcurve" smooth="yes"/>
      <point x="211" y="1010"/>
      <point x="232" y="1063"/>
      <point x="267" y="1096"/>
      <point x="314" y="1110"/>
      <point x="340" y="1110" type="qcurve" smooth="yes"/>
      <point x="367" y="1110"/>
      <point x="414" y="1096"/>
      <point x="449" y="1063"/>
      <point x="469" y="1010"/>
    </contour>
  </outline>
</glyph>
<glyph name="sterling" format="2">
  <advance width="1145"/>
  <unicode hex="00A3"/>
  <outline>
    <contour>
      <point x="500" y="690" type="line"/>
      <point x="515" y="639"/>
      <point x="541" y="533"/>
      <point x="541" y="471" type="qcurve" smooth="yes"/>
      <point x="541" y="383"/>
      <point x="442" y="248"/>
      <point x="360" y="193" type="qcurve"/>
      <point x="365" y="184" type="line"/>
      <point x="407" y="204"/>
      <point x="480" y="221"/>
      <point x="514" y="221" type="qcurve" smooth="yes"/>
      <point x="555" y="221"/>
      <point x="653" y="197"/>
      <point x="750" y="167"/>
      <point x="839" y="143"/>
      <point x="870" y="143" type="qcurve" smooth="yes"/>
      <point x="906" y="143"/>
      <point x="967" y="164"/>
      <point x="1021" y="198"/>
      <point x="1066" y="241"/>
      <point x="1085" y="264" type="qcurve"/>
      <point x="1085" y="131" type="line"/>
      <point x="1067" y="106"/>
      <point x="1017" y="52"/>
      <point x="951" y="8"/>
      <point x="868" y="-20"/>
      <point x="817" y="-20" type="qcurve" smooth="yes"/>
      <point x="766" y="-20"/>
      <point x="668" y="9"/>
      <point x="568" y="43"/>
      <point x="465" y="72"/>
      <point x="410" y="72" type="qcurve" smooth="yes"/>
      <point x="342" y="72"/>
      <point x="224" y="33"/>
      <point x="158" y="2" type="qcurve" smooth="yes"/>
      <point x="131" y="-10" type="line"/>
      <point x="131" y="98" type="line"/>
      <point x="168" y="121" type="line" smooth="yes"/>
      <point x="206" y="144"/>
      <point x="281" y="209"/>
      <point x="341" y="294"/>
      <point x="379" y="398"/>
      <point x="379" y="459" type="qcurve" smooth="yes"/>
      <point x="379" y="519"/>
      <point x="349" y="634"/>
      <point x="328" y="690" type="qcurve"/>
      <point x="100" y="690" type="line"/>
      <point x="100" y="786" type="line"/>
      <point x="289" y="786" type="line"/>
      <point x="275" y="818"/>
      <point x="247" y="896"/>
      <point x="225" y="981"/>
      <point x="211" y="1070"/>
      <point x="211" y="1112" type="qcurve" smooth="yes"/>
      <point x="211" y="1200"/>
      <point x="269" y="1338"/>
      <point x="377" y="1433"/>
      <point x="532" y="1483"/>
      <point x="629" y="1483" type="qcurve" smooth="yes"/>
      <point x="728" y="1483"/>
      <point x="866" y="1448"/>
      <point x="952" y="1386"/>
      <point x="991" y="1302"/>
      <point x="991" y="1253" type="qcurve" smooth="yes"/>
      <point x="991" y="1187"/>
      <point x="904" y="1120"/>
      <point x="829" y="1120" type="qcurve"/>
      <point x="829" y="1168"/>
      <point x="812" y="1261"/>
      <point x="767" y="1334"/>
      <point x="686" y="1380"/>
      <point x="621" y="1380" type="qcurve" smooth="yes"/>
      <point x="502" y="1380"/>
      <point x="391" y="1244"/>
      <point x="391" y="1116" type="qcurve" smooth="yes"/>
      <point x="391" y="1068"/>
      <point x="407" y="976"/>
      <point x="431" y="891"/>
      <point x="459" y="816"/>
      <point x="471" y="786" type="qcurve"/>
      <point x="819" y="786" type="line"/>
      <point x="819" y="690" type="line"/>
    </contour>
  </outline>
</glyph>
<glyph name="brokenbar" format="2">
  <advance width="1145"/>
  <unicode hex="00A6"/>
  <outline>
    <contour>
      <point x="633" y="737" type="line"/>
      <point x="510" y="737" type="line"/>
      <point x="510" y="1556" type="line"/>
      <point x="633" y="1556" type="line"/>
    </contour>
    <contour>
      <point x="633" y="-492" type="line"/>
      <point x="510" y="-492" type="line"/>
      <point x="510" y="328" type="line"/>
      <point x="633" y="328" type="line"/>
    </contour>
  </outline>
</glyph>
<glyph name="copyright" format="2">
  <advance width="1731"/>
  <unicode hex="00A9"/>
  <outline>
    <contour>
      <point x="901" y="365" type="qcurve" smooth="yes"/>
      <point x="948" y="365"/>
      <point x="1028" y="389"/>
      <point x="1092" y="429"/>
      <point x="1139" y="479"/>
      <point x="1153" y="504" type="qcurve"/>
      <point x="1165" y="495"/>
      <point x="1182" y="462"/>
      <point x="1182" y="440" type="qcurve" smooth="yes"/>
      <point x="1182" y="412"/>
      <point x="1143" y="354"/>
      <point x="1066" y="306"/>
      <point x="951" y="276"/>
      <point x="874" y="276" type="qcurve" smooth="yes"/>
      <point x="772" y="276"/>
      <point x="619" y="342"/>
      <point x="516" y="462"/>
      <point x="465" y="630"/>
      <point x="465" y="733" type="qcurve" smooth="yes"/>
      <point x="465" y="833"/>
      <point x="521" y="999"/>
      <point x="632" y="1119"/>
      <point x="795" y="1186"/>
      <point x="903" y="1186" type="qcurve" smooth="yes"/>
      <point x="974" y="1186"/>
      <point x="1079" y="1163"/>
      <point x="1149" y="1124"/>
      <point x="1184" y="1071"/>
      <point x="1184" y="1040" type="qcurve" smooth="yes"/>
      <point x="1184" y="1018"/>
      <point x="1162" y="982"/>
      <point x="1124" y="957"/>
      <point x="1073" y="944"/>
      <point x="1044" y="944" type="qcurve"/>
      <point x="1044" y="973"/>
      <point x="1029" y="1028"/>
      <point x="995" y="1073"/>
      <point x="940" y="1100"/>
      <point x="899" y="1100" type="qcurve" smooth="yes"/>
      <point x="827" y="1100"/>
      <point x="726" y="1052"/>
      <point x="662" y="958"/>
      <point x="633" y="822"/>
      <point x="633" y="733" type="qcurve" smooth="yes"/>
      <point x="633" y="556"/>
      <point x="771" y="365"/>
    </contour>
    <contour>
      <point x="113" y="731" type="qcurve" smooth="yes"/>
      <point x="113" y="835"/>
      <point x="167" y="1028"/>
      <point x="264" y="1195"/>
      <point x="401" y="1333"/>
      <point x="568" y="1431"/>
      <point x="760" y="1485"/>
      <point x="864" y="1485" type="qcurve" smooth="yes"/>
      <point x="968" y="1485"/>
      <point x="1161" y="1431"/>
      <point x="1328" y="1333"/>
      <point x="1466" y="1195"/>
      <point x="1564" y="1028"/>
      <point x="1618" y="835"/>
      <point x="1618" y="731" type="qcurve" smooth="yes"/>
      <point x="1618" y="627"/>
      <point x="1564" y="435"/>
      <point x="1466" y="268"/>
      <point x="1328" y="131"/>
      <point x="1161" y="33"/>
      <point x="968" y="-20"/>
      <point x="864" y="-20" type="qcurve" smooth="yes"/>
      <point x="760" y="-20"/>
      <point x="568" y="33"/>
      <point x="401" y="131"/>
      <point x="264" y="268"/>
      <point x="167" y="435"/>
      <point x="113" y="627"/>
    </contour>
    <contour>
      <point x="225" y="731" type="qcurve" smooth="yes"/>
      <point x="225" y="643"/>
      <point x="271" y="480"/>
      <point x="354" y="338"/>
      <point x="471" y="221"/>
      <point x="613" y="138"/>
      <point x="776" y="92"/>
      <point x="864" y="92" type="qcurve" smooth="yes"/>
      <point x="953" y="92"/>
      <point x="1117" y="138"/>
      <point x="1259" y="221"/>
      <point x="1376" y="338"/>
      <point x="1459" y="480"/>
      <point x="1505" y="643"/>
      <point x="1505" y="731" type="qcurve" smooth="yes"/>
      <point x="1505" y="819"/>
      <point x="1459" y="983"/>
      <point x="1376" y="1126"/>
      <point x="1259" y="1243"/>
      <point x="1117" y="1326"/>
      <point x="953" y="1372"/>
      <point x="864" y="1372" type="qcurve" smooth="yes"/>
      <point x="776" y="1372"/>
      <point x="613" y="1326"/>
      <point x="471" y="1243"/>
      <point x="354" y="1126"/>
      <point x="271" y="983"/>
      <point x="225" y="820"/>
    </contour>
  </outline>
</glyph>
<glyph name="ordfeminine" format="2">
  <advance width="782"/>
  <unicode hex="00AA"/>
  <outline>
    <contour>
      <point x="250" y="985" type="qcurve" smooth="yes"/>
      <point x="250" y="921"/>
      <point x="304" y="872"/>
      <point x="344" y="872" type="qcurve" smooth="yes"/>
      <point x="378" y="872"/>
      <point x="432" y="896"/>
      <point x="469" y="940"/>
      <point x="489" y="1000"/>
      <point x="489" y="1036" type="qcurve" smooth="yes"/>
      <point x="489" y="1133" type="line"/>
      <point x="426" y="1130" type="line" smooth="yes"/>
      <point x="376" y="1129"/>
      <point x="309" y="1108"/>
      <point x="268" y="1071"/>
      <point x="250" y="1019"/>
    </contour>
    <contour>
      <point x="387" y="1397" type="qcurve" smooth="yes"/>
      <point x="356" y="1397"/>
      <point x="318" y="1375"/>
      <point x="297" y="1337"/>
      <point x="289" y="1286"/>
      <point x="289" y="1257" type="qcurve"/>
      <point x="211" y="1257"/>
      <point x="127" y="1298"/>
      <point x="127" y="1346" type="qcurve" smooth="yes"/>
      <point x="127" y="1381"/>
      <point x="169" y="1429"/>
      <point x="241" y="1459"/>
      <point x="337" y="1473"/>
      <point x="391" y="1473" type="qcurve" smooth="yes"/>
      <point x="459" y="1473"/>
      <point x="559" y="1449"/>
      <point x="626" y="1396"/>
      <point x="659" y="1312"/>
      <point x="659" y="1251" type="qcurve" smooth="yes"/>
      <point x="659" y="940" type="line" smooth="yes"/>
      <point x="659" y="894"/>
      <point x="698" y="860"/>
      <point x="748" y="860" type="qcurve"/>
      <point x="748" y="791" type="line"/>
      <point x="549" y="791" type="line"/>
      <point x="512" y="885" type="line"/>
      <point x="502" y="885" type="line"/>
      <point x="484" y="865"/>
      <point x="441" y="826"/>
      <point x="388" y="796"/>
      <point x="324" y="778"/>
      <point x="285" y="778" type="qcurve" smooth="yes"/>
      <point x="186" y="778"/>
      <point x="72" y="884"/>
      <point x="72" y="987" type="qcurve" smooth="yes"/>
      <point x="72" y="1089"/>
      <point x="234" y="1186"/>
      <point x="401" y="1194" type="qcurve" smooth="yes"/>
      <point x="489" y="1198" type="line"/>
      <point x="489" y="1257" type="line" smooth="yes"/>
      <point x="489" y="1288"/>
      <point x="482" y="1339"/>
      <point x="461" y="1376"/>
      <point x="421" y="1397"/>
    </contour>
  </outline>
</glyph>
<glyph name="registered" format="2">
  <advance width="1731"/>
  <unicode hex="00AE"/>
  <outline>
    <contour>
      <point x="477" y="358" type="line"/>
      <point x="504" y="358" type="line" smooth="yes"/>
      <point x="524" y="358"/>
      <point x="560" y="363"/>
      <point x="587" y="378"/>
      <point x="603" y="406"/>
      <point x="604" y="430" type="qcurve" smooth="yes"/>
      <point x="604" y="1030" type="line" smooth="yes"/>
      <point x="603" y="1054"/>
      <point x="587" y="1083"/>
      <point x="560" y="1098"/>
      <point x="524" y="1102"/>
      <point x="504" y="1102" type="qcurve" smooth="yes"/>
      <point x="477" y="1102" type="line"/>
      <point x="477" y="1174" type="line"/>
      <point x="846" y="1174" type="line" smooth="yes"/>
      <point x="1198" y="1174"/>
      <point x="1198" y="930" type="qcurve" smooth="yes"/>
      <point x="1198" y="881"/>
      <point x="1166" y="807"/>
      <point x="1114" y="753"/>
      <point x="1047" y="716"/>
      <point x="1012" y="705" type="qcurve"/>
      <point x="1194" y="412" type="line" smooth="yes"/>
      <point x="1204" y="395"/>
      <point x="1223" y="374"/>
      <point x="1249" y="362"/>
      <point x="1284" y="358"/>
      <point x="1309" y="358" type="qcurve"/>
      <point x="1309" y="289" type="line"/>
      <point x="1092" y="289" type="line"/>
      <point x="866" y="670" type="line"/>
      <point x="758" y="670" type="line"/>
      <point x="758" y="430" type="line"/>
      <point x="760" y="406"/>
      <point x="776" y="378"/>
      <point x="803" y="363"/>
      <point x="838" y="358"/>
      <point x="858" y="358" type="qcurve" smooth="yes"/>
      <point x="887" y="358" type="line"/>
      <point x="887" y="289" type="line"/>
      <point x="477" y="289" type="line"/>
    </contour>
    <contour>
      <point x="758" y="748" type="line"/>
      <point x="844" y="748" type="line" smooth="yes"/>
      <point x="899" y="748"/>
      <point x="973" y="770"/>
      <point x="1017" y="814"/>
      <point x="1036" y="882"/>
      <point x="1036" y="928" type="qcurve" smooth="yes"/>
      <point x="1036" y="973"/>
      <point x="1014" y="1037"/>
      <point x="967" y="1076"/>
      <point x="892" y="1094"/>
      <point x="838" y="1094" type="qcurve" smooth="yes"/>
      <point x="758" y="1094" type="line"/>
    </contour>
    <contour>
      <point x="113" y="731" type="qcurve" smooth="yes"/>
      <point x="113" y="835"/>
      <point x="167" y="1028"/>
      <point x="264" y="1195"/>
      <point x="401" y="1333"/>
      <point x="568" y="1431"/>
      <point x="760" y="1485"/>
      <point x="864" y="1485" type="qcurve" smooth="yes"/>
      <point x="968" y="1485"/>
      <point x="1161" y="1431"/>
      <point x="1328" y="1333"/>
      <point x="1466" y="1195"/>
      <point x="1564" y="1028"/>
      <point x="1618" y="835"/>
      <point x="1618" y="731" type="qcurve" smooth="yes"/>
      <point x="1618" y="627"/>
      <point x="1564" y="435"/>
      <point x="1466" y="268"/>
      <point x="1328" y="131"/>
      <point x="1161" y="33"/>
      <point x="968" y="-20"/>
      <point x="864" y="-20" type="qcurve" smooth="yes"/>
      <point x="760" y="-20"/>
      <point x="568" y="33"/>
      <point x="401" y="131"/>
      <point x="264" y="268"/>
      <point x="167" y="435"/>
      <point x="113" y="627"/>
    </contour>
    <contour>
      <point x="225" y="731" type="qcurve" smooth="yes"/>
      <point x="225" y="643"/>
      <point x="271" y="480"/>
      <point x="354" y="338"/>
      <point x="471" y="221"/>
      <point x="613" y="138"/>
      <point x="776" y="92"/>
      <point x="864" y="92" type="qcurve" smooth="yes"/>
      <point x="953" y="92"/>
      <point x="1117" y="138"/>
      <point x="1259" y="221"/>
      <point x="1376" y="338"/>
      <point x="1459" y="480"/>
      <point x="1505" y="643"/>
      <point x="1505" y="731" type="qcurve" smooth="yes"/>
      <point x="1505" y="819"/>
      <point x="1459" y="983"/>
      <point x="1376" y="1126"/>
      <point x="1259" y="1243"/>
      <point x="1117" y="1326"/>
      <point x="953" y="1372"/>
      <point x="864" y="1372" type="qcurve" smooth="yes"/>
      <point x="776" y="1372"/>
      <point x="613" y="1326"/>
      <point x="471" y="1243"/>
      <point x="354" y="1126"/>
      <point x="271" y="983"/>
      <point x="225" y="820"/>
    </contour>
  </outline>
</glyph>
<glyph name="uni00B2" format="2">
  <advance width="819"/>
  <unicode hex="00B2"/>
  <outline>
    <contour>
      <point x="690" y="1262" type="qcurve" smooth="yes"/>
      <point x="690" y="1214"/>
      <point x="668" y="1130"/>
      <point x="616" y="1046"/>
      <point x="531" y="956"/>
      <point x="467" y="901" type="qcurve" smooth="yes"/>
      <point x="250" y="715" type="line"/>
      <point x="547" y="715" type="line" smooth="yes"/>
      <point x="594" y="715"/>
      <point x="631" y="765"/>
      <point x="637" y="799" type="qcurve" smooth="yes"/>
      <point x="645" y="842" type="line"/>
      <point x="715" y="842" type="line"/>
      <point x="709" y="586" type="line"/>
      <point x="86" y="586" type="line"/>
      <point x="86" y="678" type="line"/>
      <point x="346" y="911" type="line" smooth="yes"/>
      <point x="391" y="952"/>
      <point x="453" y="1036"/>
      <point x="490" y="1121"/>
      <point x="506" y="1205"/>
      <point x="506" y="1245" type="qcurve" smooth="yes"/>
      <point x="506" y="1279"/>
      <point x="493" y="1336"/>
      <point x="464" y="1378"/>
      <point x="418" y="1401"/>
      <point x="385" y="1401" type="qcurve" smooth="yes"/>
      <point x="348" y="1401"/>
      <point x="296" y="1372"/>
      <point x="264" y="1323"/>
      <point x="250" y="1258"/>
      <point x="250" y="1223" type="qcurve"/>
      <point x="181" y="1223"/>
      <point x="102" y="1257"/>
      <point x="102" y="1311" type="qcurve" smooth="yes"/>
      <point x="102" y="1348"/>
      <point x="138" y="1411"/>
      <point x="209" y="1457"/>
      <point x="315" y="1483"/>
      <point x="385" y="1483" type="qcurve" smooth="yes"/>
      <point x="528" y="1483"/>
      <point x="690" y="1370"/>
    </contour>
  </outline>
</glyph>
<glyph name="paragraph" format="2">
  <advance width="1264"/>
  <unicode hex="00B6"/>
  <outline>
    <contour>
      <point x="860" y="1452" type="line"/>
      <point x="666" y="1452" type="line"/>
      <point x="666" y="-227" type="line"/>
      <point x="346" y="-227" type="line"/>
      <point x="346" y="-141" type="line"/>
      <point x="373" y="-141" type="line" smooth="yes"/>
      <point x="408" y="-141"/>
      <point x="469" y="-131"/>
      <point x="514" y="-100"/>
      <point x="541" y="-42"/>
      <point x="541" y="6" type="qcurve" smooth="yes"/>
      <point x="541" y="791" type="line"/>
      <point x="395" y="791" type="line" smooth="yes"/>
      <point x="305" y="791"/>
      <point x="185" y="856"/>
      <point x="113" y="967"/>
      <point x="82" y="1112"/>
      <point x="82" y="1192" type="qcurve" smooth="yes"/>
      <point x="82" y="1274"/>
      <point x="116" y="1408"/>
      <point x="192" y="1504"/>
      <point x="312" y="1556"/>
      <point x="399" y="1556" type="qcurve" smooth="yes"/>
      <point x="1180" y="1556" type="line"/>
      <point x="1180" y="1470" type="line"/>
      <point x="1153" y="1470" type="line" smooth="yes"/>
      <point x="1119" y="1470"/>
      <point x="1057" y="1460"/>
      <point x="1012" y="1429"/>
      <point x="985" y="1371"/>
      <point x="985" y="1323" type="qcurve" smooth="yes"/>
      <point x="985" y="6" type="line" smooth="yes"/>
      <point x="985" y="-42"/>
      <point x="1012" y="-100"/>
      <point x="1057" y="-131"/>
      <point x="1119" y="-141"/>
      <point x="1153" y="-141" type="qcurve" smooth="yes"/>
      <point x="1180" y="-141" type="line"/>
      <point x="1180" y="-227" type="line"/>
      <point x="860" y="-227" type="line"/>
    </contour>
  </outline>
</glyph>
<glyph name="periodcentered" format="2">
  <advance width="512"/>
  <unicode hex="00B7"/>
  <outline>
    <contour>
      <point x="127" y="729" type="qcurve" smooth="yes"/>
      <point x="127" y="769"/>
      <point x="147" y="823"/>
      <point x="182" y="855"/>
      <point x="229" y="868"/>
      <point x="256" y="868" type="qcurve" smooth="yes"/>
      <point x="282" y="868"/>
      <point x="329" y="855"/>
      <point x="364" y="823"/>
      <point x="385" y="769"/>
      <point x="385" y="729" type="qcurve" smooth="yes"/>
      <point x="385" y="690"/>
      <point x="364" y="637"/>
      <point x="329" y="604"/>
      <point x="282" y="590"/>
      <point x="256" y="590" type="qcurve" smooth="yes"/>
      <point x="229" y="590"/>
      <point x="182" y="604"/>
      <point x="147" y="637"/>
      <point x="127" y="690"/>
    </contour>
  </outline>
</glyph>
<glyph name="uni00B9" format="2">
  <advance width="819"/>
  <unicode hex="00B9"/>
  <outline>
    <contour>
      <point x="315" y="1325" type="line"/>
      <point x="291" y="1301"/>
      <point x="253" y="1266"/>
      <point x="218" y="1245"/>
      <point x="182" y="1235"/>
      <point x="160" y="1235" type="qcurve" smooth="yes"/>
      <point x="126" y="1235"/>
      <point x="86" y="1282"/>
      <point x="86" y="1319" type="qcurve"/>
      <point x="110" y="1323"/>
      <point x="155" y="1329"/>
      <point x="223" y="1356"/>
      <point x="325" y="1416"/>
      <point x="406" y="1473" type="qcurve"/>
      <point x="508" y="1473" type="line"/>
      <point x="508" y="735" type="line" smooth="yes"/>
      <point x="508" y="709"/>
      <point x="522" y="678"/>
      <point x="545" y="662"/>
      <point x="576" y="657"/>
      <point x="594" y="657" type="qcurve" smooth="yes"/>
      <point x="688" y="657" type="line"/>
      <point x="688" y="588" type="line"/>
      <point x="127" y="588" type="line"/>
      <point x="127" y="657" type="line"/>
      <point x="240" y="657" type="line" smooth="yes"/>
      <point x="258" y="657"/>
      <point x="288" y="662"/>
      <point x="311" y="678"/>
      <point x="324" y="709"/>
      <point x="324" y="735" type="qcurve" smooth="yes"/>
      <point x="324" y="1325" type="line"/>
    </contour>
  </outline>
</glyph>
<glyph name="ordmasculine" format="2">
  <advance width="813"/>
  <unicode hex="00BA"/>
  <outline>
    <contour>
      <point x="250" y="1126" type="qcurve" smooth="yes"/>
      <point x="250" y="993"/>
      <point x="320" y="860"/>
      <point x="408" y="860" type="qcurve" smooth="yes"/>
      <point x="494" y="860"/>
      <point x="565" y="993"/>
      <point x="565" y="1126" type="qcurve" smooth="yes"/>
      <point x="565" y="1257"/>
      <point x="492" y="1386"/>
      <point x="406" y="1386" type="qcurve" smooth="yes"/>
      <point x="320" y="1386"/>
      <point x="250" y="1257"/>
    </contour>
    <contour>
      <point x="741" y="1126" type="qcurve" smooth="yes"/>
      <point x="741" y="950"/>
      <point x="571" y="778"/>
      <point x="406" y="778" type="qcurve" smooth="yes"/>
      <point x="248" y="778"/>
      <point x="72" y="951"/>
      <point x="72" y="1126" type="qcurve" smooth="yes"/>
      <point x="72" y="1302"/>
      <point x="242" y="1473"/>
      <point x="410" y="1473" type="qcurve" smooth="yes"/>
      <point x="487" y="1473"/>
      <point x="609" y="1430"/>
      <point x="695" y="1344"/>
      <point x="741" y="1214"/>
    </contour>
  </outline>
</glyph>
<glyph name="questiondown" format="2">
  <advance width="1024"/>
  <unicode hex="00BF"/>
  <outline>
    <contour>
      <point x="502" y="682" type="line"/>
      <point x="627" y="682" type="line"/>
      <point x="627" y="371" type="line"/>
      <point x="538" y="335"/>
      <point x="417" y="239"/>
      <point x="344" y="129"/>
      <point x="313" y="9"/>
      <point x="313" y="-53" type="qcurve" smooth="yes"/>
      <point x="313" y="-106"/>
      <point x="339" y="-193"/>
      <point x="393" y="-255"/>
      <point x="478" y="-289"/>
      <point x="537" y="-289" type="qcurve" smooth="yes"/>
      <point x="601" y="-289"/>
      <point x="688" y="-247"/>
      <point x="742" y="-175"/>
      <point x="766" y="-80"/>
      <point x="766" y="-27" type="qcurve"/>
      <point x="803" y="-27"/>
      <point x="865" y="-44"/>
      <point x="910" y="-77"/>
      <point x="936" y="-127"/>
      <point x="936" y="-160" type="qcurve" smooth="yes"/>
      <point x="936" y="-209"/>
      <point x="891" y="-293"/>
      <point x="796" y="-354"/>
      <point x="652" y="-389"/>
      <point x="553" y="-389" type="qcurve" smooth="yes"/>
      <point x="456" y="-389"/>
      <point x="292" y="-339"/>
      <point x="172" y="-244"/>
      <point x="104" y="-106"/>
      <point x="104" y="-18" type="qcurve" smooth="yes"/>
      <point x="104" y="66"/>
      <point x="157" y="205"/>
      <point x="259" y="319"/>
      <point x="407" y="412"/>
      <point x="502" y="451" type="qcurve"/>
    </contour>
    <contour>
      <point x="696" y="969" type="qcurve" smooth="yes"/>
      <point x="696" y="929"/>
      <point x="676" y="875"/>
      <point x="641" y="843"/>
      <point x="594" y="829"/>
      <point x="567" y="829" type="qcurve" smooth="yes"/>
      <point x="541" y="829"/>
      <point x="494" y="843"/>
      <point x="459" y="875"/>
      <point x="438" y="929"/>
      <point x="438" y="969" type="qcurve" smooth="yes"/>
      <point x="438" y="1008"/>
      <point x="459" y="1061"/>
      <point x="494" y="1094"/>
      <point x="541" y="1108"/>
      <point x="567" y="1108" type="qcurve" smooth="yes"/>
      <point x="594" y="1108"/>
      <point x="641" y="1094"/>
      <point x="676" y="1061"/>
      <point x="696" y="1008"/>
    </contour>
  </outline>
</glyph>
<glyph name="multiply" format="2">
  <advance width="1145"/>
  <unicode hex="00D7"/>
  <outline>
    <contour>
      <point x="571" y="647" type="line"/>
      <point x="231" y="307" type="line"/>
      <point x="145" y="395" type="line"/>
      <point x="485" y="735" type="line"/>
      <point x="145" y="1073" type="line"/>
      <point x="231" y="1159" type="line"/>
      <point x="571" y="819" type="line"/>
      <point x="911" y="1161" type="line"/>
      <point x="997" y="1073" type="line"/>
      <point x="657" y="733" type="line"/>
      <point x="997" y="393" type="line"/>
      <point x="911" y="307" type="line"/>
    </contour>
  </outline>
</glyph>
<glyph name="Oslash" format="2">
  <advance width="1520"/>
  <unicode hex="00D8"/>
  <outline>
    <contour>
      <point x="1163" y="1354" type="line"/>
      <point x="1281" y="1257"/>
      <point x="1403" y="941"/>
      <point x="1403" y="733" type="qcurve" smooth="yes"/>
      <point x="1403" y="564"/>
      <point x="1319" y="286"/>
      <point x="1155" y="88"/>
      <point x="915" y="-20"/>
      <point x="760" y="-20" type="qcurve" smooth="yes"/>
      <point x="667" y="-20"/>
      <point x="508" y="15"/>
      <point x="442" y="49" type="qcurve"/>
      <point x="371" y="-82" type="line"/>
      <point x="250" y="-82" type="line"/>
      <point x="354" y="106" type="line"/>
      <point x="233" y="204"/>
      <point x="115" y="525"/>
      <point x="115" y="735" type="qcurve" smooth="yes"/>
      <point x="115" y="905"/>
      <point x="195" y="1182"/>
      <point x="355" y="1378"/>
      <point x="599" y="1485"/>
      <point x="762" y="1485" type="qcurve" smooth="yes"/>
      <point x="853" y="1485"/>
      <point x="1009" y="1446"/>
      <point x="1075" y="1411" type="qcurve"/>
      <point x="1151" y="1546" type="line"/>
      <point x="1270" y="1546" type="line"/>
    </contour>
    <contour>
      <point x="342" y="733" type="qcurve" smooth="yes"/>
      <point x="342" y="578"/>
      <point x="387" y="342"/>
      <point x="438" y="258" type="qcurve"/>
      <point x="1010" y="1292" type="line"/>
      <point x="916" y="1374"/>
      <point x="762" y="1374" type="qcurve" smooth="yes"/>
      <point x="648" y="1374"/>
      <point x="488" y="1288"/>
      <point x="387" y="1124"/>
      <point x="342" y="885"/>
    </contour>
    <contour>
      <point x="1176" y="733" type="qcurve" smooth="yes"/>
      <point x="1176" y="886"/>
      <point x="1131" y="1123"/>
      <point x="1081" y="1206" type="qcurve"/>
      <point x="510" y="170" type="line"/>
      <point x="605" y="90"/>
      <point x="760" y="90" type="qcurve" smooth="yes"/>
      <point x="874" y="90"/>
      <point x="1033" y="177"/>
      <point x="1132" y="342"/>
      <point x="1176" y="581"/>
    </contour>
  </outline>
</glyph>
<glyph name="Thorn" format="2">
  <advance width="1237"/>
  <unicode hex="00DE"/>
  <outline>
    <contour>
      <point x="78" y="0" type="line"/>
      <point x="78" y="86" type="line"/>
      <point x="104" y="86" type="line" smooth="yes"/>
      <point x="139" y="86"/>
      <point x="200" y="96"/>
      <point x="246" y="127"/>
      <point x="272" y="185"/>
      <point x="272" y="233" type="qcurve" smooth="yes"/>
      <point x="272" y="1229" type="line" smooth="yes"/>
      <point x="272" y="1277"/>
      <point x="246" y="1335"/>
      <point x="200" y="1366"/>
      <point x="139" y="1376"/>
      <point x="104" y="1376" type="qcurve" smooth="yes"/>
      <point x="78" y="1376" type="line"/>
      <point x="78" y="1462" type="line"/>
      <point x="694" y="1462" type="line"/>
      <point x="694" y="1376" type="line"/>
      <point x="647" y="1376" type="line" smooth="yes"/>
      <point x="613" y="1376"/>
      <point x="551" y="1366"/>
      <point x="506" y="1335"/>
      <point x="479" y="1277"/>
      <point x="479" y="1229" type="qcurve" smooth="yes"/>
      <point x="479" y="1167" type="line"/>
      <point x="653" y="1167" type="line" smooth="yes"/>
      <point x="911" y="1167"/>
      <point x="1157" y="960"/>
      <point x="1157" y="760" type="qcurve" smooth="yes"/>
      <point x="1157" y="669"/>
      <point x="1100" y="507"/>
      <point x="970" y="385"/>
      <point x="760" y="315"/>
      <point x="608" y="315" type="qcurve" smooth="yes"/>
      <point x="479" y="315" type="line"/>
      <point x="479" y="233" type="line" smooth="yes"/>
      <point x="479" y="185"/>
      <point x="506" y="127"/>
      <point x="551" y="96"/>
      <point x="613" y="86"/>
      <point x="647" y="86" type="qcurve" smooth="yes"/>
      <point x="694" y="86" type="line"/>
      <point x="694" y="0" type="line"/>
    </contour>
    <contour>
      <point x="479" y="412" type="line"/>
      <point x="588" y="412" type="line" smooth="yes"/>
      <point x="681" y="412"/>
      <point x="813" y="445"/>
      <point x="897" y="524"/>
      <point x="936" y="655"/>
      <point x="936" y="752" type="qcurve" smooth="yes"/>
      <point x="936" y="838"/>
      <point x="902" y="958"/>
      <point x="826" y="1034"/>
      <point x="705" y="1069"/>
      <point x="618" y="1069" type="qcurve" smooth="yes"/>
      <point x="479" y="1069" type="line"/>
    </contour>
  </outline>
</glyph>
<glyph name="germandbls" format="2">
  <advance width="1325"/>
  <unicode hex="00DF"/>
  <outline>
    <contour>
      <point x="887" y="78" type="qcurve" smooth="yes"/>
      <point x="962" y="78"/>
      <point x="1059" y="170"/>
      <point x="1059" y="264" type="qcurve" smooth="yes"/>
      <point x="1059" y="298"/>
      <point x="1044" y="356"/>
      <point x="1000" y="410"/>
      <point x="922" y="464"/>
      <point x="860" y="494" type="qcurve" smooth="yes"/>
      <point x="796" y="526"/>
      <point x="698" y="588"/>
      <point x="633" y="664"/>
      <point x="600" y="760"/>
      <point x="600" y="825" type="qcurve" smooth="yes"/>
      <point x="600" y="887"/>
      <point x="641" y="989"/>
      <point x="724" y="1062"/>
      <point x="851" y="1102"/>
      <point x="938" y="1102" type="qcurve"/>
      <point x="938" y="1199"/>
      <point x="910" y="1338"/>
      <point x="848" y="1428"/>
      <point x="751" y="1470"/>
      <point x="682" y="1470" type="qcurve" smooth="yes"/>
      <point x="620" y="1470"/>
      <point x="527" y="1430"/>
      <point x="465" y="1357"/>
      <point x="434" y="1253"/>
      <point x="434" y="1188" type="qcurve" smooth="yes"/>
      <point x="434" y="0" type="line"/>
      <point x="47" y="0" type="line"/>
      <point x="47" y="86" type="line"/>
      <point x="74" y="86" type="line" smooth="yes"/>
      <point x="109" y="86"/>
      <point x="170" y="96"/>
      <point x="215" y="127"/>
      <point x="242" y="185"/>
      <point x="242" y="233" type="qcurve" smooth="yes"/>
      <point x="242" y="1001" type="line"/>
      <point x="76" y="1001" type="line"/>
      <point x="76" y="1098" type="line"/>
      <point x="242" y="1098" type="line"/>
      <point x="242" y="1159" type="line" smooth="yes"/>
      <point x="242" y="1272"/>
      <point x="310" y="1426"/>
      <point x="429" y="1521"/>
      <point x="590" y="1563"/>
      <point x="684" y="1563" type="qcurve" smooth="yes"/>
      <point x="812" y="1563"/>
      <point x="982" y="1490"/>
      <point x="1085" y="1349"/>
      <point x="1129" y="1141"/>
      <point x="1130" y="1006" type="qcurve"/>
      <point x="981" y="1006" type="line" smooth="yes"/>
      <point x="872" y="1006"/>
      <point x="770" y="923"/>
      <point x="770" y="840" type="qcurve" smooth="yes"/>
      <point x="770" y="809"/>
      <point x="790" y="758"/>
      <point x="840" y="711"/>
      <point x="922" y="664"/>
      <point x="983" y="635" type="qcurve" smooth="yes"/>
      <point x="1060" y="600"/>
      <point x="1158" y="521"/>
      <point x="1214" y="435"/>
      <point x="1235" y="345"/>
      <point x="1235" y="299" type="qcurve" smooth="yes"/>
      <point x="1235" y="221"/>
      <point x="1187" y="101"/>
      <point x="1098" y="21"/>
      <point x="970" y="-20"/>
      <point x="889" y="-20" type="qcurve" smooth="yes"/>
      <point x="817" y="-20"/>
      <point x="699" y="7"/>
      <point x="615" y="62"/>
      <point x="569" y="143"/>
      <point x="569" y="197" type="qcurve" smooth="yes"/>
      <point x="569" y="238"/>
      <point x="593" y="293"/>
      <point x="629" y="325"/>
      <point x="670" y="338"/>
      <point x="686" y="338" type="qcurve"/>
      <point x="686" y="284"/>
      <point x="707" y="190"/>
      <point x="754" y="119"/>
      <point x="831" y="78"/>
    </contour>
  </outline>
</glyph>
<glyph name="oslash" format="2">
  <advance width="1182"/>
  <unicode hex="00F8"/>
  <outline>
    <contour>
      <point x="930" y="991" type="line"/>
      <point x="998" y="922"/>
      <point x="1069" y="703"/>
      <point x="1069" y="551" type="qcurve" smooth="yes"/>
      <point x="1069" y="262"/>
      <point x="824" y="-20"/>
      <point x="588" y="-20" type="qcurve" smooth="yes"/>
      <point x="517" y="-20"/>
      <point x="393" y="8"/>
      <point x="342" y="37" type="qcurve"/>
      <point x="268" y="-82" type="line"/>
      <point x="147" y="-82" type="line"/>
      <point x="258" y="98" type="line"/>
      <point x="187" y="170"/>
      <point x="113" y="393"/>
      <point x="113" y="551" type="qcurve" smooth="yes"/>
      <point x="113" y="838"/>
      <point x="356" y="1118"/>
      <point x="594" y="1118" type="qcurve" smooth="yes"/>
      <point x="668" y="1118"/>
      <point x="795" y="1086"/>
      <point x="848" y="1055" type="qcurve"/>
      <point x="926" y="1180" type="line"/>
      <point x="1044" y="1180" type="line"/>
    </contour>
    <contour>
      <point x="311" y="551" type="qcurve" smooth="yes"/>
      <point x="311" y="457"/>
      <point x="331" y="307"/>
      <point x="352" y="250" type="qcurve"/>
      <point x="776" y="936" type="line"/>
      <point x="708" y="1010"/>
      <point x="590" y="1010" type="qcurve" smooth="yes"/>
      <point x="513" y="1010"/>
      <point x="407" y="952"/>
      <point x="341" y="837"/>
      <point x="311" y="665"/>
    </contour>
    <contour>
      <point x="870" y="551" type="qcurve" smooth="yes"/>
      <point x="870" y="728"/>
      <point x="834" y="836" type="qcurve"/>
      <point x="412" y="152" type="line"/>
      <point x="444" y="120"/>
      <point x="533" y="86"/>
      <point x="592" y="86" type="qcurve" smooth="yes"/>
      <point x="669" y="86"/>
      <point x="775" y="146"/>
      <point x="841" y="263"/>
      <point x="870" y="437"/>
    </contour>
  </outline>
</glyph>
<glyph name="Hbar" format="2">
  <advance width="1624"/>
  <unicode hex="0126"/>
  <outline>
    <contour>
      <point x="1352" y="1022" type="line"/>
      <point x="1352" y="223" type="line" smooth="yes"/>
      <point x="1352" y="178"/>
      <point x="1379" y="123"/>
      <point x="1425" y="95"/>
      <point x="1486" y="86"/>
      <point x="1520" y="86" type="qcurve" smooth="yes"/>
      <point x="1546" y="86" type="line"/>
      <point x="1546" y="0" type="line"/>
      <point x="950" y="0" type="line"/>
      <point x="950" y="86" type="line"/>
      <point x="977" y="86" type="line" smooth="yes"/>
      <point x="1012" y="86"/>
      <point x="1073" y="96"/>
      <point x="1118" y="127"/>
      <point x="1145" y="185"/>
      <point x="1145" y="233" type="qcurve" smooth="yes"/>
      <point x="1145" y="713" type="line"/>
      <point x="479" y="713" type="line"/>
      <point x="479" y="233" type="line" smooth="yes"/>
      <point x="479" y="185"/>
      <point x="506" y="127"/>
      <point x="551" y="96"/>
      <point x="613" y="86"/>
      <point x="647" y="86" type="qcurve" smooth="yes"/>
      <point x="674" y="86" type="line"/>
      <point x="674" y="0" type="line"/>
      <point x="78" y="0" type="line"/>
      <point x="78" y="86" type="line"/>
      <point x="104" y="86" type="line" smooth="yes"/>
      <point x="139" y="86"/>
      <point x="200" y="96"/>
      <point x="246" y="127"/>
      <point x="272" y="185"/>
      <point x="272" y="233" type="qcurve" smooth="yes"/>
      <point x="272" y="1022" type="line"/>
      <point x="78" y="1022" type="line"/>
      <point x="78" y="1122" type="line"/>
      <point x="272" y="1122" type="line"/>
      <point x="272" y="1237" type="line" smooth="yes"/>
      <point x="272" y="1282"/>
      <point x="245" y="1337"/>
      <point x="199" y="1367"/>
      <point x="138" y="1376"/>
      <point x="104" y="1376" type="qcurve" smooth="yes"/>
      <point x="78" y="1376" type="line"/>
      <point x="78" y="1462" type="line"/>
      <point x="674" y="1462" type="line"/>
      <point x="674" y="1376" type="line"/>
      <point x="647" y="1376" type="line" smooth="yes"/>
      <point x="613" y="1376"/>
      <point x="551" y="1366"/>
      <point x="506" y="1335"/>
      <point x="479" y="1277"/>
      <point x="479" y="1229" type="qcurve" smooth="yes"/>
      <point x="479" y="1122" type="line"/>
      <point x="1145" y="1122" type="line"/>
      <point x="1145" y="1229" type="line" smooth="yes"/>
      <point x="1145" y="1277"/>
      <point x="1118" y="1335"/>
      <point x="1073" y="1366"/>
      <point x="1012" y="1376"/>
      <point x="977" y="1376" type="qcurve" smooth="yes"/>
      <point x="950" y="1376" type="line"/>
      <point x="950" y="1462" type="line"/>
      <point x="1546" y="1462" type="line"/>
      <point x="1546" y="1376" type="line"/>
      <point x="1520" y="1376" type="line" smooth="yes"/>
      <point x="1485" y="1376"/>
      <point x="1424" y="1366"/>
      <point x="1378" y="1335"/>
      <point x="1352" y="1277"/>
      <point x="1352" y="1229" type="qcurve" smooth="yes"/>
      <point x="1352" y="1122" type="line"/>
      <point x="1546" y="1122" type="line"/>
      <point x="1546" y="1022" type="line"/>
    </contour>
    <contour>
      <point x="1145" y="815" type="line"/>
      <point x="1145" y="1022" type="line"/>
      <point x="479" y="1022" type="line"/>
      <point x="479" y="815" type="line"/>
    </contour>
  </outline>
</glyph>
<glyph name="hbar" format="2">
  <advance width="1300"/>
  <unicode hex="0127"/>
  <outline>
    <contour>
      <point x="588" y="86" type="line"/>
      <point x="588" y="0" type="line"/>
      <point x="37" y="0" type="line"/>
      <point x="37" y="86" type="line"/>
      <point x="53" y="86" type="line" smooth="yes"/>
      <point x="88" y="86"/>
      <point x="149" y="96"/>
      <point x="194" y="127"/>
      <point x="221" y="185"/>
      <point x="221" y="233" type="qcurve" smooth="yes"/>
      <point x="221" y="1214" type="line"/>
      <point x="35" y="1214" type="line"/>
      <point x="35" y="1311" type="line"/>
      <point x="221" y="1311" type="line"/>
      <point x="221" y="1331" type="line" smooth="yes"/>
      <point x="221" y="1376"/>
      <point x="194" y="1431"/>
      <point x="148" y="1461"/>
      <point x="87" y="1470"/>
      <point x="53" y="1470" type="qcurve" smooth="yes"/>
      <point x="37" y="1470" type="line"/>
      <point x="37" y="1556" type="line"/>
      <point x="414" y="1556" type="line"/>
      <point x="414" y="1311" type="line"/>
      <point x="764" y="1311" type="line"/>
      <point x="764" y="1214" type="line"/>
      <point x="414" y="1214" type="line"/>
      <point x="414" y="1065" type="line" smooth="yes"/>
      <point x="414" y="1037"/>
      <point x="412" y="976"/>
      <point x="410" y="950" type="qcurve" smooth="yes"/>
      <point x="408" y="920"/>
      <point x="406" y="891" type="qcurve"/>
      <point x="416" y="891" type="line"/>
      <point x="508" y="1077"/>
      <point x="717" y="1077" type="qcurve" smooth="yes"/>
      <point x="804" y="1077"/>
      <point x="939" y="1030"/>
      <point x="1031" y="933"/>
      <point x="1079" y="781"/>
      <point x="1079" y="676" type="qcurve" smooth="yes"/>
      <point x="1079" y="233" type="line" smooth="yes"/>
      <point x="1079" y="185"/>
      <point x="1103" y="127"/>
      <point x="1145" y="96"/>
      <point x="1203" y="86"/>
      <point x="1237" y="86" type="qcurve" smooth="yes"/>
      <point x="1243" y="86" type="line"/>
      <point x="1243" y="0" type="line"/>
      <point x="887" y="0" type="line"/>
      <point x="887" y="666" type="line" smooth="yes"/>
      <point x="887" y="733"/>
      <point x="863" y="837"/>
      <point x="810" y="909"/>
      <point x="724" y="946"/>
      <point x="662" y="946" type="qcurve" smooth="yes"/>
      <point x="598" y="946"/>
      <point x="505" y="899"/>
      <point x="444" y="812"/>
      <point x="414" y="689"/>
      <point x="414" y="614" type="qcurve" smooth="yes"/>
      <point x="414" y="223" type="line" smooth="yes"/>
      <point x="414" y="178"/>
      <point x="441" y="123"/>
      <point x="487" y="95"/>
      <point x="548" y="86"/>
      <point x="582" y="86" type="qcurve" smooth="yes"/>
    </contour>
  </outline>
</glyph>
<glyph name="dotlessi" format="2">
  <advance width="655"/>
  <unicode hex="0131"/>
  <outline>
    <contour>
      <point x="74" y="86" type="line" smooth="yes"/>
      <point x="108" y="86"/>
      <point x="169" y="95"/>
      <point x="215" y="123"/>
      <point x="242" y="178"/>
      <point x="242" y="223" type="qcurve" smooth="yes"/>
      <point x="242" y="872" type="line" smooth="yes"/>
      <point x="242" y="917"/>
      <point x="215" y="972"/>
      <point x="169" y="1002"/>
      <point x="108" y="1012"/>
      <point x="74" y="1012" type="qcurve" smooth="yes"/>
      <point x="68" y="1012" type="line"/>
      <point x="68" y="1098" type="line"/>
      <point x="434" y="1098" type="line"/>
      <point x="434" y="233" type="line" smooth="yes"/>
      <point x="434" y="185"/>
      <point x="461" y="127"/>
      <point x="506" y="96"/>
      <point x="568" y="86"/>
      <point x="602" y="86" type="qcurve" smooth="yes"/>
      <point x="629" y="86" type="line"/>
      <point x="629" y="0" type="line"/>
      <point x="47" y="0" type="line"/>
      <point x="47" y="86" type="line"/>
    </contour>
  </outline>
</glyph>
<glyph name="Lslash" format="2">
  <advance width="1276"/>
  <unicode hex="0141"/>
  <outline>
    <contour>
      <point x="78" y="584" type="line"/>
      <point x="272" y="696" type="line"/>
      <point x="272" y="1229" type="line" smooth="yes"/>
      <point x="272" y="1277"/>
      <point x="246" y="1335"/>
      <point x="200" y="1366"/>
      <point x="139" y="1376"/>
      <point x="104" y="1376" type="qcurve" smooth="yes"/>
      <point x="78" y="1376" type="line"/>
      <point x="78" y="1462" type="line"/>
      <point x="674" y="1462" type="line"/>
      <point x="674" y="1376" type="line"/>
      <point x="647" y="1376" type="line" smooth="yes"/>
      <point x="613" y="1376"/>
      <point x="552" y="1367"/>
      <point x="506" y="1337"/>
      <point x="479" y="1282"/>
      <point x="479" y="1237" type="qcurve" smooth="yes"/>
      <point x="479" y="815" type="line"/>
      <point x="799" y="1001" type="line"/>
      <point x="799" y="883" type="line"/>
      <point x="479" y="698" type="line"/>
      <point x="479" y="102" type="line"/>
      <point x="883" y="102" type="line" smooth="yes"/>
      <point x="929" y="102"/>
      <point x="994" y="135"/>
      <point x="1036" y="188"/>
      <point x="1059" y="254"/>
      <point x="1063" y="287" type="qcurve" smooth="yes"/>
      <point x="1083" y="440" type="line"/>
      <point x="1190" y="440" type="line"/>
      <point x="1176" y="0" type="line"/>
      <point x="78" y="0" type="line"/>
      <point x="78" y="86" type="line"/>
      <point x="104" y="86" type="line" smooth="yes"/>
      <point x="139" y="86"/>
      <point x="200" y="96"/>
      <point x="246" y="127"/>
      <point x="272" y="185"/>
      <point x="272" y="233" type="qcurve" smooth="yes"/>
      <point x="272" y="580" type="line"/>
      <point x="78" y="469" type="line"/>
    </contour>
  </outline>
</glyph>
<glyph name="OE" format="2">
  <advance width="1964"/>
  <unicode hex="0152"/>
  <outline>
    <contour>
      <point x="1167" y="102" type="line"/>
      <point x="1563" y="102" type="line" smooth="yes"/>
      <point x="1611" y="102"/>
      <point x="1680" y="129"/>
      <point x="1726" y="175"/>
      <point x="1752" y="236"/>
      <point x="1757" y="270" type="qcurve" smooth="yes"/>
      <point x="1772" y="358" type="line"/>
      <point x="1878" y="358" type="line"/>
      <point x="1864" y="0" type="line"/>
      <point x="971" y="0" type="line"/>
      <point x="950" y="-5"/>
      <point x="897" y="-12"/>
      <point x="840" y="-17"/>
      <point x="784" y="-20"/>
      <point x="760" y="-20" type="qcurve" smooth="yes"/>
      <point x="597" y="-20"/>
      <point x="355" y="88"/>
      <point x="195" y="286"/>
      <point x="115" y="565"/>
      <point x="115" y="735" type="qcurve" smooth="yes"/>
      <point x="115" y="905"/>
      <point x="195" y="1182"/>
      <point x="355" y="1378"/>
      <point x="599" y="1485"/>
      <point x="762" y="1485" type="qcurve" smooth="yes"/>
      <point x="786" y="1485"/>
      <point x="843" y="1482"/>
      <point x="900" y="1476"/>
      <point x="952" y="1468"/>
      <point x="973" y="1462" type="qcurve"/>
      <point x="1798" y="1462" type="line"/>
      <point x="1808" y="1104" type="line"/>
      <point x="1702" y="1104" type="line"/>
      <point x="1692" y="1192" type="line" smooth="yes"/>
      <point x="1688" y="1226"/>
      <point x="1665" y="1287"/>
      <point x="1622" y="1333"/>
      <point x="1557" y="1360"/>
      <point x="1511" y="1360" type="qcurve" smooth="yes"/>
      <point x="1167" y="1360" type="line"/>
      <point x="1167" y="815" type="line"/>
      <point x="1661" y="815" type="line"/>
      <point x="1661" y="715" type="line"/>
      <point x="1167" y="715" type="line"/>
    </contour>
    <contour>
      <point x="760" y="90" type="qcurve" smooth="yes"/>
      <point x="820" y="90"/>
      <point x="920" y="107"/>
      <point x="961" y="121" type="qcurve"/>
      <point x="961" y="1339" type="line"/>
      <point x="920" y="1356"/>
      <point x="822" y="1374"/>
      <point x="762" y="1374" type="qcurve" smooth="yes"/>
      <point x="648" y="1374"/>
      <point x="488" y="1288"/>
      <point x="387" y="1124"/>
      <point x="342" y="885"/>
      <point x="342" y="733" type="qcurve" smooth="yes"/>
      <point x="342" y="581"/>
      <point x="387" y="342"/>
      <point x="487" y="177"/>
      <point x="646" y="90"/>
    </contour>
  </outline>
</glyph>
<glyph name="oe" format="2">
  <advance width="1853"/>
  <unicode hex="0153"/>
  <outline>
    <contour>
      <point x="311" y="551" type="qcurve" smooth="yes"/>
      <point x="311" y="437"/>
      <point x="341" y="263"/>
      <point x="408" y="146"/>
      <point x="515" y="86"/>
      <point x="592" y="86" type="qcurve" smooth="yes"/>
      <point x="668" y="86"/>
      <point x="773" y="144"/>
      <point x="839" y="259"/>
      <point x="869" y="429"/>
      <point x="870" y="541" type="qcurve" smooth="yes"/>
      <point x="870" y="569" type="line" smooth="yes"/>
      <point x="869" y="679"/>
      <point x="837" y="844"/>
      <point x="771" y="955"/>
      <point x="665" y="1010"/>
      <point x="590" y="1010" type="qcurve" smooth="yes"/>
      <point x="513" y="1010"/>
      <point x="407" y="952"/>
      <point x="341" y="837"/>
      <point x="311" y="665"/>
    </contour>
    <contour>
      <point x="1321" y="1008" type="qcurve" smooth="yes"/>
      <point x="1206" y="1008"/>
      <point x="1084" y="823"/>
      <point x="1073" y="645" type="qcurve"/>
      <point x="1544" y="645" type="line"/>
      <point x="1544" y="726"/>
      <point x="1520" y="860"/>
      <point x="1468" y="956"/>
      <point x="1383" y="1008"/>
    </contour>
    <contour>
      <point x="1346" y="-20" type="qcurve" smooth="yes"/>
      <point x="1216" y="-20"/>
      <point x="1033" y="84"/>
      <point x="973" y="184" type="qcurve"/>
      <point x="854" y="-20"/>
      <point x="588" y="-20" type="qcurve" smooth="yes"/>
      <point x="477" y="-20"/>
      <point x="301" y="50"/>
      <point x="178" y="192"/>
      <point x="113" y="407"/>
      <point x="113" y="551" type="qcurve" smooth="yes"/>
      <point x="113" y="838"/>
      <point x="356" y="1118"/>
      <point x="594" y="1118" type="qcurve" smooth="yes"/>
      <point x="718" y="1118"/>
      <point x="905" y="1020"/>
      <point x="967" y="920" type="qcurve"/>
      <point x="1025" y="1020"/>
      <point x="1204" y="1118"/>
      <point x="1325" y="1118" type="qcurve" smooth="yes"/>
      <point x="1424" y="1118"/>
      <point x="1582" y="1056"/>
      <point x="1692" y="933"/>
      <point x="1751" y="750"/>
      <point x="1751" y="629" type="qcurve" smooth="yes"/>
      <point x="1751" y="535" type="line"/>
      <point x="1069" y="535" type="line"/>
      <point x="1071" y="436"/>
      <point x="1105" y="279"/>
      <point x="1177" y="168"/>
      <point x="1291" y="109"/>
      <point x="1374" y="109" type="qcurve" smooth="yes"/>
      <point x="1427" y="109"/>
      <point x="1518" y="133"/>
      <point x="1592" y="173"/>
      <point x="1649" y="224"/>
      <point x="1667" y="252" type="qcurve"/>
      <point x="1681" y="246"/>
      <point x="1706" y="208"/>
      <point x="1706" y="182" type="qcurve" smooth="yes"/>
      <point x="1706" y="151"/>
      <point x="1662" y="80"/>
      <point x="1572" y="20"/>
      <point x="1437" y="-20"/>
    </contour>
  </outline>
</glyph>
<glyph name="longs" format="2">
  <advance width="727"/>
  <unicode hex="017F"/>
  <outline>
    <contour>
      <point x="27" y="0" type="line"/>
      <point x="27" y="86" type="line"/>
      <point x="53" y="86" type="line" smooth="yes"/>
      <point x="88" y="86"/>
      <point x="149" y="96"/>
      <point x="194" y="127"/>
      <point x="221" y="185"/>
      <point x="221" y="233" type="qcurve" smooth="yes"/>
      <point x="221" y="1200" type="line" smooth="yes"/>
      <point x="221" y="1292"/>
      <point x="271" y="1432"/>
      <point x="366" y="1528"/>
      <point x="500" y="1577"/>
      <point x="584" y="1577" type="qcurve" smooth="yes"/>
      <point x="664" y="1577"/>
      <point x="773" y="1556"/>
      <point x="841" y="1518"/>
      <point x="870" y="1466"/>
      <point x="870" y="1434" type="qcurve" smooth="yes"/>
      <point x="870" y="1378"/>
      <point x="777" y="1319"/>
      <point x="702" y="1319" type="qcurve"/>
      <point x="702" y="1350"/>
      <point x="689" y="1409"/>
      <point x="658" y="1455"/>
      <point x="606" y="1483"/>
      <point x="567" y="1483" type="qcurve" smooth="yes"/>
      <point x="480" y="1483"/>
      <point x="414" y="1348"/>
      <point x="414" y="1219" type="qcurve" smooth="yes"/>
      <point x="414" y="233" type="line" smooth="yes"/>
      <point x="414" y="185"/>
      <point x="440" y="127"/>
      <point x="486" y="96"/>
      <point x="547" y="86"/>
      <point x="582" y="86" type="qcurve" smooth="yes"/>
      <point x="659" y="86" type="line"/>
      <point x="659" y="0" type="line"/>
    </contour>
  </outline>
</glyph>
<glyph name="uni0180" format="2">
  <advance width="1257"/>
  <unicode hex="0180"/>
  <outline>
    <contour>
      <point x="727" y="-20" type="qcurve" smooth="yes"/>
      <point x="619" y="-20"/>
      <point x="463" y="71"/>
      <point x="414" y="160" type="qcurve"/>
      <point x="401" y="160" type="line"/>
      <point x="365" y="0" type="line"/>
      <point x="37" y="0" type="line"/>
      <point x="37" y="86" type="line"/>
      <point x="53" y="86" type="line" smooth="yes"/>
      <point x="150" y="86"/>
      <point x="221" y="160"/>
      <point x="221" y="233" type="qcurve" smooth="yes"/>
      <point x="221" y="1214" type="line"/>
      <point x="35" y="1214" type="line"/>
      <point x="35" y="1311" type="line"/>
      <point x="221" y="1311" type="line"/>
      <point x="221" y="1331" type="line" smooth="yes"/>
      <point x="221" y="1399"/>
      <point x="150" y="1470"/>
      <point x="53" y="1470" type="qcurve" smooth="yes"/>
      <point x="37" y="1470" type="line"/>
      <point x="37" y="1556" type="line"/>
      <point x="414" y="1556" type="line"/>
      <point x="414" y="1311" type="line"/>
      <point x="764" y="1311" type="line"/>
      <point x="764" y="1214" type="line"/>
      <point x="414" y="1214" type="line"/>
      <point x="414" y="1139" type="line" smooth="yes"/>
      <point x="414" y="1070"/>
      <point x="409" y="949"/>
      <point x="406" y="872" type="qcurve"/>
      <point x="414" y="872" type="line"/>
      <point x="468" y="981"/>
      <point x="621" y="1077"/>
      <point x="727" y="1077" type="qcurve" smooth="yes"/>
      <point x="938" y="1077"/>
      <point x="1145" y="803"/>
      <point x="1145" y="530" type="qcurve" smooth="yes"/>
      <point x="1145" y="255"/>
      <point x="937" y="-20"/>
    </contour>
    <contour>
      <point x="414" y="530" type="qcurve" smooth="yes"/>
      <point x="414" y="305"/>
      <point x="546" y="111"/>
      <point x="694" y="111" type="qcurve" smooth="yes"/>
      <point x="829" y="111"/>
      <point x="946" y="326"/>
      <point x="946" y="532" type="qcurve" smooth="yes"/>
      <point x="946" y="740"/>
      <point x="828" y="946"/>
      <point x="692" y="946" type="qcurve" smooth="yes"/>
      <point x="543" y="946"/>
      <point x="414" y="759"/>
    </contour>
  </outline>
</glyph>
<glyph name="uni0181" format="2">
  <advance width="1497"/>
  <unicode hex="0181"/>
  <outline>
    <contour>
      <point x="784" y="1462" type="line" smooth="yes"/>
      <point x="1048" y="1462"/>
      <point x="1311" y="1287"/>
      <point x="1311" y="1096" type="qcurve" smooth="yes"/>
      <point x="1311" y="980"/>
      <point x="1190" y="818"/>
      <point x="1057" y="774" type="qcurve"/>
      <point x="1057" y="766" type="line"/>
      <point x="1208" y="740"/>
      <point x="1372" y="546"/>
      <point x="1372" y="395" type="qcurve" smooth="yes"/>
      <point x="1372" y="197"/>
      <point x="1111" y="0"/>
      <point x="846" y="0" type="qcurve" smooth="yes"/>
      <point x="236" y="0" type="line"/>
      <point x="236" y="86" type="line"/>
      <point x="262" y="86" type="line" smooth="yes"/>
      <point x="359" y="86"/>
      <point x="430" y="160"/>
      <point x="430" y="233" type="qcurve" smooth="yes"/>
      <point x="430" y="1241" type="line" smooth="yes"/>
      <point x="430" y="1310"/>
      <point x="372" y="1380"/>
      <point x="293" y="1380" type="qcurve" smooth="yes"/>
      <point x="236" y="1380"/>
      <point x="176" y="1308"/>
      <point x="176" y="1243" type="qcurve" smooth="yes"/>
      <point x="176" y="1209"/>
      <point x="192" y="1161"/>
      <point x="209" y="1137" type="qcurve"/>
      <point x="195" y="1123"/>
      <point x="158" y="1106"/>
      <point x="133" y="1106" type="qcurve" smooth="yes"/>
      <point x="77" y="1106"/>
      <point x="20" y="1178"/>
      <point x="20" y="1231" type="qcurve" smooth="yes"/>
      <point x="20" y="1350"/>
      <point x="165" y="1462"/>
      <point x="332" y="1462" type="qcurve" smooth="yes"/>
    </contour>
    <contour>
      <point x="637" y="817" type="line"/>
      <point x="778" y="817" type="line" smooth="yes"/>
      <point x="949" y="817"/>
      <point x="1092" y="938"/>
      <point x="1092" y="1096" type="qcurve" smooth="yes"/>
      <point x="1092" y="1243"/>
      <point x="954" y="1360"/>
      <point x="774" y="1360" type="qcurve" smooth="yes"/>
      <point x="637" y="1360" type="line"/>
    </contour>
    <contour>
      <point x="637" y="102" type="line"/>
      <point x="836" y="102" type="line" smooth="yes"/>
      <point x="1009" y="102"/>
      <point x="1153" y="236"/>
      <point x="1153" y="401" type="qcurve" smooth="yes"/>
      <point x="1153" y="572"/>
      <point x="1009" y="715"/>
      <point x="840" y="715" type="qcurve" smooth="yes"/>
      <point x="637" y="715" type="line"/>
    </contour>
  </outline>
</glyph>
<glyph name="uni0184" format="2">
  <advance width="1190"/>
  <unicode hex="0184"/>
  <outline>
    <contour>
      <point x="225" y="385" type="qcurve" smooth="yes"/>
      <point x="225" y="1229" type="line" smooth="yes"/>
      <point x="225" y="1304"/>
      <point x="153" y="1376"/>
      <point x="57" y="1376" type="qcurve" smooth="yes"/>
      <point x="31" y="1376" type="line"/>
      <point x="31" y="1462" type="line"/>
      <point x="668" y="1462" type="line"/>
      <point x="668" y="1376" type="line"/>
      <point x="600" y="1376" type="line" smooth="yes"/>
      <point x="503" y="1376"/>
      <point x="432" y="1308"/>
      <point x="432" y="1239" type="qcurve" smooth="yes"/>
      <point x="432" y="809" type="line"/>
      <point x="561" y="809" type="line" smooth="yes"/>
      <point x="831" y="809"/>
      <point x="1110" y="595"/>
      <point x="1110" y="395" type="qcurve" smooth="yes"/>
      <point x="1110" y="202"/>
      <point x="880" y="-20"/>
      <point x="668" y="-20" type="qcurve" smooth="yes"/>
      <point x="455" y="-20"/>
      <point x="225" y="192"/>
    </contour>
    <contour>
      <point x="889" y="385" type="qcurve" smooth="yes"/>
      <point x="889" y="560"/>
      <point x="725" y="713"/>
      <point x="541" y="713" type="qcurve" smooth="yes"/>
      <point x="432" y="713" type="line"/>
      <point x="432" y="375" type="line" smooth="yes"/>
      <point x="432" y="221"/>
      <point x="538" y="78"/>
      <point x="662" y="78" type="qcurve" smooth="yes"/>
      <point x="782" y="78"/>
      <point x="889" y="229"/>
    </contour>
  </outline>
</glyph>
<glyph name="uni0185" format="2">
  <advance width="1237"/>
  <unicode hex="0185"/>
  <outline>
    <contour>
      <point x="201" y="1331" type="line" smooth="yes"/>
      <point x="201" y="1399"/>
      <point x="130" y="1470"/>
      <point x="33" y="1470" type="qcurve" smooth="yes"/>
      <point x="16" y="1470" type="line"/>
      <point x="16" y="1556" type="line"/>
      <point x="393" y="1556" type="line"/>
      <point x="393" y="1180" type="line" smooth="yes"/>
      <point x="393" y="1111"/>
      <point x="388" y="990"/>
      <point x="385" y="913" type="qcurve"/>
      <point x="393" y="913" type="line"/>
      <point x="445" y="1020"/>
      <point x="600" y="1118"/>
      <point x="707" y="1118" type="qcurve" smooth="yes"/>
      <point x="916" y="1118"/>
      <point x="1124" y="838"/>
      <point x="1124" y="551" type="qcurve" smooth="yes"/>
      <point x="1124" y="264"/>
      <point x="895" y="-20"/>
      <point x="662" y="-20" type="qcurve" smooth="yes"/>
      <point x="431" y="-20"/>
      <point x="201" y="264"/>
      <point x="201" y="547" type="qcurve" smooth="yes"/>
    </contour>
    <contour>
      <point x="393" y="551" type="qcurve" smooth="yes"/>
      <point x="393" y="298"/>
      <point x="522" y="86"/>
      <point x="674" y="86" type="qcurve" smooth="yes"/>
      <point x="808" y="86"/>
      <point x="926" y="313"/>
      <point x="926" y="553" type="qcurve" smooth="yes"/>
      <point x="926" y="771"/>
      <point x="808" y="987"/>
      <point x="672" y="987" type="qcurve" smooth="yes"/>
      <point x="523" y="987"/>
      <point x="393" y="793"/>
    </contour>
  </outline>
</glyph>
<glyph name="uni0188" format="2">
  <advance width="1008"/>
  <unicode hex="0188"/>
  <outline>
    <contour>
      <point x="113" y="543" type="qcurve" smooth="yes"/>
      <point x="113" y="832"/>
      <point x="341" y="1118"/>
      <point x="569" y="1118" type="qcurve" smooth="yes"/>
      <point x="634" y="1118"/>
      <point x="765" y="1091"/>
      <point x="817" y="1063" type="qcurve"/>
      <point x="817" y="1253" type="line" smooth="yes"/>
      <point x="817" y="1398"/>
      <point x="922" y="1556"/>
      <point x="1030" y="1556" type="qcurve" smooth="yes"/>
      <point x="1102" y="1556"/>
      <point x="1186" y="1500"/>
      <point x="1186" y="1444" type="qcurve" smooth="yes"/>
      <point x="1186" y="1419"/>
      <point x="1169" y="1382"/>
      <point x="1155" y="1368" type="qcurve"/>
      <point x="1130" y="1385"/>
      <point x="1083" y="1401"/>
      <point x="1049" y="1401" type="qcurve" smooth="yes"/>
      <point x="987" y="1401"/>
      <point x="926" y="1325"/>
      <point x="926" y="1253" type="qcurve" smooth="yes"/>
      <point x="926" y="909" type="line" smooth="yes"/>
      <point x="926" y="838"/>
      <point x="834" y="780"/>
      <point x="743" y="780" type="qcurve"/>
      <point x="743" y="898"/>
      <point x="658" y="1016"/>
      <point x="569" y="1016" type="qcurve" smooth="yes"/>
      <point x="431" y="1016"/>
      <point x="311" y="787"/>
      <point x="311" y="545" type="qcurve" smooth="yes"/>
      <point x="311" y="325"/>
      <point x="457" y="113"/>
      <point x="621" y="113" type="qcurve" smooth="yes"/>
      <point x="716" y="113"/>
      <point x="858" y="193"/>
      <point x="893" y="256" type="qcurve"/>
      <point x="908" y="244"/>
      <point x="928" y="204"/>
      <point x="928" y="176" type="qcurve" smooth="yes"/>
      <point x="928" y="97"/>
      <point x="737" y="-20"/>
      <point x="580" y="-20" type="qcurve" smooth="yes"/>
      <point x="354" y="-20"/>
      <point x="113" y="267"/>
    </contour>
  </outline>
</glyph>
<glyph name="uni018B" format="2">
  <advance width="1237"/>
  <unicode hex="018B"/>
  <outline>
    <contour>
      <point x="1159" y="1462" type="line"/>
      <point x="1159" y="1376" type="line"/>
      <point x="1133" y="1376" type="line" smooth="yes"/>
      <point x="1037" y="1376"/>
      <point x="965" y="1304"/>
      <point x="965" y="1229" type="qcurve" smooth="yes"/>
      <point x="965" y="225" type="line" smooth="yes"/>
      <point x="965" y="157"/>
      <point x="1036" y="86"/>
      <point x="1133" y="86" type="qcurve" smooth="yes"/>
      <point x="1159" y="86" type="line"/>
      <point x="1159" y="0" type="line"/>
      <point x="584" y="0" type="line" smooth="yes"/>
      <point x="339" y="0"/>
      <point x="80" y="216"/>
      <point x="80" y="406" type="qcurve" smooth="yes"/>
      <point x="80" y="604"/>
      <point x="358" y="809"/>
      <point x="629" y="809" type="qcurve" smooth="yes"/>
      <point x="758" y="809" type="line"/>
      <point x="758" y="1360" type="line"/>
      <point x="449" y="1360" type="line" smooth="yes"/>
      <point x="375" y="1360"/>
      <point x="290" y="1283"/>
      <point x="279" y="1192" type="qcurve" smooth="yes"/>
      <point x="268" y="1104" type="line"/>
      <point x="162" y="1104" type="line"/>
      <point x="172" y="1462" type="line"/>
    </contour>
    <contour>
      <point x="758" y="713" type="line"/>
      <point x="649" y="713" type="line" smooth="yes"/>
      <point x="462" y="713"/>
      <point x="301" y="567"/>
      <point x="301" y="395" type="qcurve" smooth="yes"/>
      <point x="301" y="235"/>
      <point x="456" y="98"/>
      <point x="618" y="98" type="qcurve" smooth="yes"/>
      <point x="758" y="98" type="line"/>
    </contour>
  </outline>
</glyph>
<glyph name="uni018C" format="2">
  <advance width="1257"/>
  <unicode hex="018C"/>
  <outline>
    <contour>
      <point x="471" y="1462" type="line" smooth="yes"/>
      <point x="398" y="1462"/>
      <point x="342" y="1412"/>
      <point x="328" y="1317" type="qcurve" smooth="yes"/>
      <point x="317" y="1249" type="line"/>
      <point x="217" y="1249" type="line"/>
      <point x="217" y="1556" type="line"/>
      <point x="1036" y="1556" type="line"/>
      <point x="1036" y="225" type="line" smooth="yes"/>
      <point x="1036" y="157"/>
      <point x="1107" y="86"/>
      <point x="1204" y="86" type="qcurve" smooth="yes"/>
      <point x="1221" y="86" type="line"/>
      <point x="1221" y="0" type="line"/>
      <point x="874" y="0" type="line"/>
      <point x="852" y="184" type="line"/>
      <point x="844" y="184" type="line"/>
      <point x="793" y="79"/>
      <point x="638" y="-20"/>
      <point x="530" y="-20" type="qcurve" smooth="yes"/>
      <point x="321" y="-20"/>
      <point x="113" y="260"/>
      <point x="113" y="547" type="qcurve" smooth="yes"/>
      <point x="113" y="835"/>
      <point x="320" y="1118"/>
      <point x="530" y="1118" type="qcurve" smooth="yes"/>
      <point x="636" y="1118"/>
      <point x="791" y="1030"/>
      <point x="844" y="938" type="qcurve"/>
      <point x="856" y="938" type="line"/>
      <point x="856" y="958"/>
      <point x="844" y="1134"/>
      <point x="844" y="1163" type="qcurve" smooth="yes"/>
      <point x="844" y="1462" type="line"/>
    </contour>
    <contour>
      <point x="844" y="547" type="qcurve" smooth="yes"/>
      <point x="844" y="787"/>
      <point x="709" y="987"/>
      <point x="563" y="987" type="qcurve" smooth="yes"/>
      <point x="435" y="987"/>
      <point x="311" y="772"/>
      <point x="311" y="545" type="qcurve" smooth="yes"/>
      <point x="311" y="317"/>
      <point x="434" y="111"/>
      <point x="565" y="111" type="qcurve" smooth="yes"/>
      <point x="714" y="111"/>
      <point x="844" y="305"/>
    </contour>
  </outline>
</glyph>
<glyph name="uni018E" format="2">
  <advance width="1276"/>
  <unicode hex="018E"/>
  <outline>
    <contour>
      <point x="797" y="715" type="line"/>
      <point x="303" y="715" type="line"/>
      <point x="303" y="815" type="line"/>
      <point x="797" y="815" type="line"/>
      <point x="797" y="1360" type="line"/>
      <point x="453" y="1360" type="line" smooth="yes"/>
      <point x="374" y="1360"/>
      <point x="282" y="1275"/>
      <point x="272" y="1192" type="qcurve" smooth="yes"/>
      <point x="262" y="1104" type="line"/>
      <point x="156" y="1104" type="line"/>
      <point x="166" y="1462" type="line"/>
      <point x="1198" y="1462" type="line"/>
      <point x="1198" y="1376" type="line"/>
      <point x="1171" y="1376" type="line" smooth="yes"/>
      <point x="1076" y="1376"/>
      <point x="1004" y="1305"/>
      <point x="1004" y="1229" type="qcurve" smooth="yes"/>
      <point x="1004" y="223" type="line" smooth="yes"/>
      <point x="1004" y="154"/>
      <point x="1075" y="86"/>
      <point x="1171" y="86" type="qcurve" smooth="yes"/>
      <point x="1198" y="86" type="line"/>
      <point x="1198" y="0" type="line"/>
      <point x="100" y="0" type="line"/>
      <point x="86" y="358" type="line"/>
      <point x="193" y="358" type="line"/>
      <point x="207" y="270" type="line" smooth="yes"/>
      <point x="219" y="189"/>
      <point x="318" y="102"/>
      <point x="401" y="102" type="qcurve" smooth="yes"/>
      <point x="797" y="102" type="line"/>
    </contour>
  </outline>
</glyph>
<glyph name="florin" format="2">
  <advance width="1145"/>
  <unicode hex="0192"/>
  <outline>
    <contour>
      <point x="911" y="815" type="line"/>
      <point x="643" y="815" type="line"/>
      <point x="481" y="-16" type="line" smooth="yes"/>
      <point x="454" y="-154"/>
      <point x="371" y="-337"/>
      <point x="259" y="-446"/>
      <point x="120" y="-492"/>
      <point x="37" y="-492" type="qcurve" smooth="yes"/>
      <point x="23" y="-492"/>
      <point x="-10" y="-490"/>
      <point x="-43" y="-485"/>
      <point x="-72" y="-480"/>
      <point x="-82" y="-477" type="qcurve"/>
      <point x="-63" y="-381" type="line"/>
      <point x="-56" y="-383"/>
      <point x="-34" y="-387"/>
      <point x="-8" y="-392"/>
      <point x="19" y="-395"/>
      <point x="31" y="-395" type="qcurve" smooth="yes"/>
      <point x="81" y="-395"/>
      <point x="159" y="-355"/>
      <point x="221" y="-265"/>
      <point x="269" y="-121"/>
      <point x="289" y="-18" type="qcurve" smooth="yes"/>
      <point x="451" y="815" type="line"/>
      <point x="244" y="815" type="line"/>
      <point x="262" y="911" type="line"/>
      <point x="469" y="911" type="line"/>
      <point x="508" y="1116" type="line" smooth="yes"/>
      <point x="525" y="1204"/>
      <point x="587" y="1340"/>
      <point x="683" y="1434"/>
      <point x="813" y="1483"/>
      <point x="897" y="1483" type="qcurve" smooth="yes"/>
      <point x="1028" y="1483"/>
      <point x="1161" y="1399"/>
      <point x="1161" y="1331" type="qcurve" smooth="yes"/>
      <point x="1161" y="1263"/>
      <point x="1073" y="1198"/>
      <point x="991" y="1198" type="qcurve"/>
      <point x="991" y="1237"/>
      <point x="983" y="1307"/>
      <point x="960" y="1359"/>
      <point x="919" y="1389"/>
      <point x="887" y="1389" type="qcurve" smooth="yes"/>
      <point x="811" y="1389"/>
      <point x="729" y="1264"/>
      <point x="705" y="1135" type="qcurve" smooth="yes"/>
      <point x="662" y="911" type="line"/>
      <point x="930" y="911" type="line"/>
    </contour>
  </outline>
</glyph>
<glyph name="uni0193" format="2">
  <advance width="1462"/>
  <unicode hex="0193"/>
  <outline>
    <contour>
      <point x="117" y="733" type="qcurve" smooth="yes"/>
      <point x="117" y="1083"/>
      <point x="498" y="1483"/>
      <point x="834" y="1483" type="qcurve" smooth="yes"/>
      <point x="946" y="1483"/>
      <point x="1114" y="1448"/>
      <point x="1171" y="1417" type="qcurve"/>
      <point x="1171" y="1454" type="line" smooth="yes"/>
      <point x="1171" y="1592"/>
      <point x="1282" y="1757"/>
      <point x="1384" y="1757" type="qcurve" smooth="yes"/>
      <point x="1457" y="1757"/>
      <point x="1540" y="1700"/>
      <point x="1540" y="1645" type="qcurve" smooth="yes"/>
      <point x="1540" y="1620"/>
      <point x="1523" y="1583"/>
      <point x="1509" y="1569" type="qcurve"/>
      <point x="1485" y="1586"/>
      <point x="1437" y="1602"/>
      <point x="1403" y="1602" type="qcurve" smooth="yes"/>
      <point x="1343" y="1602"/>
      <point x="1286" y="1528"/>
      <point x="1286" y="1454" type="qcurve" smooth="yes"/>
      <point x="1286" y="1253" type="line" smooth="yes"/>
      <point x="1286" y="1191"/>
      <point x="1179" y="1110"/>
      <point x="1096" y="1110" type="qcurve"/>
      <point x="1096" y="1229"/>
      <point x="953" y="1374"/>
      <point x="825" y="1374" type="qcurve" smooth="yes"/>
      <point x="581" y="1374"/>
      <point x="344" y="1065"/>
      <point x="344" y="733" type="qcurve" smooth="yes"/>
      <point x="344" y="399"/>
      <point x="594" y="96"/>
      <point x="854" y="96" type="qcurve" smooth="yes"/>
      <point x="913" y="96"/>
      <point x="1024" y="108"/>
      <point x="1067" y="121" type="qcurve"/>
      <point x="1067" y="451" type="line" smooth="yes"/>
      <point x="1067" y="522"/>
      <point x="992" y="590"/>
      <point x="899" y="590" type="qcurve" smooth="yes"/>
      <point x="891" y="590" type="line"/>
      <point x="891" y="676" type="line"/>
      <point x="1423" y="676" type="line"/>
      <point x="1423" y="590" type="line"/>
      <point x="1415" y="590" type="line" smooth="yes"/>
      <point x="1333" y="590"/>
      <point x="1274" y="516"/>
      <point x="1274" y="442" type="qcurve" smooth="yes"/>
      <point x="1274" y="74" type="line"/>
      <point x="1171" y="26"/>
      <point x="953" y="-20"/>
      <point x="821" y="-20" type="qcurve" smooth="yes"/>
      <point x="483" y="-20"/>
      <point x="117" y="374"/>
    </contour>
  </outline>
</glyph>
<glyph name="uni0195" format="2">
  <advance width="1866"/>
  <unicode hex="0195"/>
  <outline>
    <contour>
      <point x="846" y="707" type="line" smooth="yes"/>
      <point x="846" y="855"/>
      <point x="746" y="987"/>
      <point x="641" y="987" type="qcurve" smooth="yes"/>
      <point x="530" y="987"/>
      <point x="414" y="815"/>
      <point x="414" y="655" type="qcurve" smooth="yes"/>
      <point x="414" y="223" type="line" smooth="yes"/>
      <point x="414" y="153"/>
      <point x="483" y="86"/>
      <point x="580" y="86" type="qcurve" smooth="yes"/>
      <point x="588" y="86" type="line"/>
      <point x="588" y="0" type="line"/>
      <point x="37" y="0" type="line"/>
      <point x="37" y="86" type="line"/>
      <point x="53" y="86" type="line" smooth="yes"/>
      <point x="150" y="86"/>
      <point x="221" y="160"/>
      <point x="221" y="233" type="qcurve" smooth="yes"/>
      <point x="221" y="1331" type="line" smooth="yes"/>
      <point x="221" y="1399"/>
      <point x="150" y="1470"/>
      <point x="53" y="1470" type="qcurve" smooth="yes"/>
      <point x="37" y="1470" type="line"/>
      <point x="37" y="1556" type="line"/>
      <point x="414" y="1556" type="line"/>
      <point x="414" y="1106" type="line" smooth="yes"/>
      <point x="414" y="1053"/>
      <point x="408" y="961"/>
      <point x="406" y="932" type="qcurve"/>
      <point x="416" y="932" type="line"/>
      <point x="502" y="1118"/>
      <point x="698" y="1118" type="qcurve" smooth="yes"/>
      <point x="863" y="1118"/>
      <point x="1038" y="927"/>
      <point x="1038" y="717" type="qcurve" smooth="yes"/>
      <point x="1038" y="352" type="line" smooth="yes"/>
      <point x="1038" y="203"/>
      <point x="1145" y="82"/>
      <point x="1255" y="82" type="qcurve" smooth="yes"/>
      <point x="1371" y="82"/>
      <point x="1473" y="218"/>
      <point x="1473" y="389" type="qcurve" smooth="yes"/>
      <point x="1473" y="864" type="line" smooth="yes"/>
      <point x="1473" y="939"/>
      <point x="1403" y="1012"/>
      <point x="1307" y="1012" type="qcurve" smooth="yes"/>
      <point x="1298" y="1012" type="line"/>
      <point x="1298" y="1098" type="line"/>
      <point x="1665" y="1098" type="line"/>
      <point x="1665" y="375" type="line" smooth="yes"/>
      <point x="1665" y="174"/>
      <point x="1463" y="-20"/>
      <point x="1255" y="-20" type="qcurve" smooth="yes"/>
      <point x="1042" y="-20"/>
      <point x="846" y="165"/>
      <point x="846" y="358" type="qcurve" smooth="yes"/>
    </contour>
  </outline>
</glyph>
<glyph name="uni0196" format="2">
  <advance width="752"/>
  <unicode hex="0196"/>
  <outline>
    <contour>
      <point x="272" y="1229" type="line" smooth="yes"/>
      <point x="272" y="1304"/>
      <point x="200" y="1376"/>
      <point x="104" y="1376" type="qcurve" smooth="yes"/>
      <point x="78" y="1376" type="line"/>
      <point x="78" y="1462" type="line"/>
      <point x="674" y="1462" type="line"/>
      <point x="674" y="1376" type="line"/>
      <point x="647" y="1376" type="line" smooth="yes"/>
      <point x="550" y="1376"/>
      <point x="479" y="1302"/>
      <point x="479" y="1229" type="qcurve" smooth="yes"/>
      <point x="479" y="266" type="line" smooth="yes"/>
      <point x="479" y="94"/>
      <point x="606" y="94" type="qcurve" smooth="yes"/>
      <point x="625" y="94"/>
      <point x="657" y="100"/>
      <point x="674" y="106" type="qcurve"/>
      <point x="674" y="10" type="line"/>
      <point x="653" y="-2"/>
      <point x="581" y="-20"/>
      <point x="547" y="-20" type="qcurve" smooth="yes"/>
      <point x="402" y="-20"/>
      <point x="272" y="119"/>
      <point x="272" y="272" type="qcurve" smooth="yes"/>
    </contour>
  </outline>
</glyph>
<glyph name="uni0197" format="2">
  <advance width="752"/>
  <unicode hex="0197"/>
  <outline>
    <contour>
      <point x="78" y="0" type="line"/>
      <point x="78" y="86" type="line"/>
      <point x="104" y="86" type="line" smooth="yes"/>
      <point x="200" y="86"/>
      <point x="272" y="158"/>
      <point x="272" y="233" type="qcurve" smooth="yes"/>
      <point x="272" y="715" type="line"/>
      <point x="41" y="715" type="line"/>
      <point x="41" y="815" type="line"/>
      <point x="272" y="815" type="line"/>
      <point x="272" y="1229" type="line" smooth="yes"/>
      <point x="272" y="1304"/>
      <point x="200" y="1376"/>
      <point x="104" y="1376" type="qcurve" smooth="yes"/>
      <point x="78" y="1376" type="line"/>
      <point x="78" y="1462" type="line"/>
      <point x="674" y="1462" type="line"/>
      <point x="674" y="1376" type="line"/>
      <point x="647" y="1376" type="line" smooth="yes"/>
      <point x="550" y="1376"/>
      <point x="479" y="1302"/>
      <point x="479" y="1229" type="qcurve" smooth="yes"/>
      <point x="479" y="815" type="line"/>
      <point x="711" y="815" type="line"/>
      <point x="711" y="715" type="line"/>
      <point x="479" y="715" type="line"/>
      <point x="479" y="233" type="line" smooth="yes"/>
      <point x="479" y="160"/>
      <point x="550" y="86"/>
      <point x="647" y="86" type="qcurve" smooth="yes"/>
      <point x="674" y="86" type="line"/>
      <point x="674" y="0" type="line"/>
    </contour>
  </outline>
</glyph>
<glyph name="uni019A" format="2">
  <advance width="635"/>
  <unicode hex="019A"/>
  <outline>
    <contour>
      <point x="53" y="86" type="line" smooth="yes"/>
      <point x="150" y="86"/>
      <point x="221" y="160"/>
      <point x="221" y="233" type="qcurve" smooth="yes"/>
      <point x="221" y="748" type="line"/>
      <point x="20" y="748" type="line"/>
      <point x="20" y="844" type="line"/>
      <point x="221" y="844" type="line"/>
      <point x="221" y="1331" type="line" smooth="yes"/>
      <point x="221" y="1399"/>
      <point x="150" y="1470"/>
      <point x="53" y="1470" type="qcurve" smooth="yes"/>
      <point x="27" y="1470" type="line"/>
      <point x="27" y="1556" type="line"/>
      <point x="414" y="1556" type="line"/>
      <point x="414" y="844" type="line"/>
      <point x="614" y="844" type="line"/>
      <point x="614" y="748" type="line"/>
      <point x="414" y="748" type="line"/>
      <point x="414" y="233" type="line" smooth="yes"/>
      <point x="414" y="158"/>
      <point x="486" y="86"/>
      <point x="582" y="86" type="qcurve" smooth="yes"/>
      <point x="608" y="86" type="line"/>
      <point x="608" y="0" type="line"/>
      <point x="27" y="0" type="line"/>
      <point x="27" y="86" type="line"/>
    </contour>
  </outline>
</glyph>
<glyph name="uni019D" format="2">
  <advance width="1563"/>
  <unicode hex="019D"/>
  <outline>
    <contour>
      <point x="272" y="1237" type="line" smooth="yes"/>
      <point x="272" y="1305"/>
      <point x="201" y="1376"/>
      <point x="104" y="1376" type="qcurve" smooth="yes"/>
      <point x="78" y="1376" type="line"/>
      <point x="78" y="1462" type="line"/>
      <point x="453" y="1462" type="line"/>
      <point x="1186" y="330" type="line"/>
      <point x="1186" y="1237" type="line" smooth="yes"/>
      <point x="1186" y="1305"/>
      <point x="1115" y="1376"/>
      <point x="1018" y="1376" type="qcurve" smooth="yes"/>
      <point x="991" y="1376" type="line"/>
      <point x="991" y="1462" type="line"/>
      <point x="1505" y="1462" type="line"/>
      <point x="1505" y="1376" type="line"/>
      <point x="1479" y="1376" type="line" smooth="yes"/>
      <point x="1383" y="1376"/>
      <point x="1311" y="1304"/>
      <point x="1311" y="1229" type="qcurve" smooth="yes"/>
      <point x="1311" y="0" type="line"/>
      <point x="1165" y="0" type="line"/>
      <point x="397" y="1180" type="line"/>
      <point x="397" y="-16" type="line" smooth="yes"/>
      <point x="397" y="-268"/>
      <point x="258" y="-492"/>
      <point x="86" y="-492" type="qcurve" smooth="yes"/>
      <point x="39" y="-492" type="line"/>
      <point x="39" y="-395" type="line"/>
      <point x="68" y="-395" type="line" smooth="yes"/>
      <point x="178" y="-395"/>
      <point x="272" y="-213"/>
      <point x="272" y="-18" type="qcurve" smooth="yes"/>
    </contour>
  </outline>
</glyph>
<glyph name="ohorn" format="2">
  <advance width="1243"/>
  <unicode hex="01A1"/>
  <outline>
    <contour>
      <point x="987" y="913" type="qcurve"/>
      <point x="1114" y="948"/>
      <point x="1114" y="1042" type="qcurve" smooth="yes"/>
      <point x="1114" y="1069"/>
      <point x="1026" y="1135"/>
      <point x="1026" y="1184" type="qcurve" smooth="yes"/>
      <point x="1026" y="1286"/>
      <point x="1143" y="1286" type="qcurve" smooth="yes"/>
      <point x="1268" y="1286"/>
      <point x="1268" y="1157" type="qcurve" smooth="yes"/>
      <point x="1268" y="941"/>
      <point x="1020" y="848" type="qcurve"/>
      <point x="1069" y="726"/>
      <point x="1069" y="551" type="qcurve" smooth="yes"/>
      <point x="1069" y="-20"/>
      <point x="588" y="-20" type="qcurve" smooth="yes"/>
      <point x="113" y="-20"/>
      <point x="113" y="551" type="qcurve" smooth="yes"/>
      <point x="113" y="1118"/>
      <point x="594" y="1118" type="qcurve" smooth="yes"/>
      <point x="869" y="1118"/>
    </contour>
    <contour>
      <point x="592" y="86" type="qcurve" smooth="yes"/>
      <point x="736" y="86"/>
      <point x="870" y="304"/>
      <point x="870" y="551" type="qcurve" smooth="yes"/>
      <point x="870" y="791"/>
      <point x="737" y="1010"/>
      <point x="590" y="1010" type="qcurve" smooth="yes"/>
      <point x="443" y="1010"/>
      <point x="311" y="791"/>
      <point x="311" y="551" type="qcurve" smooth="yes"/>
      <point x="311" y="86"/>
    </contour>
  </outline>
</glyph>
<glyph name="uni01A2" format="2">
  <advance width="2257"/>
  <unicode hex="01A2"/>
  <outline>
    <contour>
      <point x="1260" y="1233" type="line"/>
      <point x="1316" y="1354"/>
      <point x="1496" y="1483"/>
      <point x="1618" y="1483" type="qcurve" smooth="yes"/>
      <point x="1817" y="1483"/>
      <point x="2025" y="1269"/>
      <point x="2025" y="1061" type="qcurve" smooth="yes"/>
      <point x="2025" y="-266" type="line" smooth="yes"/>
      <point x="2025" y="-336"/>
      <point x="2099" y="-406"/>
      <point x="2193" y="-406" type="qcurve" smooth="yes"/>
      <point x="2220" y="-406" type="line"/>
      <point x="2220" y="-492" type="line"/>
      <point x="1624" y="-492" type="line"/>
      <point x="1624" y="-406" type="line"/>
      <point x="1651" y="-406" type="line" smooth="yes"/>
      <point x="1748" y="-406"/>
      <point x="1819" y="-331"/>
      <point x="1819" y="-258" type="qcurve" smooth="yes"/>
      <point x="1819" y="1075" type="line" smooth="yes"/>
      <point x="1819" y="1211"/>
      <point x="1706" y="1339"/>
      <point x="1581" y="1339" type="qcurve" smooth="yes"/>
      <point x="1452" y="1339"/>
      <point x="1327" y="1179"/>
      <point x="1325" y="1008" type="qcurve" smooth="yes"/>
      <point x="1323" y="633" type="line" smooth="yes"/>
      <point x="1320" y="301"/>
      <point x="1026" y="-20"/>
      <point x="723" y="-20" type="qcurve" smooth="yes"/>
      <point x="437" y="-20"/>
      <point x="115" y="381"/>
      <point x="115" y="735" type="qcurve" smooth="yes"/>
      <point x="115" y="1091"/>
      <point x="450" y="1485"/>
      <point x="762" y="1485" type="qcurve" smooth="yes"/>
      <point x="1089" y="1485"/>
      <point x="1251" y="1233" type="qcurve"/>
    </contour>
    <contour>
      <point x="723" y="90" type="qcurve" smooth="yes"/>
      <point x="945" y="90"/>
      <point x="1114" y="364"/>
      <point x="1114" y="643" type="qcurve" smooth="yes"/>
      <point x="1114" y="942" type="line" smooth="yes"/>
      <point x="1114" y="1151"/>
      <point x="920" y="1374"/>
      <point x="762" y="1374" type="qcurve" smooth="yes"/>
      <point x="551" y="1374"/>
      <point x="342" y="1066"/>
      <point x="342" y="733" type="qcurve" smooth="yes"/>
      <point x="342" y="410"/>
      <point x="534" y="90"/>
    </contour>
  </outline>
</glyph>
<glyph name="uni01AB" format="2">
  <advance width="721"/>
  <unicode hex="01AB"/>
  <outline>
    <contour>
      <point x="674" y="102" type="qcurve"/>
      <point x="674" y="-100" type="line" smooth="yes"/>
      <point x="674" y="-252"/>
      <point x="569" y="-403"/>
      <point x="461" y="-403" type="qcurve" smooth="yes"/>
      <point x="389" y="-403"/>
      <point x="305" y="-347"/>
      <point x="305" y="-291" type="qcurve" smooth="yes"/>
      <point x="305" y="-266"/>
      <point x="322" y="-229"/>
      <point x="336" y="-215" type="qcurve"/>
      <point x="361" y="-232"/>
      <point x="408" y="-248"/>
      <point x="442" y="-248" type="qcurve" smooth="yes"/>
      <point x="503" y="-248"/>
      <point x="565" y="-173"/>
      <point x="565" y="-100" type="qcurve" smooth="yes"/>
      <point x="565" y="-14" type="line"/>
      <point x="547" y="-17"/>
      <point x="509" y="-20"/>
      <point x="492" y="-20" type="qcurve" smooth="yes"/>
      <point x="329" y="-20"/>
      <point x="195" y="127"/>
      <point x="195" y="297" type="qcurve" smooth="yes"/>
      <point x="195" y="981" type="line"/>
      <point x="39" y="981" type="line"/>
      <point x="39" y="1063" type="line"/>
      <point x="125" y="1063"/>
      <point x="258" y="1179"/>
      <point x="293" y="1350" type="qcurve"/>
      <point x="387" y="1350" type="line"/>
      <point x="387" y="1098" type="line"/>
      <point x="655" y="1098" type="line"/>
      <point x="655" y="981" type="line"/>
      <point x="387" y="981" type="line"/>
      <point x="387" y="291" type="line" smooth="yes"/>
      <point x="387" y="186"/>
      <point x="472" y="88"/>
      <point x="543" y="88" type="qcurve" smooth="yes"/>
      <point x="580" y="88"/>
      <point x="642" y="96"/>
    </contour>
  </outline>
</glyph>
<glyph name="uni01AD" format="2">
  <advance width="721"/>
  <unicode hex="01AD"/>
  <outline>
    <contour>
      <point x="387" y="291" type="line" smooth="yes"/>
      <point x="387" y="186"/>
      <point x="472" y="88"/>
      <point x="543" y="88" type="qcurve" smooth="yes"/>
      <point x="580" y="88"/>
      <point x="642" y="96"/>
      <point x="674" y="102" type="qcurve"/>
      <point x="674" y="12" type="line"/>
      <point x="646" y="-1"/>
      <point x="541" y="-20"/>
      <point x="492" y="-20" type="qcurve" smooth="yes"/>
      <point x="329" y="-20"/>
      <point x="195" y="127"/>
      <point x="195" y="297" type="qcurve" smooth="yes"/>
      <point x="195" y="981" type="line"/>
      <point x="39" y="981" type="line"/>
      <point x="39" y="1063" type="line"/>
      <point x="136" y="1063"/>
      <point x="266" y="1205"/>
      <point x="307" y="1447"/>
      <point x="414" y="1556"/>
      <point x="492" y="1556" type="qcurve" smooth="yes"/>
      <point x="564" y="1556"/>
      <point x="647" y="1500"/>
      <point x="647" y="1444" type="qcurve" smooth="yes"/>
      <point x="647" y="1419"/>
      <point x="630" y="1382"/>
      <point x="616" y="1368" type="qcurve"/>
      <point x="592" y="1385"/>
      <point x="544" y="1401"/>
      <point x="510" y="1401" type="qcurve" smooth="yes"/>
      <point x="448" y="1401"/>
      <point x="387" y="1325"/>
      <point x="387" y="1253" type="qcurve" smooth="yes"/>
      <point x="387" y="1098" type="line"/>
      <point x="655" y="1098" type="line"/>
      <point x="655" y="981" type="line"/>
      <point x="387" y="981" type="line"/>
    </contour>
  </outline>
</glyph>
<glyph name="uni01B1" format="2">
  <advance width="1542"/>
  <unicode hex="01B1"/>
  <outline>
    <contour>
      <point x="768" y="-20" type="qcurve" smooth="yes"/>
      <point x="468" y="-20"/>
      <point x="127" y="292"/>
      <point x="127" y="565" type="qcurve" smooth="yes"/>
      <point x="127" y="791"/>
      <point x="365" y="1073"/>
      <point x="592" y="1118" type="qcurve"/>
      <point x="596" y="1298" type="line"/>
      <point x="401" y="1298" type="line" smooth="yes"/>
      <point x="308" y="1298"/>
      <point x="222" y="1243"/>
      <point x="207" y="1171" type="qcurve" smooth="yes"/>
      <point x="193" y="1104" type="line"/>
      <point x="86" y="1104" type="line"/>
      <point x="100" y="1462" type="line"/>
      <point x="709" y="1462" type="line"/>
      <point x="694" y="1034" type="line"/>
      <point x="521" y="1015"/>
      <point x="354" y="789"/>
      <point x="354" y="563" type="qcurve" smooth="yes"/>
      <point x="354" y="317"/>
      <point x="557" y="90"/>
      <point x="768" y="90" type="qcurve" smooth="yes"/>
      <point x="980" y="90"/>
      <point x="1188" y="317"/>
      <point x="1188" y="563" type="qcurve" smooth="yes"/>
      <point x="1188" y="785"/>
      <point x="1022" y="1015"/>
      <point x="848" y="1034" type="qcurve"/>
      <point x="834" y="1462" type="line"/>
      <point x="1442" y="1462" type="line"/>
      <point x="1456" y="1104" type="line"/>
      <point x="1350" y="1104" type="line"/>
      <point x="1335" y="1171" type="line" smooth="yes"/>
      <point x="1320" y="1243"/>
      <point x="1234" y="1298"/>
      <point x="1141" y="1298" type="qcurve" smooth="yes"/>
      <point x="946" y="1298" type="line"/>
      <point x="950" y="1118" type="line"/>
      <point x="1177" y="1073"/>
      <point x="1415" y="791"/>
      <point x="1415" y="565" type="qcurve" smooth="yes"/>
      <point x="1415" y="287"/>
      <point x="1081" y="-20"/>
    </contour>
  </outline>
</glyph>
<glyph name="uni01B5" format="2">
  <advance width="1212"/>
  <unicode hex="01B5"/>
  <outline>
    <contour>
      <point x="1094" y="1378" type="line"/>
      <point x="754" y="815" type="line"/>
      <point x="1040" y="815" type="line"/>
      <point x="1040" y="715" type="line"/>
      <point x="692" y="715" type="line"/>
      <point x="324" y="102" type="line"/>
      <point x="840" y="102" type="line" smooth="yes"/>
      <point x="917" y="102"/>
      <point x="1000" y="183"/>
      <point x="1010" y="270" type="qcurve" smooth="yes"/>
      <point x="1020" y="358" type="line"/>
      <point x="1126" y="358" type="line"/>
      <point x="1116" y="0" type="line"/>
      <point x="74" y="0" type="line"/>
      <point x="74" y="82" type="line"/>
      <point x="453" y="715" type="line"/>
      <point x="166" y="715" type="line"/>
      <point x="166" y="815" type="line"/>
      <point x="514" y="815" type="line"/>
      <point x="842" y="1360" type="line"/>
      <point x="397" y="1360" type="line" smooth="yes"/>
      <point x="322" y="1360"/>
      <point x="239" y="1279"/>
      <point x="229" y="1192" type="qcurve" smooth="yes"/>
      <point x="219" y="1104" type="line"/>
      <point x="113" y="1104" type="line"/>
      <point x="123" y="1462" type="line"/>
      <point x="1094" y="1462" type="line"/>
    </contour>
  </outline>
</glyph>
<glyph name="uni01B6" format="2">
  <advance width="1047"/>
  <unicode hex="01B6"/>
  <outline>
    <contour>
      <point x="696" y="117" type="line" smooth="yes"/>
      <point x="749" y="117"/>
      <point x="815" y="186"/>
      <point x="836" y="285" type="qcurve" smooth="yes"/>
      <point x="846" y="332" type="line"/>
      <point x="932" y="332" type="line"/>
      <point x="922" y="0" type="line"/>
      <point x="86" y="0" type="line"/>
      <point x="86" y="82" type="line"/>
      <point x="371" y="514" type="line"/>
      <point x="156" y="514" type="line"/>
      <point x="156" y="610" type="line"/>
      <point x="434" y="610" type="line"/>
      <point x="680" y="981" type="line"/>
      <point x="360" y="981" type="line" smooth="yes"/>
      <point x="295" y="981"/>
      <point x="229" y="920"/>
      <point x="203" y="815" type="qcurve" smooth="yes"/>
      <point x="201" y="807" type="line"/>
      <point x="115" y="807" type="line"/>
      <point x="135" y="1098" type="line"/>
      <point x="920" y="1098" type="line"/>
      <point x="920" y="1014" type="line"/>
      <point x="651" y="610" type="line"/>
      <point x="866" y="610" type="line"/>
      <point x="866" y="514" type="line"/>
      <point x="588" y="514" type="line"/>
      <point x="324" y="117" type="line"/>
    </contour>
  </outline>
</glyph>
<glyph name="uni01B8" format="2">
  <advance width="1235"/>
  <unicode hex="01B8"/>
  <outline>
    <contour>
      <point x="1118" y="289" type="qcurve"/>
      <point x="1135" y="278"/>
      <point x="1157" y="240"/>
      <point x="1157" y="209" type="qcurve" smooth="yes"/>
      <point x="1157" y="121"/>
      <point x="890" y="-20"/>
      <point x="686" y="-20" type="qcurve" smooth="yes"/>
      <point x="428" y="-20"/>
      <point x="125" y="210"/>
      <point x="125" y="418" type="qcurve" smooth="yes"/>
      <point x="125" y="616"/>
      <point x="415" y="832"/>
      <point x="692" y="838" type="qcurve"/>
      <point x="188" y="1378" type="line"/>
      <point x="188" y="1462" type="line"/>
      <point x="1044" y="1462" type="line"/>
      <point x="1055" y="1151" type="line"/>
      <point x="969" y="1151" type="line"/>
      <point x="967" y="1169" type="line" smooth="yes"/>
      <point x="958" y="1246"/>
      <point x="900" y="1296"/>
      <point x="797" y="1296" type="qcurve" smooth="yes"/>
      <point x="408" y="1296" type="line"/>
      <point x="864" y="805" type="line"/>
      <point x="864" y="721" type="line"/>
      <point x="715" y="721" type="line" smooth="yes"/>
      <point x="545" y="721"/>
      <point x="352" y="568"/>
      <point x="352" y="432" type="qcurve" smooth="yes"/>
      <point x="352" y="275"/>
      <point x="518" y="115"/>
      <point x="707" y="115" type="qcurve" smooth="yes"/>
      <point x="841" y="115"/>
      <point x="1059" y="210"/>
    </contour>
    <contour>
      <point x="650" y="90" type="line"/>
    </contour>
  </outline>
</glyph>
<glyph name="uni01B9" format="2">
  <advance width="1120"/>
  <unicode hex="01B9"/>
  <outline>
    <contour>
      <point x="979" y="-207" type="qcurve"/>
      <point x="994" y="-219"/>
      <point x="1014" y="-259"/>
      <point x="1014" y="-287" type="qcurve" smooth="yes"/>
      <point x="1014" y="-373"/>
      <point x="788" y="-492"/>
      <point x="606" y="-492" type="qcurve" smooth="yes"/>
      <point x="397" y="-492"/>
      <point x="113" y="-236"/>
      <point x="113" y="-20" type="qcurve" smooth="yes"/>
      <point x="113" y="204"/>
      <point x="368" y="451"/>
      <point x="608" y="465" type="qcurve"/>
      <point x="166" y="997" type="line"/>
      <point x="166" y="1098" type="line"/>
      <point x="961" y="1098" type="line"/>
      <point x="973" y="776" type="line"/>
      <point x="872" y="776" type="line"/>
      <point x="868" y="805" type="line" smooth="yes"/>
      <point x="857" y="883"/>
      <point x="801" y="934"/>
      <point x="735" y="934" type="qcurve" smooth="yes"/>
      <point x="365" y="934" type="line"/>
      <point x="768" y="440" type="line"/>
      <point x="768" y="356" type="line"/>
      <point x="721" y="356" type="line" smooth="yes"/>
      <point x="517" y="356"/>
      <point x="311" y="182"/>
      <point x="311" y="0" type="qcurve" smooth="yes"/>
      <point x="311" y="-182"/>
      <point x="475" y="-362"/>
      <point x="637" y="-362" type="qcurve" smooth="yes"/>
      <point x="744" y="-362"/>
      <point x="943" y="-272"/>
    </contour>
  </outline>
</glyph>
<glyph name="uni01BA" format="2">
  <advance width="1001"/>
  <unicode hex="01BA"/>
  <outline>
    <contour>
      <point x="782" y="-207" type="qcurve"/>
      <point x="798" y="-219"/>
      <point x="817" y="-259"/>
      <point x="817" y="-287" type="qcurve" smooth="yes"/>
      <point x="817" y="-374"/>
      <point x="605" y="-492"/>
      <point x="424" y="-492" type="qcurve" smooth="yes"/>
      <point x="255" y="-492"/>
      <point x="43" y="-365"/>
      <point x="43" y="-246" type="qcurve" smooth="yes"/>
      <point x="43" y="-119"/>
      <point x="223" y="-13"/>
      <point x="564" y="14"/>
      <point x="690" y="148"/>
      <point x="690" y="258" type="qcurve" smooth="yes"/>
      <point x="690" y="363"/>
      <point x="560" y="500"/>
      <point x="451" y="500" type="qcurve" smooth="yes"/>
      <point x="332" y="500" type="line"/>
      <point x="332" y="584" type="line"/>
      <point x="653" y="934" type="line"/>
      <point x="322" y="934" type="line" smooth="yes"/>
      <point x="260" y="934"/>
      <point x="202" y="888"/>
      <point x="188" y="805" type="qcurve" smooth="yes"/>
      <point x="184" y="776" type="line"/>
      <point x="84" y="776" type="line"/>
      <point x="96" y="1098" type="line"/>
      <point x="850" y="1098" type="line"/>
      <point x="850" y="997" type="line"/>
      <point x="489" y="608" type="line"/>
      <point x="489" y="598" type="line"/>
      <point x="675" y="598"/>
      <point x="889" y="392"/>
      <point x="889" y="256" type="qcurve" smooth="yes"/>
      <point x="889" y="148"/>
      <point x="782" y="-1"/>
      <point x="576" y="-84"/>
      <point x="332" y="-105"/>
      <point x="238" y="-169"/>
      <point x="238" y="-244" type="qcurve" smooth="yes"/>
      <point x="238" y="-310"/>
      <point x="347" y="-389"/>
      <point x="440" y="-389" type="qcurve" smooth="yes"/>
      <point x="555" y="-389"/>
      <point x="730" y="-300"/>
    </contour>
  </outline>
</glyph>
<glyph name="uni01BB" format="2">
  <advance width="1137"/>
  <unicode hex="01BB"/>
  <outline>
    <contour>
      <point x="811" y="852" type="qcurve"/>
      <point x="1004" y="852" type="line"/>
      <point x="1004" y="756" type="line"/>
      <point x="752" y="756" type="line"/>
      <point x="720" y="708"/>
      <point x="643" y="610"/>
      <point x="600" y="557" type="qcurve" smooth="yes"/>
      <point x="264" y="164" type="line"/>
      <point x="737" y="164" type="line" smooth="yes"/>
      <point x="811" y="164"/>
      <point x="896" y="231"/>
      <point x="909" y="309" type="qcurve" smooth="yes"/>
      <point x="918" y="354" type="line"/>
      <point x="1004" y="354" type="line"/>
      <point x="993" y="0" type="line"/>
      <point x="102" y="0" type="line"/>
      <point x="102" y="150" type="line"/>
      <point x="432" y="555" type="line" smooth="yes"/>
      <point x="477" y="609"/>
      <point x="549" y="709"/>
      <point x="578" y="756" type="qcurve"/>
      <point x="164" y="756" type="line"/>
      <point x="164" y="852" type="line"/>
      <point x="631" y="852" type="line"/>
      <point x="671" y="934"/>
      <point x="705" y="1083"/>
      <point x="705" y="1161" type="qcurve" smooth="yes"/>
      <point x="705" y="1299"/>
      <point x="599" y="1448"/>
      <point x="508" y="1448" type="qcurve" smooth="yes"/>
      <point x="402" y="1448"/>
      <point x="303" y="1308"/>
      <point x="303" y="1149" type="qcurve"/>
      <point x="212" y="1149"/>
      <point x="127" y="1216"/>
      <point x="127" y="1282" type="qcurve" smooth="yes"/>
      <point x="127" y="1408"/>
      <point x="329" y="1556"/>
      <point x="508" y="1556" type="qcurve" smooth="yes"/>
      <point x="699" y="1556"/>
      <point x="911" y="1363"/>
      <point x="911" y="1182" type="qcurve" smooth="yes"/>
      <point x="911" y="1101"/>
      <point x="861" y="939"/>
    </contour>
  </outline>
</glyph>
<glyph name="uni01BC" format="2">
  <advance width="1143"/>
  <unicode hex="01BC"/>
  <outline>
    <contour>
      <point x="549" y="909" type="line" smooth="yes"/>
      <point x="776" y="909"/>
      <point x="1032" y="663"/>
      <point x="1032" y="440" type="qcurve" smooth="yes"/>
      <point x="1032" y="224"/>
      <point x="760" y="-20"/>
      <point x="506" y="-20" type="qcurve" smooth="yes"/>
      <point x="309" y="-20"/>
      <point x="66" y="137"/>
      <point x="66" y="268" type="qcurve" smooth="yes"/>
      <point x="66" y="333"/>
      <point x="152" y="416"/>
      <point x="219" y="416" type="qcurve"/>
      <point x="227" y="260"/>
      <point x="376" y="90"/>
      <point x="522" y="90" type="qcurve" smooth="yes"/>
      <point x="660" y="90"/>
      <point x="805" y="260"/>
      <point x="805" y="440" type="qcurve" smooth="yes"/>
      <point x="805" y="612"/>
      <point x="658" y="795"/>
      <point x="522" y="795" type="qcurve" smooth="yes"/>
      <point x="254" y="795" type="line"/>
      <point x="254" y="1229" type="line" smooth="yes"/>
      <point x="254" y="1305"/>
      <point x="184" y="1376"/>
      <point x="90" y="1376" type="qcurve" smooth="yes"/>
      <point x="80" y="1376" type="line"/>
      <point x="80" y="1462" type="line"/>
      <point x="965" y="1462" type="line"/>
      <point x="975" y="1104" type="line"/>
      <point x="868" y="1104" type="line"/>
      <point x="858" y="1192" type="line" smooth="yes"/>
      <point x="847" y="1283"/>
      <point x="762" y="1360"/>
      <point x="688" y="1360" type="qcurve" smooth="yes"/>
      <point x="461" y="1360" type="line"/>
      <point x="461" y="909" type="line"/>
    </contour>
  </outline>
</glyph>
<glyph name="uni01C1" format="2">
  <advance width="1128"/>
  <unicode hex="01C1"/>
  <outline>
    <contour>
      <point x="289" y="1556" type="line"/>
      <point x="438" y="1556" type="line"/>
      <point x="438" y="-492" type="line"/>
      <point x="289" y="-492" type="line"/>
    </contour>
    <contour>
      <point x="698" y="1556" type="line"/>
      <point x="850" y="1556" type="line"/>
      <point x="850" y="-492" type="line"/>
      <point x="698" y="-492" type="line"/>
    </contour>
  </outline>
</glyph>
<glyph name="uni01E5" format="2">
  <advance width="1102"/>
  <unicode hex="01E5"/>
  <outline>
    <contour>
      <point x="969" y="948" type="qcurve"/>
      <point x="969" y="979"/>
      <point x="935" y="1018"/>
      <point x="901" y="1018" type="qcurve" smooth="yes"/>
      <point x="875" y="1018"/>
      <point x="833" y="1006"/>
      <point x="813" y="993" type="qcurve"/>
      <point x="848" y="950"/>
      <point x="893" y="833"/>
      <point x="893" y="745" type="qcurve" smooth="yes"/>
      <point x="893" y="584"/>
      <point x="700" y="393"/>
      <point x="524" y="393" type="qcurve" smooth="yes"/>
      <point x="496" y="393"/>
      <point x="435" y="398"/>
      <point x="418" y="401" type="qcurve"/>
      <point x="378" y="381"/>
      <point x="319" y="321"/>
      <point x="319" y="274" type="qcurve" smooth="yes"/>
      <point x="319" y="235"/>
      <point x="371" y="197"/>
      <point x="446" y="197" type="qcurve" smooth="yes"/>
      <point x="678" y="197" type="line" smooth="yes"/>
      <point x="847" y="197"/>
      <point x="1016" y="34"/>
      <point x="1016" y="-125" type="qcurve"/>
      <point x="1130" y="-125" type="line"/>
      <point x="1130" y="-221" type="line"/>
      <point x="999" y="-221" type="line"/>
      <point x="962" y="-347"/>
      <point x="703" y="-492"/>
      <point x="473" y="-492" type="qcurve" smooth="yes"/>
      <point x="259" y="-492"/>
      <point x="47" y="-334"/>
      <point x="47" y="-193" type="qcurve" smooth="yes"/>
      <point x="47" y="-87"/>
      <point x="186" y="49"/>
      <point x="303" y="70" type="qcurve"/>
      <point x="253" y="91"/>
      <point x="190" y="181"/>
      <point x="190" y="238" type="qcurve" smooth="yes"/>
      <point x="190" y="299"/>
      <point x="254" y="388"/>
      <point x="324" y="430" type="qcurve"/>
      <point x="239" y="465"/>
      <point x="139" y="634"/>
      <point x="139" y="739" type="qcurve" smooth="yes"/>
      <point x="139" y="921"/>
      <point x="336" y="1118"/>
      <point x="524" y="1118" type="qcurve" smooth="yes"/>
      <point x="596" y="1118"/>
      <point x="727" y="1078"/>
      <point x="758" y="1051" type="qcurve"/>
      <point x="819" y="1116"/>
      <point x="912" y="1161"/>
      <point x="956" y="1161" type="qcurve" smooth="yes"/>
      <point x="1017" y="1161"/>
      <point x="1077" y="1098"/>
      <point x="1077" y="1055" type="qcurve" smooth="yes"/>
      <point x="1077" y="1011"/>
      <point x="1024" y="948"/>
    </contour>
    <contour>
      <point x="504" y="-125" type="line"/>
      <point x="846" y="-125" type="line"/>
      <point x="843" y="-55"/>
      <point x="753" y="14"/>
      <point x="639" y="14" type="qcurve" smooth="yes"/>
      <point x="438" y="14" type="line" smooth="yes"/>
      <point x="320" y="14"/>
      <point x="213" y="-83"/>
      <point x="213" y="-180" type="qcurve" smooth="yes"/>
      <point x="213" y="-292"/>
      <point x="345" y="-391"/>
      <point x="477" y="-391" type="qcurve" smooth="yes"/>
      <point x="636" y="-391"/>
      <point x="813" y="-309"/>
      <point x="838" y="-221" type="qcurve"/>
      <point x="504" y="-221" type="line"/>
    </contour>
    <contour>
      <point x="518" y="492" type="qcurve" smooth="yes"/>
      <point x="613" y="492"/>
      <point x="700" y="606"/>
      <point x="700" y="748" type="qcurve" smooth="yes"/>
      <point x="700" y="887"/>
      <point x="616" y="1018"/>
      <point x="516" y="1018" type="qcurve" smooth="yes"/>
      <point x="418" y="1018"/>
      <point x="332" y="884"/>
      <point x="332" y="745" type="qcurve" smooth="yes"/>
      <point x="332" y="615"/>
      <point x="418" y="492"/>
    </contour>
  </outline>
</glyph>
<glyph name="uni01EA" format="2">
  <advance width="1520"/>
  <unicode hex="01EA"/>
  <outline>
    <contour>
      <point x="764" y="-20" type="qcurve"/>
      <point x="760" y="-20" type="line" smooth="yes"/>
      <point x="451" y="-20"/>
      <point x="115" y="374"/>
      <point x="115" y="735" type="qcurve" smooth="yes"/>
      <point x="115" y="1091"/>
      <point x="450" y="1485"/>
      <point x="762" y="1485" type="qcurve" smooth="yes"/>
      <point x="1060" y="1485"/>
      <point x="1403" y="1085"/>
      <point x="1403" y="733" type="qcurve" smooth="yes"/>
      <point x="1403" y="441"/>
      <point x="1157" y="54"/>
      <point x="938" y="0" type="qcurve"/>
      <point x="940" y="0" type="line"/>
      <point x="859" y="-25"/>
      <point x="750" y="-152"/>
      <point x="750" y="-236" type="qcurve" smooth="yes"/>
      <point x="750" y="-299"/>
      <point x="823" y="-365"/>
      <point x="891" y="-365" type="qcurve" smooth="yes"/>
      <point x="919" y="-365"/>
      <point x="983" y="-356"/>
      <point x="1020" y="-348" type="qcurve"/>
      <point x="1020" y="-459" type="line"/>
      <point x="990" y="-474"/>
      <point x="892" y="-492"/>
      <point x="862" y="-492" type="qcurve" smooth="yes"/>
      <point x="731" y="-492"/>
      <point x="582" y="-383"/>
      <point x="582" y="-266" type="qcurve" smooth="yes"/>
      <point x="582" y="-191"/>
      <point x="686" y="-55"/>
    </contour>
    <contour>
      <point x="760" y="90" type="qcurve" smooth="yes"/>
      <point x="971" y="90"/>
      <point x="1176" y="399"/>
      <point x="1176" y="733" type="qcurve" smooth="yes"/>
      <point x="1176" y="1065"/>
      <point x="972" y="1374"/>
      <point x="762" y="1374" type="qcurve" smooth="yes"/>
      <point x="551" y="1374"/>
      <point x="342" y="1066"/>
      <point x="342" y="733" type="qcurve" smooth="yes"/>
      <point x="342" y="402"/>
      <point x="549" y="90"/>
    </contour>
  </outline>
</glyph>
<glyph name="uni01EB" format="2">
  <advance width="1182"/>
  <unicode hex="01EB"/>
  <outline>
    <contour>
      <point x="582" y="-20" type="qcurve"/>
      <point x="355" y="-18"/>
      <point x="113" y="276"/>
      <point x="113" y="551" type="qcurve" smooth="yes"/>
      <point x="113" y="838"/>
      <point x="355" y="1118"/>
      <point x="594" y="1118" type="qcurve" smooth="yes"/>
      <point x="825" y="1118"/>
      <point x="1069" y="828"/>
      <point x="1069" y="551" type="qcurve" smooth="yes"/>
      <point x="1069" y="315"/>
      <point x="907" y="43"/>
      <point x="750" y="0" type="qcurve"/>
      <point x="760" y="0" type="line"/>
      <point x="680" y="-25"/>
      <point x="569" y="-151"/>
      <point x="569" y="-236" type="qcurve" smooth="yes"/>
      <point x="569" y="-300"/>
      <point x="644" y="-365"/>
      <point x="711" y="-365" type="qcurve" smooth="yes"/>
      <point x="739" y="-365"/>
      <point x="803" y="-356"/>
      <point x="840" y="-348" type="qcurve"/>
      <point x="840" y="-459" type="line"/>
      <point x="810" y="-474"/>
      <point x="712" y="-492"/>
      <point x="682" y="-492" type="qcurve" smooth="yes"/>
      <point x="546" y="-492"/>
      <point x="401" y="-378"/>
      <point x="401" y="-266" type="qcurve" smooth="yes"/>
      <point x="401" y="-191"/>
      <point x="504" y="-56"/>
    </contour>
    <contour>
      <point x="592" y="86" type="qcurve" smooth="yes"/>
      <point x="735" y="86"/>
      <point x="870" y="304"/>
      <point x="870" y="551" type="qcurve" smooth="yes"/>
      <point x="870" y="792"/>
      <point x="737" y="1010"/>
      <point x="590" y="1010" type="qcurve" smooth="yes"/>
      <point x="444" y="1010"/>
      <point x="311" y="791"/>
      <point x="311" y="551" type="qcurve" smooth="yes"/>
      <point x="311" y="306"/>
      <point x="448" y="86"/>
    </contour>
  </outline>
</glyph>
<glyph name="uni0223" format="2">
  <advance width="1182"/>
  <unicode hex="0223"/>
  <outline>
    <contour>
      <point x="422" y="1567" type="qcurve"/>
      <point x="399" y="1520"/>
      <point x="362" y="1374"/>
      <point x="362" y="1272" type="qcurve" smooth="yes"/>
      <point x="362" y="1105"/>
      <point x="473" y="969"/>
      <point x="592" y="969" type="qcurve" smooth="yes"/>
      <point x="710" y="969"/>
      <point x="819" y="1102"/>
      <point x="819" y="1272" type="qcurve" smooth="yes"/>
      <point x="819" y="1374"/>
      <point x="783" y="1520"/>
      <point x="760" y="1567" type="qcurve"/>
      <point x="887" y="1543"/>
      <point x="1018" y="1381"/>
      <point x="1018" y="1247" type="qcurve" smooth="yes"/>
      <point x="1018" y="1142"/>
      <point x="894" y="960"/>
      <point x="788" y="922" type="qcurve"/>
      <point x="931" y="870"/>
      <point x="1069" y="642"/>
      <point x="1069" y="477" type="qcurve" smooth="yes"/>
      <point x="1069" y="226"/>
      <point x="824" y="-20"/>
      <point x="588" y="-20" type="qcurve" smooth="yes"/>
      <point x="357" y="-20"/>
      <point x="113" y="235"/>
      <point x="113" y="477" type="qcurve" smooth="yes"/>
      <point x="113" y="652"/>
      <point x="254" y="876"/>
      <point x="395" y="924" type="qcurve"/>
      <point x="287" y="965"/>
      <point x="164" y="1137"/>
      <point x="164" y="1247" type="qcurve" smooth="yes"/>
      <point x="164" y="1380"/>
      <point x="295" y="1543"/>
    </contour>
    <contour>
      <point x="592" y="86" type="qcurve" smooth="yes"/>
      <point x="736" y="86"/>
      <point x="870" y="272"/>
      <point x="870" y="481" type="qcurve" smooth="yes"/>
      <point x="870" y="684"/>
      <point x="737" y="870"/>
      <point x="590" y="870" type="qcurve" smooth="yes"/>
      <point x="443" y="870"/>
      <point x="311" y="684"/>
      <point x="311" y="481" type="qcurve" smooth="yes"/>
      <point x="311" y="274"/>
      <point x="447" y="86"/>
    </contour>
  </outline>
</glyph>
<glyph name="uni0228" format="2">
  <advance width="1276"/>
  <unicode hex="0228"/>
  <outline>
    <contour>
      <point x="623" y="-492" type="qcurve" smooth="yes"/>
      <point x="589" y="-492"/>
      <point x="506" y="-480"/>
      <point x="465" y="-469" type="qcurve"/>
      <point x="465" y="-365" type="line"/>
      <point x="502" y="-373"/>
      <point x="576" y="-381"/>
      <point x="604" y="-381" type="qcurve" smooth="yes"/>
      <point x="663" y="-381"/>
      <point x="729" y="-319"/>
      <point x="729" y="-266" type="qcurve" smooth="yes"/>
      <point x="729" y="-206"/>
      <point x="642" y="-146"/>
      <point x="575" y="-141" type="qcurve"/>
      <point x="612" y="0" type="line"/>
      <point x="78" y="0" type="line"/>
      <point x="78" y="86" type="line"/>
      <point x="104" y="86" type="line" smooth="yes"/>
      <point x="201" y="86"/>
      <point x="272" y="154"/>
      <point x="272" y="223" type="qcurve" smooth="yes"/>
      <point x="272" y="1229" type="line" smooth="yes"/>
      <point x="272" y="1304"/>
      <point x="200" y="1376"/>
      <point x="104" y="1376" type="qcurve" smooth="yes"/>
      <point x="78" y="1376" type="line"/>
      <point x="78" y="1462" type="line"/>
      <point x="1110" y="1462" type="line"/>
      <point x="1120" y="1104" type="line"/>
      <point x="1014" y="1104" type="line"/>
      <point x="1004" y="1192" type="line" smooth="yes"/>
      <point x="994" y="1275"/>
      <point x="902" y="1360"/>
      <point x="823" y="1360" type="qcurve" smooth="yes"/>
      <point x="479" y="1360" type="line"/>
      <point x="479" y="815" type="line"/>
      <point x="973" y="815" type="line"/>
      <point x="973" y="715" type="line"/>
      <point x="479" y="715" type="line"/>
      <point x="479" y="102" type="line"/>
      <point x="874" y="102" type="line" smooth="yes"/>
      <point x="959" y="102"/>
      <point x="1057" y="189"/>
      <point x="1069" y="270" type="qcurve" smooth="yes"/>
      <point x="1083" y="358" type="line"/>
      <point x="1190" y="358" type="line"/>
      <point x="1176" y="0" type="line"/>
      <point x="711" y="0" type="line"/>
      <point x="694" y="-70" type="line"/>
      <point x="794" y="-78"/>
      <point x="893" y="-177"/>
      <point x="893" y="-258" type="qcurve" smooth="yes"/>
      <point x="893" y="-367"/>
      <point x="754" y="-492"/>
    </contour>
  </outline>
</glyph>
<glyph name="uni0229" format="2">
  <advance width="1096"/>
  <unicode hex="0229"/>
  <outline>
    <contour>
      <point x="522" y="-492" type="qcurve" smooth="yes"/>
      <point x="488" y="-492"/>
      <point x="405" y="-480"/>
      <point x="365" y="-469" type="qcurve"/>
      <point x="365" y="-365" type="line"/>
      <point x="402" y="-373"/>
      <point x="476" y="-381"/>
      <point x="504" y="-381" type="qcurve" smooth="yes"/>
      <point x="563" y="-381"/>
      <point x="629" y="-319"/>
      <point x="629" y="-266" type="qcurve" smooth="yes"/>
      <point x="629" y="-210"/>
      <point x="546" y="-145"/>
      <point x="475" y="-141" type="qcurve"/>
      <point x="508" y="-14" type="line"/>
      <point x="320" y="10"/>
      <point x="113" y="303"/>
      <point x="113" y="541" type="qcurve" smooth="yes"/>
      <point x="113" y="828"/>
      <point x="349" y="1118"/>
      <point x="567" y="1118" type="qcurve" smooth="yes"/>
      <point x="771" y="1118"/>
      <point x="993" y="863"/>
      <point x="993" y="629" type="qcurve" smooth="yes"/>
      <point x="993" y="535" type="line"/>
      <point x="311" y="535" type="line"/>
      <point x="315" y="321"/>
      <point x="461" y="109"/>
      <point x="616" y="109" type="qcurve" smooth="yes"/>
      <point x="712" y="109"/>
      <point x="870" y="191"/>
      <point x="909" y="252" type="qcurve"/>
      <point x="923" y="246"/>
      <point x="948" y="208"/>
      <point x="948" y="182" type="qcurve" smooth="yes"/>
      <point x="948" y="110"/>
      <point x="759" y="-16"/>
      <point x="604" y="-20" type="qcurve"/>
      <point x="594" y="-70" type="line"/>
      <point x="694" y="-78"/>
      <point x="793" y="-177"/>
      <point x="793" y="-258" type="qcurve" smooth="yes"/>
      <point x="793" y="-367"/>
      <point x="653" y="-492"/>
    </contour>
    <contour>
      <point x="315" y="645" type="qcurve"/>
      <point x="786" y="645" type="line"/>
      <point x="786" y="824"/>
      <point x="676" y="1008"/>
      <point x="563" y="1008" type="qcurve" smooth="yes"/>
      <point x="449" y="1008"/>
      <point x="326" y="823"/>
    </contour>
  </outline>
</glyph>
<glyph name="uni0236" format="2">
  <advance width="776"/>
  <unicode hex="0236"/>
  <outline>
    <contour>
      <point x="209" y="174" type="qcurve"/>
      <point x="181" y="125"/>
      <point x="140" y="6"/>
      <point x="125" y="-63" type="qcurve"/>
      <point x="18" y="-35" type="line"/>
      <point x="47" y="84"/>
      <point x="136" y="269"/>
      <point x="195" y="332" type="qcurve"/>
      <point x="195" y="981" type="line"/>
      <point x="39" y="981" type="line"/>
      <point x="39" y="1063" type="line"/>
      <point x="125" y="1063"/>
      <point x="258" y="1179"/>
      <point x="293" y="1350" type="qcurve"/>
      <point x="387" y="1350" type="line"/>
      <point x="387" y="1098" type="line"/>
      <point x="655" y="1098" type="line"/>
      <point x="655" y="981" type="line"/>
      <point x="387" y="981" type="line"/>
      <point x="387" y="451" type="line"/>
      <point x="430" y="463"/>
      <point x="475" y="463" type="qcurve" smooth="yes"/>
      <point x="600" y="463"/>
      <point x="739" y="331"/>
      <point x="739" y="231" type="qcurve" smooth="yes"/>
      <point x="739" y="117"/>
      <point x="590" y="-20"/>
      <point x="467" y="-20" type="qcurve" smooth="yes"/>
      <point x="363" y="-20"/>
      <point x="233" y="78"/>
    </contour>
    <contour>
      <point x="387" y="344" type="qcurve"/>
      <point x="387" y="250" type="line" smooth="yes"/>
      <point x="387" y="172"/>
      <point x="443" y="96"/>
      <point x="508" y="96" type="qcurve" smooth="yes"/>
      <point x="567" y="96"/>
      <point x="629" y="173"/>
      <point x="629" y="231" type="qcurve" smooth="yes"/>
      <point x="629" y="292"/>
      <point x="548" y="360"/>
      <point x="473" y="360" type="qcurve" smooth="yes"/>
      <point x="450" y="360"/>
      <point x="407" y="352"/>
    </contour>
  </outline>
</glyph>
<glyph name="uni0237" format="2">
  <advance width="614"/>
  <unicode hex="0237"/>
  <outline>
    <contour>
      <point x="414" y="1098" type="line"/>
      <point x="414" y="-16" type="line" smooth="yes"/>
      <point x="414" y="-154"/>
      <point x="354" y="-337"/>
      <point x="246" y="-446"/>
      <point x="97" y="-492"/>
      <point x="8" y="-492" type="qcurve" smooth="yes"/>
      <point x="-25" y="-492" type="line"/>
      <point x="-25" y="-395" type="line"/>
      <point x="-10" y="-395" type="line" smooth="yes"/>
      <point x="45" y="-395"/>
      <point x="131" y="-358"/>
      <point x="190" y="-271"/>
      <point x="221" y="-126"/>
      <point x="221" y="-18" type="qcurve" smooth="yes"/>
      <point x="221" y="872" type="line" smooth="yes"/>
      <point x="221" y="917"/>
      <point x="194" y="972"/>
      <point x="148" y="1002"/>
      <point x="87" y="1012"/>
      <point x="53" y="1012" type="qcurve" smooth="yes"/>
      <point x="47" y="1012" type="line"/>
      <point x="47" y="1098" type="line"/>
    </contour>
  </outline>
</glyph>
<glyph name="uni0240" format="2">
  <advance width="1030"/>
  <unicode hex="0240"/>
  <outline>
    <contour>
      <point x="86" y="0" type="line"/>
      <point x="86" y="82" type="line"/>
      <point x="670" y="981" type="line"/>
      <point x="350" y="981" type="line" smooth="yes"/>
      <point x="285" y="981"/>
      <point x="219" y="920"/>
      <point x="193" y="815" type="qcurve"/>
      <point x="190" y="807" type="line"/>
      <point x="104" y="807" type="line"/>
      <point x="125" y="1098" type="line"/>
      <point x="909" y="1098" type="line"/>
      <point x="909" y="1014" type="line"/>
      <point x="313" y="102" type="line"/>
      <point x="412" y="90"/>
      <point x="540" y="-32"/>
      <point x="642" y="-259"/>
      <point x="744" y="-358"/>
      <point x="801" y="-358" type="qcurve" smooth="yes"/>
      <point x="855" y="-358"/>
      <point x="922" y="-266"/>
      <point x="924" y="-182" type="qcurve"/>
      <point x="968" y="-184"/>
      <point x="1030" y="-258"/>
      <point x="1030" y="-311" type="qcurve" smooth="yes"/>
      <point x="1030" y="-389"/>
      <point x="905" y="-492"/>
      <point x="809" y="-492" type="qcurve" smooth="yes"/>
      <point x="686" y="-492"/>
      <point x="533" y="-353"/>
      <point x="421" y="-88"/>
      <point x="287" y="0"/>
      <point x="164" y="0" type="qcurve" smooth="yes"/>
    </contour>
  </outline>
</glyph>
<glyph name="uni0242" format="2">
  <advance width="852"/>
  <unicode hex="0242"/>
  <outline>
    <contour>
      <point x="289" y="444" type="line"/>
      <point x="469" y="573" type="line" smooth="yes"/>
      <point x="543" y="625"/>
      <point x="612" y="743"/>
      <point x="612" y="834" type="qcurve" smooth="yes"/>
      <point x="612" y="918"/>
      <point x="499" y="1010"/>
      <point x="401" y="1010" type="qcurve" smooth="yes"/>
      <point x="287" y="1010"/>
      <point x="172" y="878"/>
      <point x="172" y="743" type="qcurve"/>
      <point x="110" y="743"/>
      <point x="37" y="815"/>
      <point x="37" y="872" type="qcurve" smooth="yes"/>
      <point x="37" y="982"/>
      <point x="230" y="1118"/>
      <point x="403" y="1118" type="qcurve" smooth="yes"/>
      <point x="575" y="1118"/>
      <point x="778" y="946"/>
      <point x="778" y="797" type="qcurve" smooth="yes"/>
      <point x="778" y="672"/>
      <point x="675" y="496"/>
      <point x="575" y="428" type="qcurve" smooth="yes"/>
      <point x="481" y="362" type="line"/>
      <point x="481" y="223" type="line" smooth="yes"/>
      <point x="481" y="154"/>
      <point x="552" y="86"/>
      <point x="649" y="86" type="qcurve" smooth="yes"/>
      <point x="666" y="86" type="line"/>
      <point x="666" y="0" type="line"/>
      <point x="104" y="0" type="line"/>
      <point x="104" y="86" type="line"/>
      <point x="131" y="86" type="line" smooth="yes"/>
      <point x="231" y="86"/>
      <point x="289" y="154"/>
      <point x="289" y="223" type="qcurve" smooth="yes"/>
    </contour>
  </outline>
</glyph>
<glyph name="uni0246" format="2">
  <advance width="1276"/>
  <unicode hex="0246"/>
  <outline>
    <contour>
      <point x="444" y="0" type="line"/>
      <point x="78" y="0" type="line"/>
      <point x="78" y="86" type="line"/>
      <point x="104" y="86" type="line" smooth="yes"/>
      <point x="201" y="86"/>
      <point x="272" y="154"/>
      <point x="272" y="223" type="qcurve" smooth="yes"/>
      <point x="272" y="1229" type="line" smooth="yes"/>
      <point x="272" y="1304"/>
      <point x="200" y="1376"/>
      <point x="104" y="1376" type="qcurve" smooth="yes"/>
      <point x="78" y="1376" type="line"/>
      <point x="78" y="1462" type="line"/>
      <point x="899" y="1462" type="line"/>
      <point x="930" y="1556" type="line"/>
      <point x="1038" y="1556" type="line"/>
      <point x="1008" y="1462" type="line"/>
      <point x="1110" y="1462" type="line"/>
      <point x="1120" y="1104" type="line"/>
      <point x="1014" y="1104" type="line"/>
      <point x="1004" y="1192" type="line" smooth="yes"/>
      <point x="999" y="1224"/>
      <point x="978" y="1282"/>
      <point x="958" y="1305" type="qcurve"/>
      <point x="807" y="815" type="line"/>
      <point x="973" y="815" type="line"/>
      <point x="973" y="715" type="line"/>
      <point x="774" y="715" type="line"/>
      <point x="584" y="102" type="line"/>
      <point x="874" y="102" type="line" smooth="yes"/>
      <point x="959" y="102"/>
      <point x="1057" y="189"/>
      <point x="1069" y="270" type="qcurve" smooth="yes"/>
      <point x="1083" y="358" type="line"/>
      <point x="1190" y="358" type="line"/>
      <point x="1176" y="0" type="line"/>
      <point x="553" y="0" type="line"/>
      <point x="516" y="-119" type="line"/>
      <point x="408" y="-119" type="line"/>
    </contour>
    <contour>
      <point x="479" y="815" type="line"/>
      <point x="698" y="815" type="line"/>
      <point x="866" y="1356" type="line"/>
      <point x="857" y="1358"/>
      <point x="834" y="1360"/>
      <point x="823" y="1360" type="qcurve" smooth="yes"/>
      <point x="479" y="1360" type="line"/>
    </contour>
    <contour>
      <point x="479" y="111" type="line"/>
      <point x="668" y="715" type="line"/>
      <point x="479" y="715" type="line"/>
    </contour>
  </outline>
</glyph>
<glyph name="uni0247" format="2">
  <advance width="1096"/>
  <unicode hex="0247"/>
  <outline>
    <contour>
      <point x="473" y="-8" type="qcurve"/>
      <point x="381" y="-424" type="line"/>
      <point x="276" y="-424" type="line"/>
      <point x="377" y="23" type="line"/>
      <point x="249" y="81"/>
      <point x="113" y="345"/>
      <point x="113" y="541" type="qcurve" smooth="yes"/>
      <point x="113" y="828"/>
      <point x="349" y="1118"/>
      <point x="567" y="1118" type="qcurve" smooth="yes"/>
      <point x="581" y="1118"/>
      <point x="609" y="1116"/>
      <point x="623" y="1114" type="qcurve"/>
      <point x="702" y="1462" type="line"/>
      <point x="807" y="1462" type="line"/>
      <point x="723" y="1094" type="line"/>
      <point x="851" y="1052"/>
      <point x="993" y="819"/>
      <point x="993" y="629" type="qcurve" smooth="yes"/>
      <point x="993" y="535" type="line"/>
      <point x="596" y="535" type="line"/>
      <point x="504" y="125" type="line"/>
      <point x="529" y="117"/>
      <point x="585" y="109"/>
      <point x="616" y="109" type="qcurve" smooth="yes"/>
      <point x="712" y="109"/>
      <point x="870" y="191"/>
      <point x="909" y="252" type="qcurve"/>
      <point x="923" y="246"/>
      <point x="948" y="208"/>
      <point x="948" y="182" type="qcurve" smooth="yes"/>
      <point x="948" y="107"/>
      <point x="747" y="-20"/>
      <point x="588" y="-20" type="qcurve" smooth="yes"/>
      <point x="528" y="-20"/>
    </contour>
    <contour>
      <point x="598" y="1004" type="line"/>
      <point x="590" y="1006"/>
      <point x="572" y="1008"/>
      <point x="563" y="1008" type="qcurve" smooth="yes"/>
      <point x="449" y="1008"/>
      <point x="326" y="823"/>
      <point x="315" y="645" type="qcurve"/>
      <point x="516" y="645" type="line"/>
    </contour>
    <contour>
      <point x="311" y="535" type="line"/>
      <point x="313" y="407"/>
      <point x="364" y="235"/>
      <point x="414" y="184" type="qcurve"/>
      <point x="492" y="535" type="line"/>
    </contour>
    <contour>
      <point x="786" y="645" type="line"/>
      <point x="786" y="753"/>
      <point x="743" y="916"/>
      <point x="692" y="961" type="qcurve"/>
      <point x="621" y="645" type="line"/>
    </contour>
  </outline>
</glyph>
<glyph name="uni024D" format="2">
  <advance width="965"/>
  <unicode hex="024D"/>
  <outline>
    <contour>
      <point x="659" y="0" type="line"/>
      <point x="68" y="0" type="line"/>
      <point x="68" y="86" type="line"/>
      <point x="74" y="86" type="line" smooth="yes"/>
      <point x="171" y="86"/>
      <point x="242" y="160"/>
      <point x="242" y="233" type="qcurve" smooth="yes"/>
      <point x="242" y="535" type="line"/>
      <point x="20" y="535" type="line"/>
      <point x="20" y="631" type="line"/>
      <point x="242" y="631" type="line"/>
      <point x="242" y="872" type="line" smooth="yes"/>
      <point x="242" y="942"/>
      <point x="168" y="1012"/>
      <point x="74" y="1012" type="qcurve" smooth="yes"/>
      <point x="68" y="1012" type="line"/>
      <point x="68" y="1098" type="line"/>
      <point x="383" y="1098" type="line"/>
      <point x="422" y="895" type="line"/>
      <point x="432" y="895" type="line"/>
      <point x="478" y="1001"/>
      <point x="543" y="1076"/>
      <point x="638" y="1118"/>
      <point x="713" y="1118" type="qcurve" smooth="yes"/>
      <point x="825" y="1118"/>
      <point x="934" y="1040"/>
      <point x="934" y="969" type="qcurve" smooth="yes"/>
      <point x="934" y="904"/>
      <point x="846" y="823"/>
      <point x="743" y="823" type="qcurve"/>
      <point x="743" y="907"/>
      <point x="695" y="983"/>
      <point x="635" y="983" type="qcurve" smooth="yes"/>
      <point x="559" y="983"/>
      <point x="456" y="801"/>
      <point x="438" y="631" type="qcurve"/>
      <point x="711" y="631" type="line"/>
      <point x="711" y="535" type="line"/>
      <point x="434" y="535" type="line"/>
      <point x="434" y="223" type="line" smooth="yes"/>
      <point x="434" y="154"/>
      <point x="505" y="86"/>
      <point x="602" y="86" type="qcurve" smooth="yes"/>
      <point x="659" y="86" type="line"/>
    </contour>
  </outline>
</glyph>
<glyph name="uni024F" format="2">
  <advance width="1157"/>
  <unicode hex="024F"/>
  <outline>
    <contour>
      <point x="1157" y="1098" type="line"/>
      <point x="1157" y="1012" type="line"/>
      <point x="1149" y="1012" type="line" smooth="yes"/>
      <point x="1086" y="1012"/>
      <point x="1030" y="947"/>
      <point x="995" y="852" type="qcurve" smooth="yes"/>
      <point x="944" y="713" type="line"/>
      <point x="1157" y="713" type="line"/>
      <point x="1157" y="616" type="line"/>
      <point x="909" y="616" type="line"/>
      <point x="684" y="-8" type="line" smooth="yes"/>
      <point x="604" y="-228"/>
      <point x="489" y="-402"/>
      <point x="306" y="-492"/>
      <point x="96" y="-492" type="qcurve" smooth="yes"/>
      <point x="78" y="-492" type="line"/>
      <point x="78" y="-395" type="line"/>
      <point x="246" y="-395"/>
      <point x="472" y="-214"/>
      <point x="539" y="8" type="qcurve"/>
      <point x="281" y="616" type="line"/>
      <point x="0" y="616" type="line"/>
      <point x="0" y="713" type="line"/>
      <point x="240" y="713" type="line"/>
      <point x="160" y="903" type="line" smooth="yes"/>
      <point x="130" y="969"/>
      <point x="75" y="1012"/>
      <point x="16" y="1012" type="qcurve" smooth="yes"/>
      <point x="8" y="1012" type="line"/>
      <point x="8" y="1098" type="line"/>
      <point x="500" y="1098" type="line"/>
      <point x="500" y="1012" type="line"/>
      <point x="492" y="1012" type="line" smooth="yes"/>
      <point x="431" y="1012"/>
      <point x="371" y="965"/>
      <point x="371" y="913" type="qcurve" smooth="yes"/>
      <point x="371" y="896"/>
      <point x="378" y="861"/>
      <point x="387" y="838" type="qcurve" smooth="yes"/>
      <point x="438" y="713" type="line"/>
      <point x="815" y="713" type="line"/>
      <point x="854" y="823" type="line" smooth="yes"/>
      <point x="863" y="848"/>
      <point x="872" y="894"/>
      <point x="872" y="911" type="qcurve" smooth="yes"/>
      <point x="872" y="965"/>
      <point x="806" y="1012"/>
      <point x="739" y="1012" type="qcurve" smooth="yes"/>
      <point x="731" y="1012" type="line"/>
      <point x="731" y="1098" type="line"/>
    </contour>
    <contour>
      <point x="641" y="176" type="line"/>
      <point x="652" y="221"/>
      <point x="691" y="350"/>
      <point x="717" y="424" type="qcurve" smooth="yes"/>
      <point x="782" y="616" type="line"/>
      <point x="477" y="616" type="line"/>
      <point x="537" y="473" type="line" smooth="yes"/>
      <point x="564" y="405"/>
      <point x="621" y="234"/>
      <point x="633" y="176" type="qcurve"/>
    </contour>
  </outline>
</glyph>
<glyph name="uni0251" format="2">
  <advance width="1257"/>
  <unicode hex="0251"/>
  <outline>
    <contour>
      <point x="852" y="184" type="qcurve"/>
      <point x="844" y="184" type="line"/>
      <point x="793" y="79"/>
      <point x="638" y="-20"/>
      <point x="530" y="-20" type="qcurve" smooth="yes"/>
      <point x="327" y="-20"/>
      <point x="113" y="247"/>
      <point x="113" y="526" type="qcurve" smooth="yes"/>
      <point x="113" y="828"/>
      <point x="324" y="1118"/>
      <point x="549" y="1118" type="qcurve" smooth="yes"/>
      <point x="643" y="1118"/>
      <point x="792" y="1029"/>
      <point x="844" y="938" type="qcurve"/>
      <point x="856" y="938" type="line"/>
      <point x="895" y="1098" type="line"/>
      <point x="1036" y="1098" type="line"/>
      <point x="1036" y="225" type="line" smooth="yes"/>
      <point x="1036" y="157"/>
      <point x="1083" y="88"/>
      <point x="1143" y="88" type="qcurve" smooth="yes"/>
      <point x="1183" y="88"/>
      <point x="1221" y="94" type="qcurve"/>
      <point x="1221" y="4" type="line"/>
      <point x="1195" y="-7"/>
      <point x="1124" y="-20"/>
      <point x="1077" y="-20" type="qcurve" smooth="yes"/>
      <point x="970" y="-20"/>
      <point x="861" y="80"/>
    </contour>
    <contour>
      <point x="844" y="547" type="qcurve" smooth="yes"/>
      <point x="844" y="787"/>
      <point x="709" y="987"/>
      <point x="563" y="987" type="qcurve" smooth="yes"/>
      <point x="435" y="987"/>
      <point x="311" y="772"/>
      <point x="311" y="545" type="qcurve" smooth="yes"/>
      <point x="311" y="317"/>
      <point x="434" y="111"/>
      <point x="565" y="111" type="qcurve" smooth="yes"/>
      <point x="714" y="111"/>
      <point x="844" y="305"/>
    </contour>
  </outline>
</glyph>
<glyph name="uni0252" format="2">
  <advance width="1257"/>
  <unicode hex="0252"/>
  <outline>
    <contour>
      <point x="406" y="913" type="qcurve"/>
      <point x="414" y="913" type="line"/>
      <point x="468" y="1022"/>
      <point x="621" y="1118"/>
      <point x="727" y="1118" type="qcurve" smooth="yes"/>
      <point x="929" y="1118"/>
      <point x="1145" y="851"/>
      <point x="1145" y="571" type="qcurve" smooth="yes"/>
      <point x="1145" y="269"/>
      <point x="932" y="-20"/>
      <point x="709" y="-20" type="qcurve" smooth="yes"/>
      <point x="604" y="-20"/>
      <point x="458" y="81"/>
      <point x="414" y="160" type="qcurve"/>
      <point x="401" y="160" type="line"/>
      <point x="362" y="0" type="line"/>
      <point x="221" y="0" type="line"/>
      <point x="221" y="872" type="line" smooth="yes"/>
      <point x="221" y="940"/>
      <point x="175" y="1010"/>
      <point x="115" y="1010" type="qcurve" smooth="yes"/>
      <point x="73" y="1010"/>
      <point x="37" y="1004" type="qcurve"/>
      <point x="37" y="1094" type="line"/>
      <point x="63" y="1105"/>
      <point x="134" y="1118"/>
      <point x="180" y="1118" type="qcurve" smooth="yes"/>
      <point x="289" y="1118"/>
      <point x="396" y="1017"/>
    </contour>
    <contour>
      <point x="414" y="551" type="qcurve" smooth="yes"/>
      <point x="414" y="314"/>
      <point x="546" y="111"/>
      <point x="694" y="111" type="qcurve" smooth="yes"/>
      <point x="822" y="111"/>
      <point x="946" y="324"/>
      <point x="946" y="553" type="qcurve" smooth="yes"/>
      <point x="946" y="771"/>
      <point x="828" y="987"/>
      <point x="692" y="987" type="qcurve" smooth="yes"/>
      <point x="542" y="987"/>
      <point x="414" y="791"/>
    </contour>
  </outline>
</glyph>
